<svg width="441" height="493" viewBox="0 0 441 493" fill="none" xmlns="http://www.w3.org/2000/svg">
<g id="covid-astronaut-red">
<path id="Vector" d="M184.846 217.914C193.192 219.007 198.527 216.629 203.94 214.321C211.977 210.893 218.228 205.915 223.629 200.189C226.377 197.29 228.563 193.954 231.578 191.264C234.284 188.854 237.537 186.945 242.275 186.603C250.499 186.015 259.935 188.862 270.76 196.209C280.595 202.903 289.331 210.512 297.197 218.75C301.761 223.572 305.237 228.622 307.261 233.367C310.671 241.088 313.817 248.735 315.793 256.024C317.103 260.877 316.778 264.785 313.593 267.028C311.497 268.5 308.779 269.323 306.051 270.147C302.264 271.291 298.335 272.264 295.147 274.044C290.943 276.355 289.621 280.412 292.092 286.754C293.573 290.536 296.287 294.205 300.921 297.608C310.438 304.595 319.831 309.632 329.075 311.173C332.978 311.826 337.011 312.72 341.413 314.481C343.244 315.168 345.138 316.198 346.922 317.477C348.706 318.756 350.325 320.245 351.631 321.807C354.602 325.244 356.657 328.495 357.341 331.587C357.409 331.923 357.525 332.278 357.689 332.645C357.804 332.914 358.027 333.203 358.317 333.462C358.607 333.72 358.946 333.931 359.274 334.058C359.599 334.192 359.897 334.238 360.117 334.185C360.336 334.133 360.462 333.986 360.473 333.771C360.509 333.622 360.504 333.45 360.458 333.26C359.444 328.101 355.632 322.776 349.738 317.411C347.255 315.137 344.443 313.743 341.656 312.523C336.739 310.36 332.359 309.526 327.963 308.656C323.699 307.797 319.398 306.705 314.625 304.158C310.391 301.945 306.194 299.324 302.175 296.382C298.314 293.516 296.135 290.537 294.92 287.378C292.601 281.356 294.46 278.019 298.51 276.029C302.672 273.98 307.809 272.958 312.428 271.386C318.677 269.261 320.968 264.55 318.686 256.768C316.37 248.71 313.109 240.329 308.945 231.735C306.465 226.7 302.549 221.439 297.591 216.485C291.005 209.775 283.667 203.406 275.853 197.618C271.698 194.551 267.357 191.806 262.971 189.471C256.871 186.24 251.41 184.918 246.164 184.145C239.388 183.141 234.939 184.802 231.127 187.203C228.448 188.883 226.588 191.236 224.689 193.553C220.424 198.676 215.742 203.44 209.911 207.276C204.79 210.691 198.815 213.324 192.07 215.139C187.125 216.449 180.543 214.94 173.348 212.292L172.214 211.832C170.748 211.237 170.127 211.245 170.571 212.467C170.909 212.849 171.309 213.213 171.746 213.534C172.182 213.855 172.645 214.125 173.103 214.328C175.24 215.192 177.334 215.88 179.349 216.379C180.726 216.68 182.156 217.095 183.62 217.619C183.758 217.563 183.946 217.561 184.163 217.613C184.38 217.665 184.617 217.769 184.846 217.914Z" fill="#888888"/>
<g id="Rocket" clip-path="url(#clip0_451_1683)">
<g id="Vector_2">
<path d="M385.756 328.521C384.176 339.118 381.35 349.492 377.336 359.429C376.625 361.19 375.844 362.926 375.076 364.659C374.926 364.999 374.873 365.423 374.459 365.597C373.896 364.157 373.424 363.973 371.742 364.645C365.928 366.978 360.095 369.283 354.073 371.015C352.282 371.529 350.959 372.266 350.561 374.206C350.503 374.493 350.916 375.948 350.77 376.218C350.384 376.047 348.861 374.937 348.48 374.809C341.362 372.38 335.487 368.37 329.908 363.337C327.38 361.057 325.08 358.586 323.521 355.491C322.795 354.054 320.834 351.899 320.247 350.44C320.853 349.691 322.036 348.666 322.091 347.7C322.216 345.609 323.146 344.288 323.212 342.202C323.344 337.954 323.764 333.725 324.272 329.504C324.487 327.756 324.202 327.31 322.731 326.737C328.214 322.517 334.161 319.044 340.258 315.815C345.946 312.782 351.923 310.301 357.871 307.794C357.946 307.776 358.023 307.767 358.101 307.766C358.726 308.15 359.435 308.376 360.167 308.423C361.558 308.561 362.92 308.907 364.208 309.449C368.12 311.083 371.446 313.593 374.655 316.297C378.906 319.86 382.354 324.172 385.756 328.521ZM361.335 352.929C363.769 351.191 365.906 347.744 366.397 343.323C366.604 341.703 366.466 340.058 365.991 338.496C365.517 336.934 364.717 335.49 363.644 334.26C362.572 333.029 361.25 332.04 359.767 331.357C358.284 330.674 356.673 330.313 355.039 330.297C349.048 330.148 343.262 334.395 341.483 340.247C340.067 344.912 340.732 349.222 344.187 352.733C348.432 357.045 354.832 357.338 361.327 352.918L361.335 352.929Z" fill="#DDDDDD"/>
<path d="M385.756 328.521C384.176 339.118 381.35 349.492 377.336 359.429C376.625 361.19 375.844 362.926 375.076 364.659C374.926 364.999 374.873 365.423 374.459 365.597C373.896 364.157 373.424 363.973 371.742 364.645C365.928 366.978 360.095 369.283 354.073 371.015C352.282 371.529 350.959 372.266 350.561 374.206C350.503 374.493 350.916 375.948 350.77 376.218C350.384 376.047 348.861 374.937 348.48 374.809C341.362 372.38 335.487 368.37 329.908 363.337C327.38 361.057 325.08 358.586 323.521 355.491C322.795 354.054 320.834 351.899 320.247 350.44C320.853 349.691 322.036 348.666 322.091 347.7C322.216 345.609 323.146 344.288 323.212 342.202C323.344 337.954 323.764 333.725 324.272 329.504C324.487 327.756 324.202 327.31 322.731 326.737C328.214 322.517 334.161 319.044 340.258 315.815C345.946 312.782 351.923 310.301 357.871 307.794C357.946 307.776 358.023 307.767 358.101 307.766C358.726 308.15 359.435 308.376 360.167 308.423C361.558 308.561 362.92 308.907 364.208 309.449C368.12 311.083 371.446 313.593 374.655 316.297C378.906 319.86 382.354 324.172 385.756 328.521ZM361.335 352.929C363.769 351.191 365.906 347.744 366.397 343.323C366.604 341.703 366.466 340.058 365.991 338.496C365.517 336.934 364.717 335.49 363.644 334.26C362.572 333.029 361.25 332.04 359.767 331.357C358.284 330.674 356.673 330.313 355.039 330.297C349.048 330.148 343.262 334.395 341.483 340.247C340.067 344.912 340.732 349.222 344.187 352.733C348.432 357.045 354.832 357.338 361.327 352.918L361.335 352.929Z" fill="url(#paint0_radial_451_1683)"/>
</g>
<path id="Vector_3" d="M322.01 351.009C322.597 352.468 322.799 354.046 323.515 355.489C325.062 358.568 327.374 361.056 329.902 363.336C335.426 368.323 341.917 372.123 348.972 374.5C349.37 374.636 349.731 374.855 350.127 375.018C350.149 375.164 350.229 375.326 350.194 375.458C348.684 381.159 347.165 386.858 345.636 392.558C345.103 394.528 344.762 396.651 343.608 398.317C341.194 401.761 338.464 404.972 335.454 407.909C335.378 407.997 335.277 408.059 335.164 408.088C335.051 408.117 334.933 408.11 334.824 408.07C333.27 403.964 331.391 400.043 328.711 396.56C322.72 388.764 315.147 383.257 305.428 380.965C302.716 380.365 299.946 380.057 297.168 380.044C297.431 379.405 297.579 378.725 297.607 378.034C297.593 376.802 297.766 375.574 298.122 374.392C299.979 368.109 303.38 362.922 308.791 359.148C310.418 358.038 312.095 357.003 313.755 355.948C316.471 354.214 319.464 352.984 322.01 351.009Z" fill="#1B365D"/>
<path id="Vector_4" d="M345.045 401.713C345.063 401.35 345.172 400.997 345.362 400.687C345.552 400.377 345.816 400.12 346.131 399.939C348.831 398.03 350.961 395.451 353.382 393.215C356.139 390.669 358.316 387.561 360.928 384.87C361.254 385.266 361.496 385.724 361.639 386.217C361.783 386.709 361.826 387.225 361.765 387.735C361.233 395.733 360.673 403.73 360.167 411.736C360.084 413.033 359.653 414.014 358.691 414.712C357.921 415.273 357.19 415.901 356.398 416.431C348.355 421.825 340.982 428.135 333.219 433.911C332.393 434.526 331.646 435.258 330.846 435.912C330.181 436.453 329.422 436.63 328.713 435.817C328.003 435.005 328.291 434.266 328.803 433.591C333.587 427.27 338.024 420.652 342.484 414.06C343.684 412.286 344.937 410.553 346.224 408.854C346.447 408.551 346.597 408.2 346.662 407.83C346.727 407.459 346.705 407.079 346.598 406.718C346.277 405.005 345.533 403.39 345.045 401.713Z" fill="#1B365D"/>
<path id="Vector_5" d="M307.749 342.232C308.023 342.784 307.655 343.185 307.431 343.622C304.138 350.053 300.755 356.442 299.151 363.59C298.998 364.07 298.672 364.476 298.238 364.73C295.847 365.359 293.454 365.988 291.061 366.619C290.675 366.716 290.317 366.9 290.012 367.155C289.707 367.41 289.464 367.731 289.3 368.094C285.186 376.314 280.635 384.311 276.98 392.766C276.85 393.122 276.687 393.465 276.494 393.79C276.333 394.091 276.069 394.323 275.751 394.446C275.433 394.568 275.081 394.572 274.761 394.456C274.04 394.219 273.871 393.621 273.872 392.949C273.874 392.737 273.895 392.526 273.933 392.318C275.648 382.278 276.979 372.159 279.27 362.237C279.981 359.169 280.49 356.043 281.031 352.931C281.075 352.457 281.257 352.006 281.556 351.634C281.854 351.263 282.255 350.987 282.708 350.841C290.37 347.753 298.26 345.28 305.93 342.233C306.563 342.008 307.138 341.874 307.749 342.232Z" fill="#1B365D"/>
<path id="Vector_6" d="M280.747 413.14C279.108 413.224 277.714 413.819 276.289 414.3C275.078 414.707 273.871 415.128 272.651 415.501C272.054 415.68 271.426 415.82 270.948 415.195C270.428 414.516 270.687 413.88 271.051 413.254C272.178 411.297 273.679 409.617 275.069 407.848C280.116 401.419 285.721 395.415 290.264 388.602C290.688 387.992 291.302 387.539 292.011 387.312C296.775 385.561 301.966 385.338 306.861 386.673C315.739 389.074 321.338 395.008 325.343 402.919C327.059 406.227 328.007 409.879 328.118 413.605C328.121 413.686 327.741 417.814 326.817 419.582C324.036 424.898 320.313 429.576 316.696 434.312C314.548 437.12 312.883 440.245 310.935 443.18C308.396 446.979 305.475 450.521 302.758 454.193C302.13 454.935 301.38 455.564 300.54 456.052C300.035 456.396 299.516 456.673 298.926 456.332C298.643 456.156 298.422 455.897 298.293 455.59C298.163 455.284 298.132 454.945 298.203 454.619C298.395 453.433 298.702 452.267 299.117 451.139C299.385 450.258 299.686 449.387 300.017 448.371C299.409 448.465 299.293 448.864 299.074 449.127C294.715 454.472 290.384 459.844 285.827 465.019C283.545 467.567 280.762 469.617 277.652 471.04C276.96 471.367 276.163 471.663 275.498 470.96C275.132 470.632 274.884 470.193 274.791 469.711C274.698 469.228 274.766 468.729 274.984 468.288C275.316 467.586 275.71 466.919 276.068 466.231C276.559 465.276 277.04 464.313 277.686 463.061C276.128 463.868 274.711 464.923 273.492 466.185C269.974 469.51 266.499 472.877 262.973 476.191C262.173 476.931 261.254 477.532 260.255 477.968C259.43 478.335 258.804 478.116 258.411 477.335C258.174 476.849 257.982 476.342 257.838 475.82C256.552 471.433 256.582 467.155 258.588 462.909C260.542 458.777 262.282 454.542 264.687 450.623C265.065 450.003 265.365 449.344 265.776 448.573C264.869 448.51 264.237 448.91 263.595 449.167C262.485 449.624 261.384 450.102 260.297 450.616C259.686 450.903 259.087 451.033 258.573 450.531C258.06 450.029 258.344 449.375 258.602 448.807C259.837 446.068 261.508 443.59 262.804 440.903C265.818 434.648 270.106 429.206 273.953 423.482C276.031 420.396 278.165 417.345 280.256 414.27C280.539 413.957 280.711 413.56 280.747 413.14ZM291.957 436.82C291.706 437.772 291.074 438.559 291.932 439.172C292.79 439.786 293.451 439.17 294.157 438.75C295.535 437.879 296.739 436.759 297.705 435.446C298.895 433.821 300.221 432.301 301.67 430.902C301.845 430.742 301.991 430.508 302.244 430.599C302.587 430.716 302.504 431.041 302.456 431.296C302.323 431.981 302.167 432.661 302.01 433.341C301.923 433.663 301.937 434.004 302.049 434.318C302.16 434.632 302.365 434.905 302.636 435.1C303.229 435.553 303.806 435.231 304.346 434.878C305.874 433.888 306.941 432.458 308.039 431.058C310.989 427.294 313.276 423.104 315.821 419.079C317.001 417.216 318.48 415.54 319.324 413.472C320.032 411.728 320.039 410.168 318.567 408.677C317.505 407.599 316.38 406.609 315.238 405.632C312.311 403.124 309.646 400.292 306.008 398.697C303.304 397.515 300.623 396.321 297.706 395.759C296.279 395.488 294.908 395.699 293.968 396.831C292.035 399.054 290.317 401.454 288.837 404C288.489 404.635 288.313 405.271 288.833 405.95C289.353 406.629 290.08 406.649 290.823 406.509C291.565 406.37 292.187 406.235 292.885 406.167C293.698 406.093 294.146 406.272 293.633 407.263C292.68 409.127 291.86 411.055 290.76 412.839C288.236 416.932 285.671 420.996 283.14 425.078C282.671 425.791 282.265 426.543 281.928 427.326C281.35 428.754 282.141 429.815 283.683 429.771C284.454 429.71 285.221 429.608 285.981 429.464C285.353 430.93 284.592 432.337 283.707 433.665C282.261 435.741 281.3 438.114 280.895 440.61C280.61 442.535 281.516 443.348 283.373 442.841C284.916 442.419 286.106 441.426 287.309 440.446C288.789 439.25 290.148 437.93 291.957 436.82ZM300.072 448.028L299.979 448.035L300.017 448.091L300.072 448.028Z" fill="#FF6737"/>
<path id="Vector_7" d="M322.011 351.009C319.464 352.984 316.471 354.214 313.766 355.941C312.106 356.995 310.419 358.017 308.802 359.141C303.391 362.914 299.99 368.102 298.133 374.385C297.777 375.566 297.604 376.794 297.618 378.027C297.59 378.718 297.442 379.398 297.179 380.037C296.374 380.245 296.185 379.816 296.117 379.118C295.708 374.841 295.76 364.349 295.877 363.846C297.383 357.275 303.474 343.841 306.836 339.838C310.541 335.415 320.171 328.267 321.712 327.237C321.998 326.972 322.353 326.796 322.736 326.729C324.207 327.301 324.492 327.748 324.277 329.496C323.769 333.717 323.349 337.945 323.217 342.194C323.151 344.28 323.008 346.361 322.891 348.44C322.887 349.369 322.578 350.272 322.011 351.009Z" fill="#D33A0A"/>
<path id="Vector_8" d="M334.835 408.063C335.065 407.962 335.275 407.819 335.452 407.641C338.451 404.676 341.237 401.778 343.628 398.324C344.783 396.658 345.124 394.535 345.657 392.564C347.196 386.872 348.713 381.167 350.205 375.451C350.24 375.319 350.508 374.485 350.566 374.198C350.957 372.262 352.28 371.525 354.077 371.007C360.107 369.286 365.94 366.981 371.746 364.637C373.429 363.965 373.901 364.149 374.464 365.588C374.458 365.732 372.116 372.873 366.291 381.232C365.486 382.577 359.395 390.302 355.347 394.262C352.899 396.655 349.325 399.883 346.693 401.74C346.068 402.167 343.553 404.089 342.363 404.756C340.247 406.148 334.963 408.91 334.835 408.063Z" fill="#D33A0A"/>
<path id="Vector_9" d="M291.956 436.82C290.141 437.95 288.789 439.25 287.325 440.439C286.122 441.42 284.932 442.413 283.389 442.835C281.532 443.342 280.626 442.529 280.911 440.604C281.316 438.108 282.278 435.735 283.724 433.659C284.608 432.33 285.369 430.924 285.998 429.457C285.238 429.602 284.471 429.704 283.699 429.765C282.172 429.799 281.389 428.758 281.944 427.32C282.282 426.537 282.687 425.785 283.156 425.072C285.688 420.99 288.262 416.94 290.776 412.833C291.877 411.049 292.694 409.117 293.649 407.257C294.149 406.276 293.7 406.096 292.901 406.161C292.21 406.224 291.511 406.396 290.839 406.503C290.167 406.61 289.39 406.654 288.849 405.944C288.308 405.233 288.505 404.629 288.853 403.994C290.333 401.448 292.052 399.047 293.985 396.825C294.924 395.693 296.295 395.481 297.722 395.753C300.639 396.315 303.32 397.509 306.025 398.691C309.662 400.286 312.328 403.117 315.254 405.626C316.396 406.603 317.521 407.593 318.583 408.671C320.055 410.162 320.048 411.722 319.34 413.466C318.496 415.534 317.017 417.209 315.837 419.073C313.293 423.098 311.005 427.288 308.055 431.052C306.946 432.459 305.89 433.882 304.362 434.872C303.83 435.236 303.263 435.535 302.652 435.094C302.381 434.899 302.177 434.626 302.065 434.312C301.953 433.998 301.94 433.657 302.026 433.335C302.183 432.655 302.339 431.975 302.472 431.29C302.521 431.035 302.585 430.697 302.26 430.593C302.007 430.502 301.847 430.745 301.686 430.896C300.238 432.295 298.911 433.815 297.722 435.44C296.755 436.752 295.552 437.873 294.173 438.744C293.474 439.174 292.767 439.76 291.948 439.166C291.13 438.573 291.705 437.772 291.956 436.82Z" fill="#FFB39B"/>
<path id="Vector_10" d="M300.072 448.028L300.01 448.096L299.981 448.039L300.072 448.028Z" fill="#FEFEFE"/>
<path id="Vector_11" d="M361.327 352.918C354.837 357.346 348.441 357.059 344.185 352.73C340.729 349.218 340.065 344.908 341.48 340.244C343.254 334.384 349.063 330.133 355.037 330.294C356.669 330.309 358.28 330.669 359.763 331.351C361.245 332.033 362.567 333.021 363.64 334.249C364.713 335.478 365.514 336.92 365.989 338.481C366.465 340.042 366.605 341.686 366.4 343.305C365.889 347.719 363.765 351.178 361.327 352.918Z" fill="#121212"/>
<path id="Vector_12" d="M355.78 308.647L391.933 295.124L385.631 332.016C385.631 332.016 374.739 308.733 355.78 308.647Z" fill="#D33A0A"/>
<path id="Vector_13" d="M361.757 346.371C361.269 347.392 360.524 348.27 359.583 348.934C359.167 349.208 358.649 349.447 358.161 348.959C357.674 348.472 357.923 348.012 358.302 347.646C359.221 346.772 359.543 345.554 360.189 344.518C360.516 343.997 360.696 343.251 361.644 343.622C362.592 343.992 362.277 344.703 362.159 345.292C362.065 345.666 361.93 346.028 361.757 346.371Z" fill="#888888"/>
</g>
<g id="Group 204" filter="url(#filter0_d_451_1683)">
<path id="Vector_14" d="M196.574 193.862C192.695 194.93 190.259 197.252 189.722 201.4C188.784 208.663 188.506 215.981 187.908 223.275C187.567 228.457 187.901 233.665 188.903 238.768C192.295 240.648 195.85 241.92 199.793 240.497C200.03 240.447 200.274 240.43 200.517 240.449C200.516 238.931 201.066 238.43 202.514 238.643L203.635 238.806C206.431 236.017 208.433 232.704 210.088 229.141C213.653 221.45 214.333 213.246 214.256 204.943C214.12 199.688 213.599 194.448 212.699 189.265C212.181 185.912 211.855 185.734 209.279 187.677C206.162 190.037 202.719 191.934 199.055 193.31" fill="#D33A0A"/>
<path id="Vector_15" d="M203.6 193.968C213.047 188.225 222.354 182.264 230.303 174.493C236.165 168.862 241.449 162.659 246.075 155.975C246.413 155.611 246.621 155.146 246.666 154.651C245.696 153.297 244.14 152.692 242.822 151.839C238.581 149.153 234.801 145.799 231.63 141.907C224.298 152.43 214.88 160.781 204.42 168.045C201.317 170.458 197.941 172.434 194.377 174.487C194.659 172.954 194.895 171.648 195.186 170.128C194.222 170.484 193.235 170.776 192.233 171.003C189.171 170.838 186.158 171.462 183.112 171.564C175.409 171.786 167.805 171.269 160.372 169.037C155.381 167.609 150.627 165.456 146.262 162.646C144.22 161.295 142.086 160.043 140.309 158.284C138.851 156.759 137.217 155.411 135.442 154.269L134.361 155.099C134.038 155.472 133.79 155.905 133.629 156.372C131.956 162.941 129.481 169.257 127.583 175.762C127.835 175.945 128.074 176.146 128.297 176.364C129.766 178.055 131.501 179.496 133.433 180.631C137.692 182.993 142.372 184.281 146.866 186.069C150.284 187.447 153.841 188.346 157.296 189.603C160.432 190.731 161.073 191.657 161.176 194.859C161.191 195.348 161.139 195.844 161.12 196.338C160.965 200.315 159.925 204.132 158.917 207.949C157.805 212.165 156.615 216.353 153.593 219.71C152.84 220.551 152.139 221.437 150.817 221.171C148.186 220.642 145.499 220.301 143.017 219.221C138.423 217.22 133.811 215.251 129.288 213.099C126.024 211.539 122.821 209.827 120.229 207.166C119.595 206.518 119.152 205.444 117.988 205.397C116.623 213.441 117.183 221.257 120.3 228.886C121.902 232.831 124.494 236.026 127.275 239.128L128.261 240.215C128.483 240.228 128.697 240.306 128.874 240.44C129.051 240.574 129.185 240.758 129.257 240.968C129.553 241.725 130.088 242.365 130.781 242.791C132.837 244.139 134.38 246.132 136.632 247.263C138.979 248.465 141.239 249.838 143.784 250.581C145.76 251.155 147.78 251.582 149.776 252.072C149.905 252.033 150.037 251.94 150.157 251.962C154.326 252.66 158.52 252.544 162.732 252.428C168.194 252.234 173.62 251.474 178.925 250.162C181.541 249.537 183.951 248.37 186.375 247.202C188.086 245.693 189.709 244.13 190.347 241.823C190.692 240.544 190.474 239.255 190.749 238.003C189.855 233.378 189.565 228.656 189.886 223.957C190.439 217.349 190.708 210.713 191.581 204.117C192.077 200.354 194.288 198.243 197.803 197.265" fill="#E2E2E2"/>
<path id="Vector_16" d="M186.347 247.18C183.932 248.337 181.514 249.515 178.898 250.141C173.592 251.453 168.166 252.212 162.704 252.407C158.493 252.522 154.314 252.65 150.114 251.961C149.994 251.939 149.862 252.031 149.733 252.07C149.77 252.564 149.768 253.06 149.855 253.554C150.858 259.977 151.952 266.395 153.247 272.753C153.844 276.022 155.011 279.16 156.694 282.024C157.701 283.668 158.305 285.646 160.261 286.584C160.576 286.735 160.428 287.145 160.247 287.425C161.184 288.257 162.096 289.089 163.054 289.925C165.721 292.199 168.847 293.871 172.22 294.827C175.445 295.753 178.739 296.425 182.069 296.836C186.103 297.4 190.026 296.377 193.918 295.511C200.494 294.051 206.903 291.982 213.375 290.133C215.588 289.423 217.846 288.863 220.134 288.458C220.592 288.394 221.029 288.333 221.228 287.831C220.928 287.636 220.697 287.353 220.567 287.02C220.436 286.688 220.413 286.323 220.5 285.976C220.626 285.139 220.643 284.288 220.548 283.447C219.782 277.401 218.604 271.414 217.019 265.529C216.372 263.015 215.432 260.602 214.674 258.128C214.123 258.035 213.753 258.426 213.304 258.609C209.27 260.256 205.628 262.691 201.571 264.327C197.779 265.862 193.692 266.529 189.609 266.281C189.049 266.249 188.307 266.359 188.188 265.58C187.587 262.019 186.535 258.504 186.58 254.836C185.968 252.292 186.236 249.736 186.347 247.18Z" fill="#888888"/>
<path id="Vector_17" d="M160.987 85.8183C160.233 85.5588 159.62 85.8846 158.974 86.2221C147.014 92.5202 140.444 102.749 137.489 115.618C137.187 116.93 136.969 118.262 136.626 119.562C135.851 122.486 135.821 125.321 137.432 128.005C140.154 130.555 143.166 132.777 146.406 134.626C152.522 138.289 158.932 141.436 165.57 144.035C170.715 146.023 176.066 146.818 181.562 145.891C182.654 145.704 183.795 145.541 184.576 144.591C182.476 143.128 180.581 141.41 178.629 139.76C177.803 139.062 177.637 138.451 178.379 137.503C180.973 134.177 183.803 131.042 186.209 127.562C187.434 125.68 188.795 123.892 190.284 122.212C191.374 121.041 191.627 121.059 192.946 122.043C194.677 123.352 195.909 125.134 197.489 126.577C197.873 125.761 198.042 124.86 197.982 123.961C197.912 119.286 195.805 115.383 193.099 111.797C188.406 105.659 182.693 100.374 176.208 96.1729C171.097 92.8009 166.126 89.1865 160.987 85.8183Z" fill="#232323"/>
<path id="Vector_18" d="M155.381 98.4801C154.17 98.9879 153.11 99.8016 152.288 100.854C151.948 101.322 151.642 101.908 152.18 102.501C152.718 103.094 153.264 102.831 153.711 102.413C154.775 101.398 156.205 101.093 157.442 100.404C158.065 100.054 158.939 99.8876 158.562 98.768C158.186 97.6484 157.344 97.9726 156.654 98.0755C156.215 98.1643 155.789 98.2998 155.381 98.4801Z" fill="#414141"/>
<path id="Vector_19" d="M214.683 258.099C215.441 260.572 216.382 262.985 217.029 265.499C218.613 271.384 219.792 277.371 220.557 283.417C220.652 284.258 220.636 285.109 220.509 285.946C220.422 286.293 220.446 286.658 220.576 286.99C220.707 287.323 220.938 287.607 221.238 287.801C224.635 286.405 228.079 285.169 231.739 284.65C232.433 284.553 232.272 285.103 232.395 285.425C233.392 288.216 234.286 291.035 236.318 293.304C238.759 296.025 241.541 298.196 245.307 298.719C245.828 298.857 246.378 298.841 246.889 298.672C246.942 298.265 247.002 297.702 247.494 297.782C249.167 298.034 249.464 296.63 249.953 295.671C251.747 292.187 252.354 288.385 252.712 284.524C253.038 281.044 252.272 277.644 251.832 274.224C251.175 269.378 249.703 264.678 247.479 260.323C245.456 256.31 242.405 252.973 239.819 249.335C239.299 248.6 238.799 248.104 237.832 248.578C237.626 248.676 237.392 248.7 237.171 248.645C236.949 248.591 236.753 248.462 236.616 248.28C232.74 249.799 229.06 251.701 225.348 253.58C224.373 254.048 223.508 254.823 222.317 254.705C220.842 256.156 218.942 256.565 216.978 256.838C216.366 257.507 215.422 257.607 214.683 258.099Z" fill="#E2E2E2"/>
<path id="Vector_20" d="M160.987 85.8183C166.126 89.1865 171.097 92.8009 176.22 96.1819C182.705 100.383 188.418 105.668 193.111 111.806C195.817 115.392 197.924 119.295 197.994 123.97C198.055 124.869 197.885 125.77 197.501 126.586C198.461 127.255 198.056 128.154 197.755 128.889C196.835 131.176 195.569 133.307 194.002 135.21C193.281 136.074 193.342 136.412 194.486 136.756C198.193 137.868 201.921 137.604 205.689 137.253C206.266 137.198 206.508 136.704 206.683 136.259C207.735 133.519 211.052 133.61 212.71 134.688C213.421 135.152 214.162 135.569 214.889 136.013C217.477 127.448 217.892 116.232 214.648 107.894C209.404 94.2841 198.475 85.6323 184.19 82.0785C176.281 80.1074 169.019 82.49 161.431 85.5444C161.276 85.6235 161.127 85.7151 160.987 85.8183Z" fill="#E2E2E2"/>
<path id="Vector_21" d="M117.985 205.376C119.149 205.423 119.592 206.497 120.227 207.145C122.819 209.806 126.019 211.522 129.285 213.078C133.797 215.245 138.42 217.199 143.015 219.2C145.496 220.28 148.183 220.621 150.815 221.15C152.136 221.416 152.837 220.53 153.59 219.689C156.612 216.332 157.802 212.144 158.914 207.928C159.93 204.117 160.958 200.291 161.117 196.317C161.137 195.823 161.188 195.328 161.173 194.838C161.062 191.648 160.426 190.714 157.293 189.582C153.841 188.339 150.276 187.434 146.863 186.048C142.384 184.24 137.69 182.972 133.43 180.61C131.498 179.476 129.763 178.034 128.294 176.343C128.071 176.125 127.833 175.924 127.581 175.741C127.117 175.998 126.754 176.406 126.553 176.896C126.172 177.745 126.094 178.736 125.406 179.44C124.717 182.317 123.51 185.014 122.485 187.793C120.495 193.221 118.688 198.701 117.949 204.479C117.868 204.775 117.881 205.088 117.985 205.376ZM149.123 218.35C147.906 217.43 147.76 216.201 148.715 214.979C149.112 214.494 149.68 214.18 150.303 214.104C150.925 214.028 151.552 214.196 152.054 214.571C152.525 214.97 152.823 215.535 152.887 216.148C152.951 216.761 152.775 217.376 152.398 217.863C152.02 218.35 151.468 218.673 150.858 218.764C150.248 218.855 149.627 218.706 149.123 218.35ZM155.826 201.674C156.127 201.547 156.471 201.379 156.77 201.691C157.014 201.951 156.924 202.268 156.701 202.522C156.478 202.775 156.173 202.924 155.897 202.665C155.753 202.541 155.665 202.365 155.649 202.176C155.634 201.987 155.694 201.799 155.816 201.654L155.826 201.674ZM157.398 198.296C157.523 198.389 157.609 198.526 157.637 198.68C157.665 198.834 157.633 198.993 157.548 199.124C157.508 199.203 157.45 199.271 157.379 199.324C157.308 199.378 157.226 199.414 157.139 199.431C157.052 199.448 156.963 199.445 156.877 199.422C156.792 199.399 156.713 199.357 156.646 199.299C156.58 199.257 156.524 199.203 156.481 199.139C156.437 199.074 156.407 199.002 156.393 198.926C156.378 198.85 156.379 198.771 156.396 198.696C156.413 198.62 156.445 198.549 156.49 198.486C156.705 198.095 157.034 198.095 157.388 198.276L157.398 198.296ZM154.499 197.931C154.765 197.579 155.013 197.506 155.334 197.73C155.472 197.805 155.574 197.932 155.618 198.082C155.663 198.232 155.647 198.394 155.573 198.532C155.341 198.978 154.948 198.874 154.648 198.696C154.347 198.518 154.354 198.164 154.489 197.911L154.499 197.931ZM154.636 208.098C154.702 208.14 154.759 208.195 154.803 208.26C154.848 208.324 154.88 208.397 154.896 208.473C154.913 208.55 154.914 208.629 154.9 208.706C154.886 208.783 154.857 208.857 154.814 208.922C154.776 209.005 154.72 209.077 154.649 209.133C154.577 209.188 154.494 209.226 154.405 209.243C154.316 209.26 154.225 209.255 154.138 209.229C154.051 209.204 153.972 209.157 153.907 209.095C153.842 209.051 153.787 208.994 153.746 208.927C153.704 208.86 153.677 208.786 153.667 208.708C153.656 208.63 153.662 208.551 153.685 208.476C153.707 208.401 153.745 208.331 153.796 208.271C153.837 208.203 153.891 208.144 153.955 208.097C154.019 208.05 154.092 208.016 154.17 207.998C154.247 207.98 154.328 207.978 154.406 207.992C154.484 208.005 154.559 208.035 154.626 208.078L154.636 208.098ZM153.118 211.989C153.239 212.077 153.323 212.208 153.352 212.356C153.381 212.503 153.354 212.656 153.274 212.784C153.242 212.857 153.194 212.923 153.134 212.976C153.074 213.029 153.003 213.068 152.926 213.091C152.85 213.115 152.769 213.122 152.69 213.111C152.611 213.101 152.534 213.073 152.466 213.031C152.381 212.998 152.305 212.946 152.244 212.877C152.183 212.809 152.139 212.728 152.116 212.639C152.093 212.551 152.091 212.458 152.111 212.369C152.131 212.28 152.172 212.196 152.231 212.126C152.437 211.829 152.749 211.803 153.118 211.989Z" fill="white"/>
<path id="Vector_22" d="M119.986 111.956C120.355 111.913 120.712 111.796 121.035 111.612C121.937 111.051 123.004 110.889 123.978 110.513C125.304 109.999 125.294 110.029 124.427 108.932C124.07 108.417 123.803 107.846 123.636 107.242C121.724 101.659 118.621 96.6175 116.233 91.2533C115.205 88.948 115.153 86.6414 115.201 84.2925C115.26 81.3301 115.971 78.4326 116.594 75.5368C116.864 74.3562 117.07 73.1618 117.211 71.959C117.399 70.125 116.534 68.8938 114.937 68.5003C113.49 68.146 112.259 68.9612 111.557 70.7109C111.168 71.7026 111.189 72.8426 110.483 73.7191L110.54 73.8987C110.516 73.8808 110.48 73.8539 110.468 73.8449C110.473 73.802 110.484 73.7599 110.501 73.7202C109.523 71.1177 108.995 68.3643 107.751 65.852C106.716 63.7528 105.654 61.6892 103.814 60.1372C102.95 59.321 101.799 58.8796 100.611 58.9092C96.9379 59.183 93.4579 60.2613 90.9094 63.0004C88.3608 65.7394 88.4256 69.1304 89.2996 72.6424C90.7441 78.4243 93.4982 83.5995 96.3862 88.7454C97.7647 91.2036 99.2513 93.6504 99.4743 96.5772C99.6899 99.3988 99.9549 102.221 100.075 105.045C100.223 108.548 100.379 112.04 100.207 115.556C100.154 116.206 100.063 116.853 99.9349 117.493C99.7481 118.439 100.105 118.69 101.208 118.456C102.033 118.284 102.803 117.841 103.654 117.776C103.982 117.735 104.299 117.631 104.588 117.469C104.881 117.343 105.183 117.237 105.492 117.152C110.121 115.507 114.883 114.137 119.446 112.169C119.617 112.077 119.798 112.005 119.986 111.956Z" fill="#414141"/>
<path id="Vector_23" d="M184.588 144.6C183.808 145.551 182.666 145.713 181.574 145.9C176.066 146.818 170.716 146.023 165.583 144.045C158.945 141.446 152.534 138.298 146.418 134.635C143.178 132.787 140.167 130.565 137.445 128.014C137.888 132.532 139.153 136.93 141.178 140.993C141.446 141.55 141.686 142.129 141.994 142.666C145.99 149.774 151.276 155.601 158.548 159.526C167.551 164.38 176.986 165.746 186.964 163.386C190.314 162.594 193.385 161.12 196.491 159.715C199.074 157.94 201.739 156.314 203.961 154.08C204.908 153.131 205.818 152.141 206.74 151.168C204.641 150.065 203.642 148.297 203.526 145.961C203.485 144.974 203.627 143.989 203.946 143.054C204.225 142.191 203.92 142.004 203.111 141.939C199.35 141.631 195.652 140.967 192.169 139.452C191.495 139.16 191.238 139.37 190.865 139.871C189.706 141.405 188.636 143.001 187.196 144.322C186.316 145.142 185.546 145.281 184.588 144.6Z" fill="#E2E2E2"/>
<path id="Vector_24" d="M231.633 141.903C234.804 145.795 238.584 149.149 242.825 151.835C244.143 152.688 245.705 153.285 246.669 154.647C247.078 154.435 247.398 154.726 247.648 154.921C248.925 155.887 249.614 155.419 250.52 154.253C254.056 149.707 256.019 144.413 258.055 139.138C258.44 138.136 258.812 137.126 259.147 136.099C259.79 134.124 261.098 132.432 262.847 131.311C265.685 129.336 268.649 127.549 271.719 125.959C274.27 124.63 276.554 122.84 278.454 120.681C280.821 118.091 282.344 112.148 279.67 108.387C278.526 106.777 277.547 105.081 275.908 103.879C273.509 102.122 271.185 102.049 268.674 103.711C266.55 105.124 264.983 107.132 263.334 108.993C262.925 109.46 262.584 109.985 261.957 110.815C262.299 109.26 262.531 108.099 262.817 106.949C263.355 104.765 262.986 103.617 261.525 103.077C260.293 102.619 258.289 103.57 257.539 105.103C257.05 106.112 256.66 107.165 256.374 108.248C255.214 112.774 253.463 117.127 251.166 121.196C249.365 124.295 246.943 126.882 244.422 129.387C240.978 132.81 236.833 135.236 232.664 137.614C232.075 138.028 231.393 138.29 230.678 138.374C229.885 138.396 229.841 138.915 230.185 139.504C230.649 140.303 231.147 141.133 231.633 141.903Z" fill="#888888"/>
<path id="Vector_25" d="M120.405 111.887C120.066 111.897 119.736 111.994 119.446 112.169C114.876 114.106 110.14 115.49 105.48 117.143C104.992 117.231 104.537 117.45 104.163 117.776C105.305 121.689 106.97 126.687 108.041 130.217C109.515 135.245 110.95 139.33 112.241 144.387C114.21 152.087 116.332 157.704 118.785 165.267C120.416 170.227 122.262 175.157 125.392 179.448C126.089 178.732 126.158 177.753 126.538 176.904C126.74 176.414 127.103 176.006 127.567 175.749C129.468 169.247 131.952 162.912 133.612 156.359C133.773 155.892 134.021 155.46 134.345 155.086C132.969 152.748 132.259 150.136 131.342 147.617C127.329 136.595 123.712 125.444 121.026 114.015C120.866 113.348 120.593 112.533 120.405 111.887Z" fill="#C2C2C2"/>
<path id="Vector_26" d="M160.265 287.401C160.434 287.112 160.582 286.702 160.279 286.56C158.324 285.629 157.716 283.647 156.712 282C155.029 279.136 153.862 275.998 153.264 272.729C151.954 266.359 150.875 259.953 149.872 253.53C149.798 253.045 149.8 252.549 149.751 252.046C147.755 251.556 145.735 251.129 143.759 250.555C141.214 249.812 138.954 248.439 136.607 247.237C134.367 246.091 132.812 244.114 130.756 242.765C130.063 242.34 129.528 241.7 129.232 240.943C129.16 240.732 129.026 240.548 128.849 240.414C128.672 240.28 128.458 240.202 128.236 240.189C127.728 240.812 127.847 241.567 127.874 242.264C128.066 248.781 128.658 255.279 129.646 261.724C130.356 265.987 130.561 270.311 131.155 274.587C131.735 278.752 132.831 282.643 135.957 285.732C139.516 289.242 143.575 291.006 148.686 290.564C151.547 290.387 154.358 289.726 156.998 288.609C158.063 288.153 159.175 287.807 160.265 287.401Z" fill="#414141"/>
<path id="Vector_27" d="M196.497 159.714C193.404 161.103 190.321 162.593 186.97 163.385C176.993 165.745 167.574 164.391 158.554 159.525C151.28 155.605 145.994 149.777 142.001 142.665C141.693 142.128 141.453 141.549 141.184 140.992C140.905 140.904 140.604 140.925 140.339 141.05C140.075 141.174 139.867 141.394 139.757 141.665C137.941 145.63 136.489 149.751 135.419 153.979C135.407 154.068 135.41 154.158 135.428 154.246C137.203 155.388 138.837 156.736 140.296 158.261C142.072 160.02 144.222 161.285 146.248 162.623C150.613 165.429 155.365 167.579 160.354 169.004C167.786 171.236 175.602 172.509 183.302 172.291C186.35 172.203 189.139 171.627 192.213 170.988C193.22 170.78 194.208 170.487 195.166 170.114C194.887 171.642 194.651 172.948 194.357 174.472C197.921 172.419 201.297 170.443 204.401 168.03C202.483 166.071 200.389 164.42 197.497 164.259C196.692 164.216 196.489 163.876 196.687 163.137C196.855 162.488 196.934 161.815 197.105 161.162C197.214 160.889 197.211 160.584 197.097 160.314C196.984 160.043 196.768 159.828 196.497 159.714Z" fill="#D33A0A"/>
<path id="Vector_28" d="M184.587 144.6C185.545 145.28 186.33 145.122 187.202 144.321C188.642 142.999 189.72 141.41 190.871 139.87C191.239 139.383 191.501 139.159 192.175 139.451C195.658 140.966 199.356 141.63 203.117 141.938C203.926 142.002 204.231 142.19 203.952 143.053C203.633 143.988 203.491 144.973 203.531 145.96C203.636 148.287 204.647 150.064 206.746 151.166C207.197 151.178 207.643 151.18 208.091 151.195C210.273 151.267 212.082 150.484 213.289 148.657C214.643 146.595 215.73 144.369 216.525 142.033C217.379 139.573 216.8 137.65 214.892 136.016C214.166 135.572 213.425 135.155 212.713 134.692C211.048 133.607 207.738 133.522 206.687 136.262C206.511 136.707 206.275 137.193 205.693 137.256C201.936 137.616 198.196 137.871 194.489 136.759C193.345 136.416 193.284 136.077 194.006 135.213C195.572 133.309 196.836 131.177 197.754 128.889C198.055 128.154 198.461 127.255 197.501 126.586C195.92 125.143 194.698 123.349 192.957 122.052C191.645 121.06 191.385 121.05 190.295 122.221C188.807 123.901 187.445 125.689 186.221 127.571C183.817 131.047 180.99 134.178 178.39 137.512C177.664 138.473 177.826 139.08 178.64 139.77C180.596 141.44 182.488 143.137 184.587 144.6Z" fill="#888888"/>
<path id="Vector_29" d="M236.625 248.268C236.762 248.45 236.958 248.579 237.18 248.634C237.401 248.688 237.635 248.664 237.841 248.566C238.816 248.098 239.308 248.589 239.828 249.323C242.414 252.961 245.477 256.282 247.488 260.312C249.711 264.673 251.18 269.379 251.833 274.231C252.264 277.663 253.045 281.043 252.713 284.531C252.347 288.386 251.748 292.195 249.954 295.678C249.465 296.637 249.18 298.05 247.495 297.789C247.003 297.709 246.943 298.272 246.89 298.68C248.657 300.344 250.782 300.105 252.857 299.661C253.868 299.45 254.197 298.406 254.685 297.613C256.463 294.727 256.987 291.452 257.654 288.203C259.177 280.838 257.884 273.779 255.827 266.702C253.941 259.87 250.69 253.49 246.271 247.949C245.053 246.445 243.741 245.864 241.86 246.199C240.398 246.472 238.955 246.833 237.538 247.282C237.306 247.34 237.097 247.464 236.934 247.639C236.772 247.814 236.664 248.033 236.625 248.268Z" fill="#D33A0A"/>
<path id="Vector_30" d="M213.984 240.68C213.799 240.581 213.591 240.537 213.382 240.551C213.173 240.566 212.973 240.639 212.803 240.763C211.732 242.356 210.44 243.788 208.966 245.018C209.305 245.126 209.622 245.293 209.904 245.51C212.064 247.888 214.351 250.164 215.563 253.254C216.033 254.448 216.256 255.74 216.997 256.822C218.942 256.534 220.841 256.125 222.336 254.689C222.221 252.894 221.327 251.373 220.56 249.831C218.854 246.442 217.09 243.071 213.984 240.68Z" fill="#D33A0A"/>
<path id="Vector_31" d="M208.981 245.03C208.401 245.113 207.862 245.377 207.441 245.786C202.741 249.688 197.35 252.167 191.594 253.997C189.957 254.519 188.23 254.338 186.609 254.839C186.552 258.523 187.624 262.011 188.216 265.584C188.343 266.369 189.086 266.241 189.637 266.285C193.722 266.528 197.81 265.854 201.601 264.313C205.658 262.677 209.3 260.242 213.334 258.595C213.782 258.412 214.161 258.027 214.703 258.114C215.442 257.622 216.391 257.526 217.026 256.857C216.291 255.767 216.069 254.475 215.593 253.289C214.381 250.199 212.094 247.923 209.934 245.545C209.65 245.319 209.327 245.144 208.981 245.03Z" fill="#414141"/>
<path id="Vector_32" d="M149.104 218.342C149.477 218.632 149.928 218.806 150.399 218.84C150.871 218.875 151.342 218.769 151.753 218.536C152.165 218.304 152.498 217.954 152.711 217.532C152.924 217.11 153.008 216.634 152.951 216.165C152.894 215.696 152.699 215.254 152.391 214.895C152.084 214.536 151.676 214.276 151.221 214.149C150.766 214.021 150.283 214.031 149.834 214.177C149.384 214.323 148.988 214.599 148.695 214.97C147.74 216.193 147.889 217.418 149.104 218.342Z" fill="#D33A0A"/>
<path id="Vector_33" d="M155.816 201.653C155.699 201.796 155.641 201.979 155.654 202.163C155.667 202.347 155.75 202.52 155.886 202.645C156.163 202.903 156.465 202.759 156.691 202.501C156.917 202.243 157.004 201.93 156.759 201.671C156.441 201.343 156.117 201.526 155.816 201.653Z" fill="#439A6B"/>
<path id="Vector_34" d="M157.387 198.276C157.037 198.098 156.704 198.095 156.479 198.466C156.434 198.528 156.402 198.6 156.385 198.676C156.369 198.751 156.368 198.83 156.382 198.906C156.397 198.982 156.427 199.054 156.47 199.118C156.514 199.183 156.57 199.237 156.635 199.279C156.702 199.337 156.781 199.379 156.867 199.402C156.952 199.424 157.042 199.428 157.129 199.411C157.216 199.394 157.298 199.357 157.369 199.304C157.439 199.251 157.497 199.183 157.538 199.104C157.623 198.973 157.654 198.814 157.626 198.66C157.598 198.506 157.513 198.369 157.387 198.276Z" fill="#439A6B"/>
<path id="Vector_35" d="M154.489 197.911C154.354 198.163 154.302 198.503 154.626 198.692C154.949 198.88 155.331 198.958 155.551 198.528C155.625 198.39 155.641 198.228 155.596 198.078C155.552 197.928 155.45 197.801 155.312 197.726C155.007 197.489 154.739 197.547 154.489 197.911Z" fill="#439A6B"/>
<path id="Vector_36" d="M154.626 208.078C154.495 207.994 154.335 207.964 154.183 207.997C154.03 208.029 153.897 208.121 153.811 208.252C153.76 208.311 153.722 208.381 153.7 208.456C153.677 208.531 153.671 208.61 153.682 208.688C153.692 208.766 153.719 208.841 153.761 208.907C153.802 208.974 153.857 209.031 153.922 209.075C153.986 209.135 154.063 209.18 154.147 209.205C154.231 209.231 154.32 209.237 154.406 209.222C154.493 209.207 154.575 209.172 154.646 209.12C154.716 209.068 154.774 209.001 154.814 208.923C154.859 208.855 154.891 208.78 154.906 208.7C154.921 208.621 154.92 208.539 154.902 208.46C154.884 208.381 154.851 208.306 154.803 208.241C154.756 208.175 154.695 208.12 154.626 208.078Z" fill="#FFE600"/>
<path id="Vector_37" d="M153.117 211.988C152.748 211.803 152.436 211.828 152.238 212.132C152.179 212.202 152.138 212.285 152.119 212.374C152.099 212.463 152.1 212.556 152.123 212.645C152.146 212.733 152.19 212.815 152.251 212.883C152.312 212.951 152.388 213.004 152.473 213.036C152.541 213.079 152.618 213.106 152.697 213.117C152.776 213.127 152.857 213.12 152.934 213.097C153.01 213.074 153.081 213.034 153.141 212.981C153.201 212.928 153.249 212.863 153.281 212.79C153.362 212.66 153.389 212.505 153.359 212.356C153.328 212.207 153.241 212.075 153.117 211.988Z" fill="#FFE600"/>
<path id="Vector_38" d="M110.507 73.712C110.49 73.7517 110.479 73.7938 110.475 73.8368C110.475 73.8368 110.522 73.8726 110.546 73.8905L110.489 73.7109L110.507 73.712Z" fill="#FEFEFE"/>
</g>
</g>
<defs>
<filter id="filter0_d_451_1683" x="84.7529" y="58.9077" width="200.332" height="249.079" filterUnits="userSpaceOnUse" color-interpolation-filters="sRGB">
<feFlood flood-opacity="0" result="BackgroundImageFix"/>
<feColorMatrix in="SourceAlpha" type="matrix" values="0 0 0 0 0 0 0 0 0 0 0 0 0 0 0 0 0 0 127 0" result="hardAlpha"/>
<feOffset dy="4"/>
<feGaussianBlur stdDeviation="2"/>
<feComposite in2="hardAlpha" operator="out"/>
<feColorMatrix type="matrix" values="0 0 0 0 0 0 0 0 0 0 0 0 0 0 0 0 0 0 0.25 0"/>
<feBlend mode="normal" in2="BackgroundImageFix" result="effect1_dropShadow_451_1683"/>
<feBlend mode="normal" in="SourceGraphic" in2="effect1_dropShadow_451_1683" result="shape"/>
</filter>
<radialGradient id="paint0_radial_451_1683" cx="0" cy="0" r="1" gradientUnits="userSpaceOnUse" gradientTransform="translate(374.578 337.153) rotate(139.288) scale(17.1957 15.8126)">
<stop stop-color="white"/>
<stop offset="1" stop-color="#E0E0E0"/>
</radialGradient>
<clipPath id="clip0_451_1683">
<rect width="102" height="223" fill="white" transform="translate(383.141 282.234) rotate(55.7006)"/>
</clipPath>
</defs>
</svg>
