<svg width="466" height="309" viewBox="0 0 466 309" fill="none" xmlns="http://www.w3.org/2000/svg">
<g id="covid-astronaut-purple">
<g id="Group 203" filter="url(#filter0_d_451_1819)">
<path id="Vector" d="M278.865 140.768C281.456 144.406 281.925 148.112 279.479 152.058C275.197 158.966 270.308 165.458 265.71 172.155C262.372 176.854 258.435 181.101 253.996 184.791C249.76 184.032 245.809 182.635 243.413 178.647C243.244 178.437 243.046 178.253 242.824 178.099C243.888 176.793 243.766 175.976 242.37 175.144L241.291 174.5C240.84 170.14 241.439 165.885 242.512 161.659C244.833 152.542 249.998 145.005 255.883 137.913C259.683 133.486 263.803 129.341 268.21 125.511C271.005 122.989 271.411 123.064 272.266 126.542C273.294 130.757 274.929 134.802 277.118 138.554" fill="#9E38EE"/>
<path id="Vector_2" d="M272.745 135.936C268.639 124.372 264.807 112.719 263.412 100.461C262.313 91.507 262.113 82.4651 262.815 73.4709C262.78 72.921 262.927 72.3747 263.235 71.9175C265.019 71.4318 266.782 72.0019 268.514 72.1912C274.047 72.8518 279.65 72.6142 285.106 71.4876C284.042 85.6821 286.295 99.4682 290.206 113.05C291.186 117.302 292.706 121.369 294.335 125.633C295.166 124.116 295.879 122.827 296.693 121.315C297.274 122.297 297.918 123.239 298.622 124.137C301.373 126.141 303.528 128.789 306.078 131.012C312.552 136.601 319.458 141.486 327.419 144.774C332.715 147.042 338.316 148.521 344.041 149.162C346.745 149.431 349.46 149.848 352.221 149.579C354.546 149.289 356.896 149.275 359.224 149.536L359.572 151.007C359.589 151.555 359.5 152.101 359.311 152.616C356.146 159.441 353.85 166.612 350.925 173.54C350.579 173.521 350.233 173.527 349.889 173.558C347.439 173.984 344.936 174.009 342.478 173.631C337.158 172.678 332.228 170.508 327.107 168.897C323.199 167.687 319.508 165.969 315.654 164.629C312.165 163.402 310.963 163.749 308.632 166.433C308.275 166.844 307.973 167.307 307.643 167.746C304.989 171.277 303.209 175.291 301.402 179.282C299.404 183.69 297.493 188.128 297.741 193.134C297.801 194.386 297.783 195.64 299.106 196.338C301.741 197.726 304.293 199.316 307.186 200.125C312.542 201.623 317.891 203.16 323.292 204.478C327.193 205.423 331.15 206.194 335.246 205.72C336.246 205.608 337.38 204.994 338.414 205.769C333.951 213.649 327.992 219.982 319.963 224.364C315.819 226.636 311.349 227.569 306.783 228.29L305.172 228.535C304.972 228.39 304.734 228.308 304.487 228.299C304.24 228.29 303.997 228.354 303.787 228.484C303.002 228.929 302.093 229.105 301.198 228.985C298.484 228.705 295.759 229.339 293.029 228.733C290.167 228.123 287.259 227.721 284.548 226.577C282.445 225.686 280.408 224.638 278.347 223.661C278.263 223.537 278.214 223.365 278.096 223.3C274.019 220.978 270.491 217.939 266.947 214.888C262.383 210.893 258.245 206.436 254.599 201.589C252.786 199.218 251.529 196.525 250.262 193.82C249.846 191.323 249.545 188.841 250.613 186.408C251.212 185.065 252.304 184.108 252.944 182.838C256.955 179.485 260.514 175.625 263.531 171.355C267.686 165.281 272.105 159.381 275.976 153.093C278.186 149.507 277.763 146.14 275.423 142.836" fill="#E2E2E2"/>
<path id="Vector_3" d="M250.301 193.822C251.569 196.509 252.825 199.219 254.638 201.59C258.284 206.438 262.422 210.894 266.985 214.889C270.53 217.94 274.036 220.978 278.133 223.328C278.252 223.393 278.301 223.566 278.384 223.69C278.007 224.089 277.661 224.517 277.241 224.881C271.876 229.706 266.436 234.463 260.866 239.028C258.062 241.422 254.858 243.305 251.402 244.59C249.384 245.299 247.477 246.578 245.136 246.015C244.76 245.924 244.6 246.381 244.559 246.748C243.17 246.808 241.803 246.885 240.392 246.933C236.503 247.021 232.64 246.269 229.068 244.728C225.643 243.265 222.338 241.535 219.183 239.555C215.316 237.213 212.657 233.583 209.915 230.11C205.279 224.246 201.213 217.973 196.938 211.846C195.532 209.684 193.981 207.62 192.296 205.668C191.947 205.292 191.613 204.933 191.793 204.362C192.188 204.404 192.585 204.322 192.931 204.128C193.276 203.933 193.552 203.635 193.72 203.276C194.198 202.466 194.78 201.723 195.452 201.065C200.347 196.398 205.557 192.072 211.045 188.118C213.364 186.408 215.864 184.99 218.25 183.393C218.789 183.698 218.834 184.294 219.092 184.766C221.409 189.011 222.837 193.658 225.182 197.91C227.37 201.888 230.42 205.327 234.108 207.975C234.612 208.34 235.173 208.954 235.822 208.367C238.835 205.724 242.204 203.435 244.735 200.247C247.045 198.487 248.606 196.099 250.301 193.822Z" fill="#888888"/>
<path id="Vector_4" d="M385.21 72.7235C386.042 73.0288 386.341 73.7386 386.66 74.4822C392.54 88.2841 391.025 101.692 384.55 114.837C383.89 116.178 383.144 117.478 382.528 118.837C381.146 121.896 379.185 124.357 375.917 125.538C371.788 125.825 367.639 125.627 363.555 124.947C355.724 123.813 348.002 122.029 340.467 119.614C334.646 117.719 329.485 114.654 325.404 110.004C324.596 109.078 323.727 108.138 323.721 106.773C326.554 106.986 329.388 106.835 332.224 106.784C333.425 106.761 333.996 106.352 334.022 105.016C334.12 100.336 333.882 95.6543 334.25 90.9728C334.515 88.4955 334.596 86.0021 334.493 83.5128C334.375 81.7419 334.144 81.5794 332.32 81.5023C329.912 81.4151 327.604 82.0856 325.232 82.2199C325.474 81.2488 325.959 80.3552 326.642 79.6235C329.978 75.6495 334.526 73.7668 339.369 72.5771C347.709 70.5831 356.33 70.0389 364.855 70.9682C371.616 71.6479 378.428 72.0211 385.21 72.7235Z" fill="#232323"/>
<path id="Vector_5" d="M381.16 87.5491C381.846 88.8347 382.188 90.2778 382.158 91.7596C382.124 92.4007 381.976 93.12 381.097 93.253C380.219 93.3861 379.932 92.7774 379.841 92.1044C379.637 90.4846 378.62 89.2203 378.038 87.7603C377.747 87.0224 377.112 86.2669 378.22 85.5673C379.329 84.8677 379.826 85.7367 380.348 86.3086C380.663 86.6926 380.935 87.1081 381.16 87.5491Z" fill="#414141"/>
<path id="Vector_6" d="M218.263 183.36C215.877 184.958 213.376 186.375 211.058 188.086C205.57 192.04 200.36 196.366 195.464 201.033C194.793 201.691 194.211 202.434 193.733 203.243C193.565 203.603 193.289 203.9 192.944 204.095C192.598 204.29 192.2 204.372 191.806 204.329C189.861 200.747 187.763 197.27 184.977 194.258C184.447 193.688 184.201 194.274 183.869 194.465C181.055 196.169 178.31 197.968 174.972 198.497C170.964 199.128 167.048 199.046 163.44 196.857C162.895 196.611 162.433 196.212 162.111 195.708C162.351 195.321 162.695 194.794 162.215 194.518C160.598 193.562 161.326 192.146 161.578 190.978C162.475 186.723 164.618 183.025 167.015 179.451C169.174 176.227 172.216 173.839 174.991 171.204C178.953 167.494 183.513 164.481 188.479 162.292C193.033 160.255 197.997 159.521 202.772 158.202C203.734 157.934 204.513 157.858 205.013 158.944C205.122 159.173 205.306 159.357 205.535 159.465C205.763 159.574 206.022 159.6 206.268 159.54C208.539 163.563 210.373 167.779 212.251 171.997C212.762 173.083 212.964 174.356 214.071 175.09C214.324 177.372 215.672 179.056 217.171 180.668C217.229 181.671 217.972 182.419 218.263 183.36Z" fill="#E2E2E2"/>
<path id="Vector_7" d="M385.21 72.7234C378.427 72.0209 371.616 71.6477 364.838 70.9675C356.313 70.0381 347.692 70.5823 339.352 72.5764C334.51 73.766 329.961 75.6487 326.625 79.6228C325.942 80.3544 325.457 81.248 325.216 82.2191C323.92 82.1226 323.64 83.1802 323.384 84.024C322.573 86.6364 322.168 89.3579 322.183 92.0933C322.199 93.3432 321.909 93.5914 320.683 93.0847C316.714 91.4439 313.691 88.6045 310.693 85.6615C310.236 85.2101 310.373 84.6152 310.535 84.1092C311.549 81.0142 308.631 78.7675 306.449 78.5344C305.511 78.4344 304.581 78.2742 303.645 78.1467C307.42 68.9627 314.923 59.0189 323.558 54.1169C337.609 46.0782 353.078 46.2917 367.863 53.2445C376.051 57.091 380.63 64.2302 385.021 72.1771C385.099 72.3537 385.162 72.5364 385.21 72.7234Z" fill="#E2E2E2"/>
<path id="Vector_8" d="M338.431 205.753C337.397 204.978 336.263 205.592 335.263 205.705C331.167 206.178 327.21 205.413 323.309 204.463C317.907 203.166 312.559 201.608 307.203 200.109C304.31 199.3 301.758 197.711 299.123 196.322C297.8 195.624 297.818 194.37 297.758 193.119C297.51 188.112 299.421 183.674 301.419 179.266C303.215 175.275 305.011 171.261 307.66 167.73C307.99 167.291 308.293 166.828 308.649 166.418C310.98 163.75 312.182 163.392 315.671 164.613C319.513 165.963 323.216 167.683 327.124 168.881C332.246 170.464 337.175 172.663 342.495 173.615C344.953 173.993 347.456 173.968 349.906 173.542C350.25 173.511 350.596 173.505 350.942 173.524C351.161 174.071 351.187 174.675 351.017 175.239C350.75 176.236 350.123 177.144 350.221 178.232C348.798 181.191 347.946 184.358 346.881 187.467C344.79 193.534 342.504 199.516 339.091 205.007C338.953 205.318 338.723 205.578 338.431 205.753ZM302.541 195.097C304.234 195.158 305.221 194.203 305.256 192.482C305.254 191.786 304.984 191.118 304.502 190.617C304.019 190.115 303.362 189.819 302.667 189.79C301.983 189.804 301.33 190.081 300.845 190.565C300.361 191.048 300.081 191.699 300.065 192.383C300.048 193.068 300.297 193.732 300.758 194.237C301.219 194.743 301.858 195.051 302.541 195.097ZM308.46 176.048C308.29 175.728 308.111 175.342 307.635 175.402C307.243 175.453 307.098 175.79 307.112 176.164C307.126 176.539 307.285 176.88 307.704 176.852C307.914 176.845 308.114 176.756 308.259 176.604C308.405 176.452 308.485 176.248 308.482 176.038L308.46 176.048ZM309.474 172.039C309.301 172.031 309.131 172.089 308.999 172.202C308.867 172.315 308.783 172.474 308.764 172.647C308.744 172.743 308.746 172.842 308.769 172.938C308.793 173.033 308.838 173.122 308.901 173.197C308.964 173.273 309.043 173.333 309.133 173.373C309.223 173.413 309.32 173.433 309.418 173.43C309.504 173.44 309.59 173.432 309.673 173.407C309.755 173.382 309.832 173.341 309.898 173.286C309.964 173.231 310.017 173.162 310.056 173.086C310.095 173.009 310.117 172.925 310.122 172.839C310.212 172.352 309.928 172.122 309.497 172.029L309.474 172.039ZM312.225 173.757C312.242 173.268 312.08 173.031 311.647 172.999C311.476 172.967 311.299 173.004 311.155 173.102C311.012 173.2 310.912 173.351 310.879 173.521C310.766 174.068 311.177 174.253 311.561 174.311C311.944 174.369 312.186 174.058 312.247 173.747L312.225 173.757ZM304.982 182.411C304.895 182.401 304.808 182.408 304.724 182.433C304.641 182.457 304.563 182.497 304.495 182.551C304.427 182.606 304.37 182.673 304.328 182.749C304.287 182.825 304.26 182.909 304.251 182.996C304.225 183.093 304.224 183.194 304.246 183.292C304.268 183.39 304.313 183.481 304.378 183.558C304.442 183.635 304.524 183.695 304.617 183.733C304.71 183.772 304.81 183.787 304.91 183.779C304.997 183.787 305.085 183.776 305.167 183.748C305.249 183.72 305.325 183.674 305.388 183.615C305.452 183.555 305.502 183.483 305.535 183.402C305.569 183.322 305.585 183.235 305.583 183.148C305.596 183.061 305.591 182.972 305.569 182.886C305.546 182.801 305.507 182.721 305.453 182.651C305.399 182.581 305.331 182.523 305.254 182.48C305.177 182.437 305.092 182.41 305.004 182.401L304.982 182.411ZM303.562 186.823C303.395 186.814 303.231 186.868 303.102 186.974C302.974 187.081 302.891 187.232 302.869 187.398C302.846 187.484 302.842 187.574 302.856 187.661C302.871 187.749 302.904 187.832 302.953 187.906C303.003 187.98 303.068 188.042 303.143 188.089C303.219 188.136 303.303 188.165 303.392 188.177C303.488 188.208 303.591 188.216 303.691 188.2C303.791 188.184 303.886 188.145 303.968 188.085C304.05 188.025 304.116 187.946 304.161 187.855C304.207 187.765 304.23 187.664 304.228 187.563C304.259 187.162 304.009 186.922 303.562 186.823Z" fill="white"/>
<path id="Vector_9" d="M402.178 123.952C401.89 123.656 401.665 123.306 401.516 122.921C401.133 121.806 400.329 120.919 399.754 119.913C398.973 118.541 398.96 118.574 400.475 118.238C401.143 118.045 401.774 117.74 402.341 117.337C407.898 113.873 414.102 111.709 419.917 108.765C422.417 107.502 424.078 105.553 425.683 103.498C427.708 100.907 429.127 97.9151 430.62 94.9861C431.215 93.7808 431.874 92.6086 432.596 91.4746C433.72 89.7651 435.327 89.3114 436.978 90.0922C438.471 90.8012 438.959 92.3655 438.337 94.3629C437.977 95.4891 437.16 96.4558 437.153 97.7049L436.979 97.8196C437.012 97.8208 437.061 97.8226 437.077 97.8232C437.104 97.7831 437.124 97.7393 437.137 97.6933C439.802 96.1386 442.186 94.139 445.018 92.8491C447.38 91.7678 449.74 90.7359 452.411 90.6896C453.726 90.5924 455.026 91.0193 456.028 91.8773C458.997 94.6872 461.237 98.0541 461.51 102.197C461.784 106.341 459.352 109.214 456.138 111.624C450.843 115.587 444.846 118.111 438.755 120.516C435.845 121.665 432.851 122.729 430.608 125.092C428.445 127.369 426.24 129.612 424.157 131.958C421.575 134.87 418.993 137.765 416.678 140.912C416.267 141.509 415.892 142.129 415.554 142.77C415.051 143.715 414.568 143.681 413.784 142.706C413.193 141.98 412.842 141.059 412.155 140.407C411.901 140.142 411.701 139.83 411.566 139.488C411.402 139.174 411.216 138.871 411.01 138.582C408.18 133.922 405.041 129.406 402.493 124.514C402.411 124.315 402.305 124.126 402.178 123.952Z" fill="#414141"/>
<path id="Vector_10" d="M323.704 106.772C323.71 108.137 324.578 109.077 325.387 110.003C329.484 114.654 334.646 117.719 340.45 119.614C347.984 122.029 355.707 123.813 363.538 124.946C367.621 125.626 371.77 125.825 375.9 125.537C372.353 129.115 368.182 132.013 363.592 134.09C362.97 134.381 362.359 134.712 361.717 134.958C353.297 138.275 344.663 139.586 335.655 137.867C324.505 135.735 315.427 130.299 308.495 121.275C306.166 118.246 304.556 114.825 302.868 111.439C301.888 108.101 300.735 104.834 300.388 101.354C300.238 99.8738 300.149 98.3846 300.037 96.9C302.616 97.4227 304.715 96.6016 306.453 94.6721C307.179 93.8517 307.747 92.9037 308.128 91.8763C308.492 90.9373 308.887 90.9901 309.628 91.5013C313.081 93.8719 316.728 95.8918 320.788 97.0294C321.572 97.2505 321.647 97.611 321.617 98.3033C321.539 100.436 321.341 102.559 321.654 104.706C321.838 106.028 322.403 106.687 323.704 106.772Z" fill="#E2E2E2"/>
<path id="Vector_11" d="M285.107 71.4824C279.65 72.609 274.047 72.8466 268.515 72.186C266.782 71.9967 265.02 71.4155 263.235 71.9123C263.032 71.4426 262.552 71.4692 262.2 71.462C260.425 71.3977 260.16 70.513 260.197 68.8742C260.34 62.4839 262.36 56.5524 264.305 50.5851C264.676 49.4537 265.064 48.3229 265.495 47.2048C266.326 45.0537 266.386 42.6814 265.667 40.4908C264.608 36.8025 263.31 33.187 261.782 29.6671C260.518 26.7356 259.807 23.5955 259.685 20.4053C259.462 16.517 262.317 10.3349 267.254 8.97263C269.366 8.38867 271.398 7.61464 273.65 7.72922C276.946 7.89811 278.998 9.46393 279.994 12.6537C280.832 15.3589 280.773 18.1858 280.888 20.9419C280.913 21.6308 280.838 22.3215 280.796 23.4758C281.591 21.8975 282.205 20.7364 282.766 19.5459C283.833 17.2894 284.954 16.5595 286.591 17.1196C287.972 17.5879 289.031 19.8112 288.601 21.656C288.315 22.8663 287.913 24.0462 287.4 25.179C285.227 29.8872 283.683 34.861 282.808 39.9722C282.187 43.9014 282.457 47.8245 282.871 51.7472C283.437 57.1064 285.303 62.1 287.226 67.068C287.442 67.837 287.846 68.5402 288.401 69.114C289.068 69.6885 288.743 70.1666 288.034 70.4326C287.074 70.7941 286.065 71.1593 285.107 71.4824Z" fill="#888888"/>
<path id="Vector_12" d="M231.073 168.859C225.177 161.425 223.124 152.473 220.982 143.534C217.803 130.259 216.617 116.781 216.389 103.189C216.264 96.2942 216.739 89.404 216.328 82.5093C215.958 76.3261 214.962 70.2413 212.152 64.7072C207.271 55.1079 199.707 48.9009 188.756 47.3485C178.794 45.9641 169.021 47.0026 159.446 49.8317C153.868 51.5309 148.851 54.7033 144.925 59.0146C138.461 65.9026 132.206 72.9742 126.892 80.8064C123.356 86.0281 121.384 91.7082 122.152 98.1755C122.658 102.426 123.921 106.457 125.189 110.499C126.951 116.11 128.897 121.641 129.924 127.479C131.298 135.129 129.874 142.079 124.775 148.091C121.728 151.669 117.964 153.772 113.132 153.46C103.21 152.814 94.4529 149.641 87.7393 141.857C84.9027 138.573 81.85 135.48 78.0808 133.175C76.5376 132.154 74.7642 131.534 72.9211 131.371C71.078 131.208 69.2234 131.508 67.5251 132.242C63.7277 133.756 60.614 135.993 58.4568 139.482C58.2268 139.867 57.9554 140.226 57.6475 140.553C57.4241 140.797 57.1218 140.954 56.794 140.996C56.4662 141.039 56.1339 140.964 55.8558 140.785C55.5748 140.622 55.3606 140.364 55.2509 140.058C55.1412 139.752 55.1429 139.417 55.2559 139.113C55.3159 138.87 55.4154 138.64 55.5503 138.43C59.0683 132.475 64.451 129.285 71.175 128.268C74.0146 127.821 76.5724 128.926 79.018 130.242C83.3375 132.551 86.5775 136.097 89.8461 139.611C93.0256 143.001 96.3585 146.11 100.802 147.741C104.716 149.249 108.836 150.161 113.021 150.445C117.064 150.663 120.105 148.929 122.635 145.917C127.461 140.18 128.143 133.639 126.687 126.591C125.194 119.343 122.51 112.454 120.46 105.368C117.686 95.7847 118.861 86.9055 124.645 78.7271C130.603 70.2076 137.34 62.2596 144.768 54.9856C149.145 50.767 154.558 47.7774 160.459 46.3184C168.371 44.207 176.569 43.3651 184.745 43.8239C189.086 44.0836 193.365 44.9803 197.445 46.4853C203.109 48.6002 207.305 52.6379 211.059 57.1934C215.909 63.0711 217.802 70.0965 218.878 77.4501C219.638 82.6072 219.505 87.809 219.416 93.0014C219.262 104.554 219.571 116.063 221.126 127.534C222.467 137.671 224.784 147.654 228.044 157.346C230.446 164.423 235.456 169.403 241.489 173.485L242.464 174.071C243.724 174.827 244.113 175.501 243.151 176.694C242.724 176.854 242.267 176.923 241.812 176.894C241.357 176.865 240.913 176.74 240.509 176.527C238.674 175.42 236.965 174.118 235.41 172.643C234.37 171.581 233.233 170.619 232.014 169.769C231.958 169.544 231.84 169.34 231.673 169.179C231.507 169.019 231.299 168.908 231.073 168.859Z" fill="#888888"/>
<path id="Vector_13" d="M401.866 123.599C402.15 123.845 402.366 124.16 402.493 124.513C405.069 129.384 408.175 133.894 411.027 138.582C411.385 139 411.623 139.507 411.717 140.049C407.991 142.617 403.056 145.751 399.66 148.039C394.868 151.333 390.77 153.843 386.116 157.29C379.024 162.537 373.261 165.884 365.85 170.674C360.971 173.799 355.927 176.749 350.226 178.248C350.128 177.144 350.755 176.253 351.022 175.255C351.192 174.692 351.166 174.087 350.947 173.541C353.867 166.613 356.169 159.42 359.333 152.616C359.522 152.102 359.611 151.556 359.595 151.008C362.417 149.96 364.858 148.21 367.412 146.684C378.59 140.011 389.518 132.949 399.839 124.995C400.445 124.533 401.251 124.023 401.866 123.599Z" fill="#C2C2C2"/>
<path id="Vector_14" d="M244.561 246.715C244.618 246.348 244.778 245.891 245.138 245.982C247.473 246.55 249.385 245.271 251.403 244.557C254.86 243.272 258.063 241.389 260.868 238.994C266.46 234.431 271.877 229.673 277.242 224.848C277.646 224.483 277.992 224.055 278.386 223.657C280.448 224.634 282.485 225.682 284.588 226.572C287.298 227.716 290.206 228.119 293.068 228.729C295.799 229.312 298.524 228.701 301.238 228.981C302.132 229.1 303.041 228.924 303.826 228.48C304.036 228.35 304.28 228.285 304.527 228.294C304.773 228.303 305.012 228.385 305.212 228.53C305.212 229.422 304.581 229.988 304.07 230.569C299.338 236.043 294.274 241.222 288.907 246.075C285.308 249.247 282.102 252.824 278.593 256.087C275.176 259.266 271.505 261.846 266.65 262.314C261.127 262.841 256.398 261.514 252.309 257.552C249.971 255.394 248.016 252.856 246.526 250.044C245.929 248.905 245.214 247.828 244.561 246.715Z" fill="#414141"/>
<path id="Vector_15" d="M302.863 111.434C304.552 114.797 306.161 118.241 308.49 121.269C315.422 130.294 324.477 135.729 335.65 137.862C344.658 139.586 353.292 138.275 361.712 134.953C362.354 134.706 362.965 134.376 363.587 134.085C363.888 134.205 364.134 134.434 364.274 134.727C364.414 135.02 364.439 135.354 364.344 135.665C363.128 140.349 361.489 144.914 359.447 149.302C359.395 149.387 359.329 149.463 359.252 149.526C356.924 149.265 354.574 149.28 352.25 149.57C349.488 149.838 346.751 149.42 344.069 149.152C338.347 148.508 332.751 147.028 327.458 144.759C319.498 141.471 311.879 137.089 305.405 131.505C302.844 129.293 300.846 126.843 298.649 124.138C297.928 123.253 297.283 122.31 296.721 121.317C295.89 122.828 295.177 124.117 294.363 125.634C292.734 121.37 291.213 117.303 290.234 113.052C293.257 112.71 296.216 112.756 298.817 114.645C299.541 115.172 299.954 115.022 300.301 114.247C300.612 113.57 301.014 112.936 301.325 112.253C301.423 111.942 301.639 111.682 301.927 111.529C302.214 111.376 302.55 111.342 302.863 111.434Z" fill="#9E38EE"/>
<path id="Vector_16" d="M323.705 106.773C322.404 106.687 321.84 106.001 321.65 104.701C321.337 102.554 321.524 100.431 321.612 98.2982C321.637 97.6221 321.568 97.2454 320.783 97.0243C316.724 95.8866 313.077 93.8667 309.623 91.4961C308.882 90.985 308.488 90.9321 308.124 91.8711C307.743 92.8986 307.175 93.8465 306.449 94.667C304.727 96.597 302.612 97.4176 300.033 96.8949C299.637 96.5888 299.252 96.2777 298.855 95.9771C296.927 94.5093 295.919 92.5685 296.16 90.15C296.441 87.4262 297.065 84.7488 298.017 82.1816C299.007 79.4656 300.852 78.2169 303.64 78.1473C304.576 78.2747 305.506 78.435 306.444 78.535C308.637 78.7685 311.544 81.0148 310.529 84.1097C310.368 84.6158 310.231 85.1997 310.688 85.6621C313.669 88.6045 316.709 91.4445 320.678 93.0853C321.904 93.592 322.193 93.3438 322.178 92.0938C322.164 89.3583 322.571 86.6369 323.384 84.0248C323.64 83.181 323.921 82.1234 325.216 82.2199C327.588 82.0856 329.897 81.3986 332.303 81.5023C334.128 81.5684 334.359 81.7419 334.476 83.5128C334.58 86.0021 334.499 88.4955 334.234 90.9728C333.866 95.6488 334.104 100.325 334.006 105.016C333.957 106.352 333.392 106.76 332.208 106.784C329.355 106.851 326.537 106.986 323.705 106.773Z" fill="#888888"/>
<path id="Vector_17" d="M206.269 159.523C206.023 159.584 205.764 159.557 205.535 159.449C205.307 159.34 205.122 159.156 205.014 158.928C204.502 157.841 203.735 157.918 202.773 158.186C197.997 159.505 193.034 160.217 188.48 162.275C183.51 164.47 178.947 167.491 174.986 171.209C172.209 173.861 169.168 176.222 167.009 179.457C164.623 183.03 162.469 186.728 161.572 190.983C161.321 192.152 160.576 193.567 162.209 194.523C162.689 194.799 162.345 195.326 162.105 195.714C159.418 195.908 157.757 194.213 156.282 192.377C155.56 191.486 156.008 190.358 156.145 189.334C156.637 185.603 158.481 182.417 160.184 179.155C164.035 171.748 170.095 166.579 176.824 161.93C183.235 157.372 190.504 154.16 198.191 152.489C200.293 152.047 201.83 152.466 203.213 154.074C204.28 155.333 205.269 156.655 206.174 158.034C206.333 158.246 206.426 158.5 206.443 158.765C206.46 159.029 206.399 159.293 206.269 159.523Z" fill="#9E38EE"/>
<path id="Vector_18" d="M231.072 168.859C231.3 168.904 231.511 169.012 231.68 169.171C231.85 169.33 231.971 169.533 232.03 169.758C231.836 171.88 231.944 174.019 232.351 176.11C231.983 175.965 231.593 175.886 231.198 175.876C227.672 176.408 224.11 176.764 220.901 178.574C219.66 179.272 218.563 180.228 217.166 180.64C215.695 179.029 214.347 177.346 214.066 175.063C215.424 173.598 217.259 172.916 218.999 172.126C222.843 170.405 226.723 168.74 231.072 168.859Z" fill="#9E38EE"/>
<path id="Vector_19" d="M232.328 176.109C232.77 176.587 233.049 177.193 233.124 177.839C234.436 184.491 237.337 190.403 241.008 196.012C242.051 197.607 243.664 198.662 244.708 200.23C242.176 203.44 238.808 205.691 235.795 208.35C235.135 208.937 234.586 208.306 234.081 207.958C230.395 205.304 227.349 201.859 225.167 197.876C222.822 193.625 221.394 188.978 219.077 184.733C218.818 184.261 218.763 183.665 218.235 183.359C217.944 182.419 217.195 181.671 217.116 180.65C218.513 180.227 219.61 179.27 220.851 178.583C224.06 176.773 227.622 176.418 231.148 175.885C231.551 175.889 231.951 175.965 232.328 176.109Z" fill="#414141"/>
<path id="Vector_20" d="M302.563 195.103C302.039 195.092 301.529 194.925 301.099 194.625C300.669 194.324 300.338 193.903 300.147 193.414C299.956 192.925 299.914 192.391 300.027 191.878C300.139 191.366 300.4 190.898 300.778 190.534C301.156 190.17 301.633 189.926 302.15 189.833C302.666 189.74 303.199 189.802 303.68 190.011C304.161 190.22 304.57 190.566 304.854 191.007C305.138 191.448 305.286 191.964 305.278 192.488C305.243 194.21 304.256 195.159 302.563 195.103Z" fill="#D33A0A"/>
<path id="Vector_21" d="M308.483 176.037C308.483 176.242 308.405 176.44 308.265 176.589C308.124 176.739 307.932 176.829 307.727 176.841C307.308 176.87 307.149 176.534 307.136 176.153C307.122 175.773 307.266 175.443 307.658 175.391C308.161 175.332 308.313 175.717 308.483 176.037Z" fill="#439A6B"/>
<path id="Vector_22" d="M309.497 172.029C309.923 172.122 310.212 172.352 310.145 172.829C310.14 172.914 310.118 172.998 310.079 173.075C310.04 173.152 309.986 173.22 309.921 173.276C309.855 173.331 309.778 173.372 309.696 173.397C309.613 173.422 309.527 173.429 309.441 173.42C309.343 173.422 309.246 173.403 309.156 173.363C309.066 173.322 308.987 173.262 308.924 173.187C308.861 173.111 308.816 173.023 308.792 172.927C308.769 172.832 308.767 172.732 308.787 172.636C308.806 172.464 308.89 172.305 309.022 172.192C309.154 172.079 309.324 172.021 309.497 172.029Z" fill="#439A6B"/>
<path id="Vector_23" d="M312.247 173.747C312.186 174.058 311.993 174.387 311.582 174.323C311.172 174.258 310.788 174.057 310.901 173.533C310.934 173.362 311.033 173.212 311.177 173.114C311.321 173.016 311.497 172.979 311.668 173.01C312.097 173.02 312.287 173.258 312.247 173.747Z" fill="#439A6B"/>
<path id="Vector_24" d="M305.004 182.401C305.176 182.42 305.334 182.506 305.442 182.641C305.551 182.776 305.602 182.948 305.583 183.121C305.586 183.208 305.57 183.294 305.536 183.375C305.503 183.455 305.453 183.528 305.389 183.587C305.326 183.647 305.25 183.692 305.168 183.72C305.085 183.749 304.998 183.759 304.911 183.751C304.814 183.759 304.716 183.743 304.626 183.706C304.536 183.669 304.456 183.612 304.392 183.539C304.327 183.465 304.281 183.378 304.257 183.284C304.232 183.189 304.23 183.091 304.25 182.995C304.258 182.906 304.285 182.819 304.327 182.74C304.37 182.661 304.428 182.591 304.499 182.536C304.57 182.48 304.651 182.439 304.738 182.416C304.824 182.393 304.915 182.388 305.004 182.401Z" fill="#FFE600"/>
<path id="Vector_25" d="M303.563 186.823C304.01 186.922 304.26 187.162 304.218 187.562C304.219 187.664 304.196 187.764 304.151 187.855C304.106 187.946 304.039 188.024 303.958 188.084C303.876 188.144 303.781 188.184 303.681 188.2C303.58 188.216 303.478 188.208 303.381 188.176C303.293 188.165 303.209 188.135 303.133 188.088C303.057 188.042 302.993 187.979 302.943 187.906C302.894 187.832 302.861 187.748 302.846 187.661C302.832 187.573 302.836 187.483 302.859 187.398C302.881 187.23 302.966 187.077 303.096 186.97C303.227 186.863 303.394 186.811 303.563 186.823Z" fill="#FFE600"/>
<path id="Vector_26" d="M437.138 97.6816C437.125 97.7279 437.104 97.7719 437.078 97.8122C437.078 97.8122 437.012 97.8098 436.979 97.8086L437.154 97.6933L437.138 97.6816Z" fill="#FEFEFE"/>
</g>
<g id="Rocket" clip-path="url(#clip0_451_1819)">
<g id="Vector_27">
<path d="M39.7116 109.923C47.5758 117.199 54.5536 125.38 60.4999 134.295C61.5541 135.876 62.5485 137.499 63.5471 139.11C63.7435 139.426 64.0635 139.708 63.9739 140.148C62.4674 139.802 62.0491 140.088 61.6565 141.857C60.3079 147.974 58.9251 154.092 56.9619 160.043C56.3773 161.811 56.2407 163.319 57.6192 164.742C57.824 164.951 59.258 165.43 59.3988 165.703C59.0404 165.925 57.265 166.558 56.9449 166.801C50.9273 171.312 44.3037 173.906 37.0015 175.678C33.694 176.482 30.3566 176.99 26.921 176.533C25.3249 176.324 22.4399 176.729 20.9035 176.392C20.6261 175.469 20.4468 173.914 19.6786 173.325C18.0227 172.043 17.4551 170.531 15.7693 169.3C12.3337 166.797 9.07742 164.067 5.87659 161.269C4.55357 160.107 4.02438 160.09 2.7227 160.983C2.3258 154.075 2.80806 147.205 3.57626 140.349C4.27618 133.941 5.59491 127.605 6.87525 121.278C6.9031 121.206 6.93889 121.138 6.98194 121.073C7.65118 120.773 8.23717 120.314 8.68905 119.736C9.5868 118.665 10.6398 117.735 11.8131 116.976C15.3681 114.665 19.3158 113.332 23.3574 112.205C28.6964 110.701 34.2019 110.282 39.7116 109.923ZM46.1132 143.852C46.0492 140.861 44.4061 137.153 41.0303 134.257C39.8089 133.173 38.3721 132.36 36.8143 131.871C35.2565 131.383 33.6131 131.23 31.9922 131.423C30.3712 131.616 28.8094 132.15 27.4094 132.991C26.0095 133.831 24.8031 134.958 23.8696 136.299C20.37 141.165 20.6175 148.337 24.45 153.105C27.5057 156.903 31.4406 158.783 36.2888 157.907C42.2424 156.83 46.0919 151.708 46.1004 143.852H46.1132Z" fill="#DDDDDD"/>
<path d="M39.7116 109.923C47.5758 117.199 54.5536 125.38 60.4999 134.295C61.5541 135.876 62.5485 137.499 63.5471 139.11C63.7435 139.426 64.0635 139.708 63.9739 140.148C62.4674 139.802 62.0491 140.088 61.6565 141.857C60.3079 147.974 58.9251 154.092 56.9619 160.043C56.3773 161.811 56.2407 163.319 57.6192 164.742C57.824 164.951 59.258 165.43 59.3988 165.703C59.0404 165.925 57.265 166.558 56.9449 166.801C50.9273 171.312 44.3037 173.906 37.0015 175.678C33.694 176.482 30.3566 176.99 26.921 176.533C25.3249 176.324 22.4399 176.729 20.9035 176.392C20.6261 175.469 20.4468 173.914 19.6786 173.325C18.0227 172.043 17.4551 170.531 15.7693 169.3C12.3337 166.797 9.07742 164.067 5.87659 161.269C4.55357 160.107 4.02438 160.09 2.7227 160.983C2.3258 154.075 2.80806 147.205 3.57626 140.349C4.27618 133.941 5.59491 127.605 6.87525 121.278C6.9031 121.206 6.93889 121.138 6.98194 121.073C7.65118 120.773 8.23717 120.314 8.68905 119.736C9.5868 118.665 10.6398 117.735 11.8131 116.976C15.3681 114.665 19.3158 113.332 23.3574 112.205C28.6964 110.701 34.2019 110.282 39.7116 109.923ZM46.1132 143.852C46.0492 140.861 44.4061 137.153 41.0303 134.257C39.8089 133.173 38.3721 132.36 36.8143 131.871C35.2565 131.383 33.6131 131.23 31.9922 131.423C30.3712 131.616 28.8094 132.15 27.4094 132.991C26.0095 133.831 24.8031 134.958 23.8696 136.299C20.37 141.165 20.6175 148.337 24.45 153.105C27.5057 156.903 31.4406 158.783 36.2888 157.907C42.2424 156.83 46.0919 151.708 46.1004 143.852H46.1132Z" fill="url(#paint0_radial_451_1819)"/>
</g>
<path id="Vector_28" d="M22.3674 175.255C23.9038 175.593 25.3207 176.315 26.9168 176.537C30.3311 176.994 33.6898 176.486 36.9973 175.683C44.2304 173.93 51.0271 170.709 56.9663 166.22C57.3034 165.968 57.6875 165.793 58.046 165.558C58.1783 165.622 58.3576 165.648 58.4472 165.75C62.3053 170.21 66.1577 174.677 70.0044 179.152C71.3316 180.702 72.8936 182.18 73.6192 184.073C75.1039 188.007 76.2184 192.072 76.948 196.214C76.9779 196.326 76.9727 196.445 76.933 196.554C76.8933 196.664 76.8211 196.758 76.7261 196.825C72.4583 195.795 68.1607 195.138 63.7734 195.39C53.9575 195.945 45.1403 199.098 37.7698 205.835C35.7457 207.738 33.9302 209.852 32.354 212.14C31.9744 211.563 31.4962 211.057 30.9413 210.645C29.915 209.962 28.9983 209.126 28.2228 208.167C24.0788 203.092 21.7101 197.359 21.6418 190.763C21.6418 188.794 21.7315 186.824 21.7955 184.859C21.8937 181.638 22.5637 178.472 22.3674 175.255Z" fill="#1B365D"/>
<path id="Vector_29" d="M77.2342 184.799C76.9446 184.58 76.7147 184.291 76.5656 183.96C76.4164 183.628 76.3528 183.265 76.3806 182.902C76.3251 179.596 75.3948 176.383 74.9125 173.124C74.362 169.411 73.0219 165.861 72.2708 162.187C72.7815 162.142 73.2963 162.2 73.784 162.358C74.2717 162.517 74.7224 162.773 75.1088 163.11C81.4166 168.057 87.7073 173.025 94.0364 177.955C95.0607 178.754 95.6283 179.664 95.6625 180.852C95.6923 181.805 95.799 182.761 95.7905 183.714C95.7137 193.399 96.7721 203.045 97.169 212.713C97.2117 213.742 97.3952 214.772 97.4848 215.801C97.5574 216.656 97.2757 217.382 96.2045 217.51C95.1333 217.638 94.6852 216.985 94.4163 216.182C91.8898 208.667 88.9236 201.272 85.9917 193.873C85.2021 191.882 84.4766 189.87 83.798 187.849C83.6735 187.494 83.4684 187.173 83.1988 186.911C82.9293 186.648 82.6026 186.452 82.2446 186.337C80.6484 185.637 78.8944 185.342 77.2342 184.799Z" fill="#1B365D"/>
<path id="Vector_30" d="M7.08023 182.091C7.69052 182.176 7.81428 182.706 8.04901 183.137C11.5059 189.481 14.8775 195.877 19.8793 201.229C20.1888 201.626 20.3408 202.124 20.3061 202.626C19.4781 204.956 18.6502 207.287 17.8222 209.62C17.6855 209.993 17.6349 210.393 17.674 210.788C17.7132 211.184 17.8412 211.566 18.0484 211.905C22.5211 219.937 26.5627 228.203 31.4877 235.987C31.7082 236.294 31.8997 236.622 32.0596 236.965C32.2173 237.267 32.261 237.616 32.1827 237.948C32.1043 238.28 31.9091 238.572 31.6328 238.772C31.031 239.233 30.4421 239.037 29.8873 238.657C29.7137 238.536 29.5509 238.4 29.4007 238.251C22.0729 231.176 14.4635 224.375 7.55822 216.891C5.42433 214.575 3.12826 212.392 0.862066 210.192C0.495263 209.889 0.225692 209.484 0.0868372 209.028C-0.0520172 208.572 -0.054026 208.086 0.0810674 207.629C1.84793 199.559 4.25069 191.647 6.05596 183.594C6.22667 182.945 6.44006 182.394 7.08023 182.091Z" fill="#1B365D"/>
<path id="Vector_31" d="M50.4409 244.356C49.5874 245.757 49.2929 247.243 48.8875 248.692C48.5418 249.922 48.2089 251.157 47.8291 252.374C47.6413 252.968 47.4023 253.566 46.617 253.609C45.7635 253.656 45.3836 253.083 45.0721 252.43C44.0905 250.396 43.5485 248.209 42.8699 246.064C40.4031 238.272 38.6021 230.258 35.5336 222.666C35.2687 221.972 35.2402 221.209 35.4525 220.496C36.6907 215.573 39.4311 211.159 43.2924 207.868C50.2788 201.887 58.3363 200.606 67.128 201.755C70.8277 202.202 74.3795 203.476 77.52 205.484C77.5883 205.527 80.7849 208.167 81.7238 209.927C84.5491 215.22 86.3159 220.932 88.1895 226.588C89.2991 229.946 90.9422 233.082 92.2695 236.346C93.9766 240.583 95.2569 244.992 96.7592 249.307C97.0186 250.243 97.1153 251.217 97.0451 252.186C97.0451 252.797 96.9811 253.382 96.3666 253.677C96.062 253.812 95.7234 253.848 95.3972 253.783C95.0709 253.717 94.773 253.552 94.5442 253.31C93.6725 252.482 92.8821 251.572 92.1841 250.593C91.608 249.875 91.0574 249.136 90.4044 248.29C90.1398 248.845 90.4045 249.166 90.4984 249.495C92.4573 256.108 94.4546 262.712 96.1617 269.394C96.9806 272.715 97.1056 276.169 96.5287 279.54C96.4092 280.296 96.2044 281.121 95.2484 281.274C94.7714 281.392 94.2692 281.35 93.8183 281.155C93.3675 280.96 92.9929 280.622 92.7517 280.194C92.3591 279.523 92.0305 278.822 91.6634 278.139C91.1513 277.195 90.6264 276.255 89.9563 275.016C89.7448 276.758 89.8184 278.522 90.174 280.241C90.9379 285.021 91.7616 289.789 92.5127 294.569C92.6727 295.647 92.6511 296.745 92.4487 297.816C92.2866 298.704 91.7531 299.097 90.8867 298.982C90.3511 298.904 89.8239 298.777 89.3119 298.602C84.963 297.192 81.4464 294.757 79.0692 290.707C76.7561 286.764 74.2381 282.941 72.356 278.745C72.0573 278.083 71.6817 277.464 71.2763 276.691C70.7129 277.404 70.6873 278.152 70.5379 278.827C70.2904 280.001 70.0642 281.18 69.8764 282.368C69.7697 283.035 69.5393 283.603 68.8351 283.744C68.1309 283.885 67.7511 283.282 67.4267 282.748C65.8604 280.185 64.7551 277.408 63.2656 274.824C59.7959 268.809 57.7175 262.2 55.1568 255.796C53.7783 252.34 52.4596 248.858 51.0982 245.398C50.999 244.988 50.7681 244.622 50.4409 244.356ZM76.3208 248.44C76.9652 249.183 77.2597 250.148 78.2498 249.785C79.2399 249.422 79.1034 248.529 79.1546 247.709C79.212 246.08 78.9645 244.454 78.4248 242.916C77.753 241.018 77.2447 239.065 76.9054 237.08C76.8713 236.845 76.7603 236.593 76.978 236.435C77.2682 236.217 77.4901 236.469 77.6737 236.653C78.1645 237.149 78.6382 237.661 79.1119 238.174C79.3292 238.427 79.6183 238.608 79.9408 238.693C80.2632 238.777 80.6037 238.762 80.9172 238.648C81.6256 238.413 81.6854 237.755 81.6982 237.11C81.7409 235.29 81.1604 233.603 80.6227 231.907C79.1759 227.349 77.0036 223.098 75.113 218.728C74.2381 216.703 73.6875 214.537 72.4542 212.674C71.4128 211.106 70.1282 210.222 68.0669 210.598C66.5774 210.867 65.1264 211.239 63.6753 211.632C59.9538 212.636 56.1128 213.242 52.7455 215.348C50.2446 216.916 47.748 218.459 45.6397 220.552C44.6112 221.577 44.0137 222.829 44.4191 224.243C45.1658 227.092 46.1804 229.864 47.4492 232.522C47.7778 233.167 48.2046 233.671 49.0582 233.624C49.9117 233.577 50.3385 232.988 50.6415 232.296C50.9445 231.604 51.1835 231.014 51.5207 230.399C51.9176 229.685 52.3188 229.416 52.848 230.399C53.8509 232.236 54.9819 234 55.8354 235.914C57.7943 240.306 59.7063 244.714 61.6524 249.106C61.9767 249.895 62.3694 250.654 62.826 251.375C63.6796 252.656 65.0026 252.601 65.8348 251.302C66.2194 250.631 66.567 249.939 66.8762 249.23C67.7334 250.576 68.4663 251.997 69.0655 253.476C69.9654 255.841 71.3845 257.972 73.2181 259.714C74.6478 261.034 75.83 260.743 76.4573 258.923C76.978 257.411 76.8286 255.869 76.6963 254.322C76.5427 252.425 76.2183 250.559 76.3208 248.44ZM90.1527 248.051L90.1057 248.132H90.174L90.1527 248.051Z" fill="#FF6737"/>
<path id="Vector_32" d="M22.3674 175.255C22.5638 178.472 21.8937 181.638 21.7956 184.846C21.7315 186.811 21.6248 188.781 21.6419 190.75C21.7102 197.346 24.0788 203.079 28.2228 208.154C28.9984 209.113 29.915 209.949 30.9414 210.632C31.4963 211.044 31.9745 211.55 32.354 212.127C32.0724 212.909 31.6115 212.824 30.9969 212.486C27.2327 210.414 18.5947 204.459 18.2448 204.079C13.6654 199.132 6.00049 186.529 4.58785 181.497C3.02157 175.943 2.54358 163.96 2.56065 162.106C2.50334 161.721 2.55817 161.328 2.71856 160.974C4.02023 160.081 4.54944 160.098 5.87246 161.26C9.07329 164.058 12.3296 166.788 15.7652 169.292C17.4509 170.522 19.0898 171.812 20.7414 173.081C21.5069 173.608 22.0782 174.372 22.3674 175.255Z" fill="#9E38EE"/>
<path id="Vector_33" d="M76.7263 196.812C76.7728 196.565 76.7728 196.311 76.7263 196.064C75.9667 191.916 75.143 187.982 73.6365 184.06C72.9109 182.168 71.3489 180.689 70.0217 179.139C66.1863 174.659 62.3282 170.192 58.4474 165.737C58.3578 165.635 57.8201 164.943 57.6152 164.733C56.2367 163.319 56.3733 161.811 56.958 160.034C58.9339 154.083 60.3167 147.966 61.6525 141.848C62.0452 140.079 62.4634 139.793 63.9699 140.139C64.0852 140.225 68.6645 146.184 72.2878 155.707C72.9451 157.129 75.8941 166.515 76.8842 172.09C77.4817 175.46 78.1347 180.232 78.1859 183.453C78.1859 184.21 78.3566 187.371 78.2371 188.729C78.1945 191.263 77.4988 197.184 76.7263 196.812Z" fill="#9E38EE"/>
<path id="Vector_34" d="M76.3207 248.44C76.2311 250.576 76.5426 252.425 76.7005 254.305C76.8328 255.852 76.9822 257.394 76.4615 258.906C75.8342 260.726 74.652 261.016 73.2223 259.696C71.3887 257.955 69.9696 255.823 69.0697 253.459C68.4705 251.98 67.7376 250.559 66.8803 249.213C66.5712 249.922 66.2235 250.614 65.839 251.285C65.0068 252.566 63.7051 252.626 62.8302 251.357C62.3736 250.637 61.9809 249.878 61.6566 249.089C59.7105 244.697 57.8156 240.289 55.8396 235.897C54.986 233.983 53.8508 232.219 52.8521 230.382C52.3229 229.416 51.9218 229.685 51.5249 230.382C51.1877 230.988 50.9359 231.663 50.6457 232.279C50.3555 232.894 49.9543 233.56 49.0624 233.607C48.1704 233.654 47.782 233.15 47.4534 232.505C46.1846 229.847 45.17 227.075 44.4233 224.226C44.0178 222.812 44.6153 221.56 45.6439 220.535C47.7521 218.441 50.2488 216.899 52.7497 215.331C56.117 213.225 59.958 212.619 63.6795 211.615C65.1306 211.222 66.5816 210.85 68.0711 210.581C70.1324 210.205 71.417 211.089 72.4583 212.657C73.6917 214.52 74.2423 216.686 75.1172 218.711C77.0078 223.081 79.1801 227.332 80.6269 231.89C81.1646 233.599 81.745 235.273 81.7024 237.093C81.7024 237.738 81.6298 238.375 80.9214 238.631C80.6079 238.745 80.2674 238.76 79.9449 238.675C79.6225 238.591 79.3334 238.41 79.1161 238.157C78.6424 237.644 78.1686 237.132 77.6778 236.636C77.4943 236.452 77.2511 236.209 76.9822 236.418C76.7645 236.576 76.8755 236.845 76.9096 237.063C77.2489 239.048 77.7572 241.001 78.429 242.899C78.9687 244.437 79.2162 246.063 79.1588 247.692C79.1204 248.512 79.2057 249.426 78.254 249.768C77.3023 250.11 76.9651 249.183 76.3207 248.44Z" fill="#FFB39B"/>
<path id="Vector_35" d="M90.1528 248.051L90.1741 248.141L90.1101 248.132L90.1528 248.051Z" fill="#FEFEFE"/>
<path id="Vector_36" d="M46.1005 143.852C46.1005 151.708 42.2595 156.83 36.2846 157.907C31.4364 158.783 27.5015 156.903 24.4458 153.105C20.6048 148.338 20.3658 141.143 23.8654 136.299C24.7979 134.959 26.0031 133.832 27.4019 132.991C28.8006 132.15 30.3612 131.615 31.9811 131.421C33.6011 131.227 35.2437 131.378 36.8011 131.865C38.3585 132.351 39.7955 133.162 41.0176 134.244C44.3763 137.153 46.0365 140.857 46.1005 143.852Z" fill="#121212"/>
<path id="Vector_37" d="M6.40161 123.487L15.6029 86L42.5284 111.995C42.5284 111.995 17.1564 107.873 6.40161 123.487Z" fill="#9E38EE"/>
<path id="Vector_38" d="M40.9342 139.807C41.5025 140.786 41.8082 141.896 41.8263 143.047C41.8177 143.546 41.7233 144.108 41.0459 144.236C40.3685 144.364 40.129 143.9 40.0399 143.38C39.8357 142.128 39.0114 141.176 38.5193 140.059C38.2733 139.494 37.7591 138.926 38.5992 138.352C39.4393 137.777 39.8492 138.438 40.2697 138.867C40.5251 139.156 40.7477 139.471 40.9342 139.807Z" fill="#888888"/>
</g>
</g>
<defs>
<filter id="filter0_d_451_1819" x="51.1699" y="7.71777" width="414.361" height="262.707" filterUnits="userSpaceOnUse" color-interpolation-filters="sRGB">
<feFlood flood-opacity="0" result="BackgroundImageFix"/>
<feColorMatrix in="SourceAlpha" type="matrix" values="0 0 0 0 0 0 0 0 0 0 0 0 0 0 0 0 0 0 127 0" result="hardAlpha"/>
<feOffset dy="4"/>
<feGaussianBlur stdDeviation="2"/>
<feComposite in2="hardAlpha" operator="out"/>
<feColorMatrix type="matrix" values="0 0 0 0 0 0 0 0 0 0 0 0 0 0 0 0 0 0 0.25 0"/>
<feBlend mode="normal" in2="BackgroundImageFix" result="effect1_dropShadow_451_1819"/>
<feBlend mode="normal" in="SourceGraphic" in2="effect1_dropShadow_451_1819" result="shape"/>
</filter>
<radialGradient id="paint0_radial_451_1819" cx="0" cy="0" r="1" gradientUnits="userSpaceOnUse" gradientTransform="translate(40.5438 124.021) rotate(83.5875) scale(17.1957 15.8126)">
<stop stop-color="white"/>
<stop offset="1" stop-color="#E0E0E0"/>
</radialGradient>
<clipPath id="clip0_451_1819">
<rect width="102" height="223" fill="white" transform="translate(0 86)"/>
</clipPath>
</defs>
</svg>
