<svg width="882" height="257" viewBox="0 0 882 257" fill="none" xmlns="http://www.w3.org/2000/svg">
<g id="SPACE JAM" filter="url(#filter0_d_1056_1645)">
<path d="M159.35 157C169.171 157 173.573 152.453 175.013 144.118L176.367 136.288C176.621 134.857 176.791 133.594 176.791 132.331C176.791 126.521 173.489 123.322 165.361 123.322H124.129C121.251 123.322 119.811 123.238 119.811 120.628C119.811 120.038 119.896 119.281 120.065 118.27L120.489 115.997C121.081 112.713 122.69 111.03 126.246 111.03H179.415L181.363 100H123.367C113.631 100 109.228 104.547 107.789 112.882L106.519 120.123C106.265 121.47 106.181 122.817 106.181 123.911C106.181 129.889 109.398 133.089 117.526 133.089H158.842C161.551 133.089 162.99 133.173 162.99 135.699C162.99 136.372 162.906 137.13 162.736 138.14L162.313 140.835C161.805 144.202 159.858 145.97 156.471 145.97H101.947L100 157H159.35Z" fill="white"/>
<path d="M243.353 142.855C253.09 142.855 257.408 138.73 259.101 128.879L261.895 112.882C262.149 111.451 262.318 110.188 262.318 109.009C262.318 103.115 259.016 100 250.889 100H190.862L180.786 157H194.079L196.619 142.855H243.353ZM246.147 126.69C245.47 130.394 243.946 132.078 240.39 132.078H198.481L202.207 111.03H244.115C246.909 111.03 248.349 111.282 248.349 113.808C248.349 114.397 248.264 115.155 248.095 115.997L246.147 126.69Z" fill="white"/>
<path d="M335.497 157L342.355 118.523C342.693 116.502 342.863 114.65 342.863 112.966C342.863 104.294 338.121 100 328.131 100H271.914L269.797 112.124H323.136C327.03 112.124 329.232 112.629 329.232 116.586C329.232 117.513 329.147 118.607 328.893 119.87L328.216 123.49H279.618C269.882 123.49 265.479 128.037 264.04 136.372L262.685 144.118C262.431 145.465 262.347 146.728 262.347 147.907C262.347 153.801 265.564 157 273.692 157H335.497ZM324.236 145.97H280.465C277.586 145.97 276.232 145.634 276.232 143.108C276.232 142.518 276.316 141.761 276.486 140.835L276.994 137.972C277.586 134.773 279.195 133.004 282.751 133.004H326.522L324.236 145.97Z" fill="white"/>
<path d="M413.585 157L415.787 144.792H366.258C362.279 144.792 360.162 144.371 360.162 140.498C360.162 139.572 360.247 138.477 360.501 137.13L363.549 119.87C364.48 114.65 367.104 112.124 372.015 112.124H421.544L423.66 100H371.253C359.231 100 352.627 106.146 350.426 118.523L346.87 138.477C346.531 140.498 346.362 142.35 346.362 144.034C346.362 152.706 351.103 157 361.178 157H413.585Z" fill="white"/>
<path d="M495.03 157L497.231 144.792H443.977C439.998 144.792 437.881 144.539 437.881 140.582C437.881 139.656 437.966 138.561 438.22 137.13L438.813 133.762H487.325C497.062 133.762 501.464 129.216 502.904 120.88L504.258 112.882C504.512 111.451 504.682 110.188 504.682 109.009C504.682 103.115 501.38 100 493.252 100H444.824C435.003 100 430.516 104.547 429.076 112.882L424.589 138.477C424.25 140.498 424.081 142.35 424.081 144.034C424.081 152.706 428.822 157 438.897 157H495.03ZM489.95 119.112C489.357 122.312 487.833 124.164 484.193 124.164H440.506L441.945 115.997C442.538 112.713 444.146 111.03 447.702 111.03H486.479C489.357 111.03 490.712 111.451 490.712 113.976C490.712 114.566 490.712 115.239 490.543 115.997L489.95 119.112Z" fill="white"/>
<path d="M571.531 157C583.554 157 590.158 150.854 592.359 138.477L599.132 100H585.84L579.321 137.13C578.389 142.182 575.595 144.792 570.854 144.792H535.803L533.602 157H571.531Z" fill="white"/>
<path d="M672.501 157L679.359 118.523C679.698 116.502 679.867 114.65 679.867 112.966C679.867 104.294 675.126 100 665.135 100H608.918L606.801 112.124H660.14C664.035 112.124 666.236 112.629 666.236 116.586C666.236 117.513 666.151 118.607 665.897 119.87L665.22 123.49H616.623C606.886 123.49 602.484 128.037 601.044 136.372L599.69 144.118C599.436 145.465 599.351 146.728 599.351 147.907C599.351 153.801 602.568 157 610.696 157H672.501ZM661.241 145.97H617.469C614.591 145.97 613.236 145.634 613.236 143.108C613.236 142.518 613.321 141.761 613.49 140.835L613.998 137.972C614.591 134.773 616.199 133.004 619.755 133.004H663.527L661.241 145.97Z" fill="white"/>
<path d="M774.634 157L781.492 118.523C781.831 116.586 782 114.818 782 113.134C782 104.462 777.259 100 767.184 100H691.324L681.249 157H694.542L702.5 112.124H729.254L721.296 157H734.503L742.462 112.124H762.273C766.083 112.124 768.284 112.629 768.284 116.586C768.284 117.513 768.2 118.607 767.946 119.87L761.342 157H774.634Z" fill="white"/>
</g>
<defs>
<filter id="filter0_d_1056_1645" x="0" y="0" width="882" height="257" filterUnits="userSpaceOnUse" color-interpolation-filters="sRGB">
<feFlood flood-opacity="0" result="BackgroundImageFix"/>
<feColorMatrix in="SourceAlpha" type="matrix" values="0 0 0 0 0 0 0 0 0 0 0 0 0 0 0 0 0 0 127 0" result="hardAlpha"/>
<feOffset/>
<feGaussianBlur stdDeviation="50"/>
<feComposite in2="hardAlpha" operator="out"/>
<feColorMatrix type="matrix" values="0 0 0 0 0.85098 0 0 0 0 0.658824 0 0 0 0 1 0 0 0 1 0"/>
<feBlend mode="normal" in2="BackgroundImageFix" result="effect1_dropShadow_1056_1645"/>
<feBlend mode="normal" in="SourceGraphic" in2="effect1_dropShadow_1056_1645" result="shape"/>
</filter>
</defs>
</svg>
