<svg width="128" height="130" viewBox="0 0 128 130" fill="none" xmlns="http://www.w3.org/2000/svg">
<g clip-path="url(#clip0_451_1597)">
<path d="M20.5549 32.3585C17.4394 35.2703 15.9056 39.1643 14.3402 42.9484C10.6893 51.6858 9.43017 61.2377 10.6923 70.6228C11.1905 74.458 12.0707 78.2339 13.3198 81.8941C16.6873 80.8628 20.0218 80.3135 23.3189 82.256C28.3492 85.2059 30.5552 90.0979 32.0221 95.2836C32.9751 98.7267 34.5397 101.196 37.6563 102.915C38.9183 103.533 39.9354 104.559 40.5435 105.826C41.1516 107.093 41.3154 108.528 41.0084 109.9C40.837 110.916 40.6108 111.916 40.4146 112.952C43.2842 115.31 46.7717 116.356 50.2236 117.373C60.1987 120.403 70.8588 120.333 80.793 117.172C91.0772 114.049 100.107 107.748 106.587 99.1723C114.261 89.3248 118.191 77.0724 117.675 64.598C117.295 51.2848 112.576 39.5375 103.942 29.3874C103.696 29.0981 103.49 28.7563 103.062 28.7041C102.207 33.8953 99.7929 38.0045 95.0314 40.6056C93.8054 41.2764 92.8282 42.3821 91.7054 43.2567C91.5494 43.3465 91.4158 43.4703 91.3146 43.619C91.2134 43.7677 91.1471 43.9374 91.1208 44.1154C91.0945 44.2933 91.1088 44.475 91.1627 44.6466C91.2166 44.8182 91.3087 44.9754 91.432 45.1064C92.493 46.612 93.0603 48.3648 94.6497 49.6156C96.9906 51.4612 96.9178 52.6605 95.0367 54.9726C93.9793 56.2785 92.8709 57.5517 91.883 58.9081C90.3592 61.0176 89.547 63.2411 90.2101 65.9955C90.8731 68.7499 91.5655 71.5052 93.0449 73.9854C94.6384 76.6525 94.4478 79.1121 92.6495 81.7348C90.7245 84.5459 90.3808 87.8719 90.6282 91.2289C90.964 95.7206 90.7762 100.123 88.935 104.347C87.3624 107.965 83.598 108.652 81.4187 105.413C78.8045 101.523 75.4691 98.2744 72.5865 94.6266C70.558 92.0404 69.7608 89.0744 69.3087 85.85C68.9076 82.9578 69.0586 79.9517 67.2197 77.3312C65.7733 75.2674 63.7644 74.0356 61.7153 72.8199C59.0479 71.2505 57.2462 68.8995 55.7563 66.3047C54.1523 63.5231 54.4785 62.7794 57.3687 61.3708C59.2105 60.4771 61.2439 60.0234 62.8542 58.5743C65.4721 56.2246 68.5067 54.6747 72.1648 54.9674C74.2476 55.1384 75.4036 54.0154 76.3171 52.4198C76.6158 51.7051 76.9757 51.0175 77.3927 50.3648C78.5137 49.0157 77.9733 48.1847 76.7123 47.4316C75.6522 46.795 74.6371 46.0975 73.5894 45.4509C70.6148 43.6129 68.1626 41.4266 67.0482 37.8801C66.1924 35.1461 66.2283 34.1448 68.4068 32.3225C68.7597 32.0332 69.094 31.7261 69.47 31.4756C71.0523 30.3978 72.2608 29.3144 71.5678 27.056C71.3669 26.1222 71.2323 25.1754 71.165 24.2226C70.4932 19.4978 70.3719 14.9518 75.3914 12.2284C72.6261 10.812 69.5641 10.739 66.5914 10.5077C60.0972 10.0411 53.5727 10.7798 47.3472 12.6865C44.9712 13.376 42.5363 14.0639 40.5808 15.8372C41.8802 19.3942 42.617 23.25 45.5909 25.95C47.4987 27.6861 49.4956 29.3296 51.5035 30.9561C52.268 31.5772 53.1836 32.1213 53.1243 33.2154C53.0657 36.0729 52.443 38.8906 51.2919 41.5066C49.84 44.5426 48.6537 44.7957 45.7795 43.016C45.1322 42.5876 44.4629 42.1932 43.7744 41.8345C43.4615 41.6683 43.1083 41.5926 42.7548 41.616C42.4012 41.6394 42.0611 41.761 41.7728 41.9671C40.1249 42.9789 38.3961 43.8551 36.6758 44.7367C36.2747 44.942 35.8312 45.0509 35.3806 45.0547C34.93 45.0585 34.4847 44.9571 34.0802 44.7586C32.0578 43.8718 30.2546 42.5521 28.7977 40.8925C27.6734 39.6241 26.1733 38.748 24.5162 38.3919C23.7152 38.2453 22.9791 37.855 22.4084 37.2742C21.8377 36.6935 21.4602 35.9506 21.3277 35.1473C21.0739 34.2241 20.8032 33.2901 20.5549 32.3585Z" fill="#A4DBE8"/>
<path d="M75.3506 12.2737C70.3312 14.9971 70.4525 19.5432 71.1243 24.2679C71.1916 25.2207 71.3262 26.1676 71.5271 27.1014C72.2201 29.3598 71.0177 30.471 69.4293 31.5209C69.0533 31.7715 68.719 32.0786 68.3661 32.3679C66.1736 34.1932 66.1502 35.1845 67.0075 37.9254C68.1219 41.4719 70.5741 43.6583 73.5487 45.4962C74.5964 46.1428 75.6115 46.8404 76.6716 47.477C77.9326 48.2301 78.4799 49.0596 77.352 50.4102C76.935 51.0629 76.5751 51.7504 76.2764 52.4651C75.3629 54.0608 74.2069 55.1838 72.1241 55.0128C68.466 54.72 65.4314 56.27 62.8135 58.6196C61.2032 60.0688 59.1698 60.5224 57.328 61.4161C54.4378 62.8248 54.1495 63.5747 55.7156 66.35C57.2055 68.9448 58.9933 71.299 61.6745 72.8653C63.7237 74.081 65.7326 75.3128 67.179 77.3766C69.0179 79.997 68.8669 83.0031 69.268 85.8954C69.7125 89.0849 70.5096 92.0509 72.5458 94.6719C75.4214 98.3213 78.7638 101.569 81.378 105.458C83.5503 108.699 87.3217 108.01 88.8943 104.392C90.7355 100.168 90.9233 95.7659 90.5875 91.2742C90.3401 87.9173 90.6838 84.5913 92.6088 81.7801C94.4071 79.1575 94.5976 76.6978 93.0042 74.0308C91.5248 71.5506 90.8385 68.8232 90.1693 66.0409C89.5002 63.2586 90.3185 61.063 91.8423 58.9535C92.8302 57.5971 93.934 56.3029 94.996 55.018C96.8771 52.7059 96.9498 51.5065 94.609 49.6609C93.0196 48.4101 92.4383 46.6604 91.3913 45.1517C91.268 45.0208 91.1759 44.8636 91.122 44.6919C91.0681 44.5203 91.0538 44.3387 91.0801 44.1607C91.1064 43.9828 91.1727 43.8131 91.2739 43.6644C91.3751 43.5157 91.5087 43.3918 91.6647 43.3021C92.7875 42.4274 93.7647 41.3218 94.9907 40.6509C99.7521 38.0499 102.171 33.9616 103.021 28.7494C103.008 28.367 102.911 27.9921 102.737 27.6516C102.562 27.3111 102.315 27.0133 102.012 26.7796C94.9529 20.3451 87.0358 15.3918 77.8074 12.6841C77.0334 12.3517 76.1906 12.211 75.3506 12.2737Z" fill="#439A6B"/>
<path d="M20.5549 32.3585C20.8032 33.2901 21.0739 34.2241 21.3029 35.1673C21.4354 35.9707 21.8128 36.7135 22.3835 37.2943C22.9542 37.875 23.6904 38.2654 24.4913 38.4119C26.1485 38.7681 27.6486 39.6442 28.7729 40.9126C30.2298 42.5721 32.033 43.8918 34.0554 44.7787C34.4599 44.9772 34.9052 45.0785 35.3558 45.0747C35.8064 45.0709 36.2499 44.9621 36.651 44.7568C38.3713 43.8752 40.1001 42.999 41.748 41.9871C42.0363 41.7811 42.3763 41.6595 42.7299 41.6361C43.0835 41.6127 43.4366 41.6883 43.7496 41.8546C44.4381 42.2133 45.1074 42.6076 45.7547 43.0361C48.601 44.8218 49.7873 44.5688 51.2671 41.5266C52.4182 38.9106 53.0409 36.0929 53.0995 33.2354C53.1588 32.1413 52.2432 31.5972 51.4787 30.9762C49.4708 29.3497 47.4738 27.7062 45.5661 25.9701C42.5921 23.27 41.8553 19.4142 40.5559 15.8572C34.644 17.7758 29.9467 21.568 25.6746 25.8658C23.6263 27.7372 21.897 29.9302 20.5549 32.3585Z" fill="#439A6B"/>
<path d="M40.3824 112.937C40.5831 111.922 40.8094 110.922 40.9761 109.885C41.2831 108.513 41.1194 107.078 40.5113 105.811C39.9031 104.544 38.8861 103.519 37.624 102.9C34.5074 101.181 32.9383 98.691 31.9899 95.2687C30.5508 90.0769 28.3169 85.1911 23.2867 82.2412C19.9896 80.2987 16.655 80.848 13.2876 81.8794C13.4765 85.103 15.1869 87.7371 16.7573 90.3654C21.4336 98.1921 27.1315 105.115 34.8478 110.186C36.5241 111.409 38.3954 112.339 40.3824 112.937Z" fill="#439A6B"/>
<g filter="url(#filter0_df_451_1597)">
<path d="M32.0352 45.8575C32.542 48.1668 34.825 49.6279 37.1343 49.121C39.4435 48.6141 40.9047 46.3312 40.3978 44.0219C39.8909 41.7126 37.6079 40.2515 35.2987 40.7584C32.9894 41.2653 31.5283 43.5482 32.0352 45.8575Z" fill="#E7FAFF"/>
</g>
<g filter="url(#filter1_df_451_1597)">
<path d="M26.579 60.934C28.691 70.556 38.2033 76.644 47.8253 74.532C57.4473 72.42 63.5353 62.9077 61.4233 53.2857C59.3113 43.6637 49.799 37.5757 40.177 39.6877C30.555 41.7997 24.467 51.312 26.579 60.934Z" fill="white" fill-opacity="0.4" shape-rendering="crispEdges"/>
</g>
</g>
<defs>
<filter id="filter0_df_451_1597" x="21.9346" y="30.658" width="32.5635" height="32.5635" filterUnits="userSpaceOnUse" color-interpolation-filters="sRGB">
<feFlood flood-opacity="0" result="BackgroundImageFix"/>
<feColorMatrix in="SourceAlpha" type="matrix" values="0 0 0 0 0 0 0 0 0 0 0 0 0 0 0 0 0 0 127 0" result="hardAlpha"/>
<feOffset dx="4" dy="4"/>
<feGaussianBlur stdDeviation="5"/>
<feComposite in2="hardAlpha" operator="out"/>
<feColorMatrix type="matrix" values="0 0 0 0 1 0 0 0 0 0.875 0 0 0 0 0.875 0 0 0 0.25 0"/>
<feBlend mode="normal" in2="BackgroundImageFix" result="effect1_dropShadow_451_1597"/>
<feBlend mode="normal" in="SourceGraphic" in2="effect1_dropShadow_451_1597" result="shape"/>
<feGaussianBlur stdDeviation="5" result="effect2_foregroundBlur_451_1597"/>
</filter>
<filter id="filter1_df_451_1597" x="16.1606" y="29.269" width="59.6812" height="59.6814" filterUnits="userSpaceOnUse" color-interpolation-filters="sRGB">
<feFlood flood-opacity="0" result="BackgroundImageFix"/>
<feColorMatrix in="SourceAlpha" type="matrix" values="0 0 0 0 0 0 0 0 0 0 0 0 0 0 0 0 0 0 127 0" result="hardAlpha"/>
<feOffset dx="4" dy="4"/>
<feGaussianBlur stdDeviation="5"/>
<feComposite in2="hardAlpha" operator="out"/>
<feColorMatrix type="matrix" values="0 0 0 0 1 0 0 0 0 0.875 0 0 0 0 0.875 0 0 0 0.25 0"/>
<feBlend mode="normal" in2="BackgroundImageFix" result="effect1_dropShadow_451_1597"/>
<feBlend mode="normal" in="SourceGraphic" in2="effect1_dropShadow_451_1597" result="shape"/>
<feGaussianBlur stdDeviation="5" result="effect2_foregroundBlur_451_1597"/>
</filter>
<clipPath id="clip0_451_1597">
<rect width="107" height="109.554" fill="white" transform="matrix(-0.976747 0.214396 0.214396 0.976747 104.512 0)"/>
</clipPath>
</defs>
</svg>
