<svg  width="141" height="141" viewBox="0 0 141 141" fill="none" xmlns="http://www.w3.org/2000/svg">
        <g clip-path="url(#clip0_451:1682)">
            <path d="M41.6743 16.2017C41.6743 16.2725 41.7362 16.4054 41.7805 16.4142C45.9566 16.7419 48.7259 20.3999 52.8224 21.0553C54.9673 21.445 56.9896 22.3373 58.7239 23.6593C59.237 24.0402 59.9183 24.297 59.8387 25.0764C59.7722 25.4406 59.5832 25.771 59.3031 26.0127C59.0231 26.2544 58.6688 26.3928 58.2992 26.405C56.7331 26.6619 55.1936 27.2907 53.5568 27.0693C52.4345 27.0681 51.3187 27.2384 50.2478 27.5741C49.301 27.7424 48.9825 28.4067 49.363 29.1596C50.4247 31.117 51.336 33.3932 53.8488 33.8538C56.3615 34.3144 58.6354 33.8981 60.3695 31.737C62.8735 28.6193 65.6782 28.3093 68.9607 30.6741C72.2432 33.039 75.2956 35.6252 79.0294 37.2195C79.9672 37.6358 81.1351 38.3886 81.9137 37.4409C82.7985 36.3604 81.7899 35.3241 81.082 34.4915C80.2504 33.5084 79.2152 32.7201 78.4277 31.6927C78.0255 31.2933 77.7581 30.7781 77.6629 30.2191C77.5678 29.66 77.6496 29.0852 77.8969 28.575C78.472 27.459 79.4806 27.645 80.4273 27.6893C82.9135 27.6893 84.8512 28.8318 87.1251 29.9655C93.3981 33.163 99.388 37.0069 106.103 39.3186C107.271 39.7261 108.988 39.8058 108.997 41.4C108.964 42.1379 108.701 42.8471 108.246 43.4283C107.791 44.0096 107.165 44.4338 106.457 44.6417C103.502 45.678 100.653 46.9269 97.7865 48.1846C95.7427 49.0703 93.7432 47.6089 91.6905 47.3609C86.0634 46.6789 80.4627 45.7755 74.8798 45.0492C73.7696 44.9149 72.6931 44.5787 71.7035 44.0572C70.4562 43.3737 69.0534 43.0251 67.6317 43.0453C66.2099 43.0655 64.8176 43.4537 63.5901 44.1723C64.2006 45.1732 65.2181 45.492 66.0852 45.9437C66.634 46.2067 67.1243 46.5775 67.5271 47.0339C67.9298 47.4904 68.2368 48.0233 68.4298 48.6009C70.5267 55.3677 74.2958 55.6865 79.4275 55.1551C84.2849 54.6857 89.16 54.2162 94.0351 54.7742C94.8813 54.8508 95.6875 55.1696 96.3575 55.6927C97.0274 56.2157 97.5328 56.9208 97.8131 57.7237C98.636 59.7342 98.0697 60.5579 95.9463 60.9388C93.115 61.4525 90.6376 63.0733 87.7444 63.5162C80.9494 64.5525 74.4197 66.935 67.5539 67.6081C62.5461 68.1041 57.4586 67.2716 55.1671 61.2753C54.9276 60.6319 54.4978 60.0769 53.935 59.6844C53.3722 59.2919 52.7032 59.0807 52.0173 59.0788C48.1184 58.7068 44.2107 58.3938 40.2941 58.1399C39.7667 58.086 39.2358 58.201 38.7778 58.4684C38.3199 58.7358 37.9586 59.1418 37.7459 59.6279C37.2416 60.6819 36.6488 61.7979 35.2597 61.355C33.6937 60.859 31.9949 60.4251 31.464 58.4411C31.0216 56.8291 31.1721 55.1462 30.3404 53.552C28.5089 50.0091 25.0317 48.5034 22.1031 46.3689C20.0239 44.8543 18.1394 42.826 15.2727 42.6312C16.4936 39.0776 18.3261 35.7653 20.6875 32.8441C25.9961 26.4493 32.0568 20.9225 39.4358 16.9811C40.1562 16.6523 40.9056 16.3914 41.6743 16.2017Z" fill="#D33A0A" />
            <path d="M41.6743 16.2017C41.6743 16.2725 41.7362 16.4054 41.7805 16.4142C45.9566 16.7419 48.7259 20.3999 52.8224 21.0553C54.9673 21.445 56.9896 22.3373 58.7239 23.6593C59.237 24.0402 59.9183 24.297 59.8387 25.0764C59.7722 25.4406 59.5832 25.771 59.3031 26.0127C59.0231 26.2544 58.6688 26.3928 58.2992 26.405C56.7331 26.6619 55.1936 27.2907 53.5568 27.0693C52.4345 27.0681 51.3187 27.2384 50.2478 27.5741C49.301 27.7424 48.9825 28.4067 49.363 29.1596C50.4247 31.117 51.336 33.3932 53.8488 33.8538C56.3615 34.3144 58.6354 33.8981 60.3695 31.737C62.8735 28.6193 65.6782 28.3093 68.9607 30.6741C72.2432 33.039 75.2956 35.6252 79.0294 37.2195C79.9672 37.6358 81.1351 38.3886 81.9137 37.4409C82.7985 36.3604 81.7899 35.3241 81.082 34.4915C80.2504 33.5084 79.2152 32.7201 78.4277 31.6927C78.0255 31.2933 77.7581 30.7781 77.6629 30.2191C77.5678 29.66 77.6496 29.0852 77.8969 28.575C78.472 27.459 79.4806 27.645 80.4273 27.6893C82.9135 27.6893 84.8512 28.8318 87.1251 29.9655C93.3981 33.163 99.388 37.0069 106.103 39.3186C107.271 39.7261 108.988 39.8058 108.997 41.4C108.964 42.1379 108.701 42.8471 108.246 43.4283C107.791 44.0096 107.165 44.4338 106.457 44.6417C103.502 45.678 100.653 46.9269 97.7865 48.1846C95.7427 49.0703 93.7432 47.6089 91.6905 47.3609C86.0634 46.6789 80.4627 45.7755 74.8798 45.0492C73.7696 44.9149 72.6931 44.5787 71.7035 44.0572C70.4562 43.3737 69.0534 43.0251 67.6317 43.0453C66.2099 43.0655 64.8176 43.4537 63.5901 44.1723C64.2006 45.1732 65.2181 45.492 66.0852 45.9437C66.634 46.2067 67.1243 46.5775 67.5271 47.0339C67.9298 47.4904 68.2368 48.0233 68.4298 48.6009C70.5267 55.3677 74.2958 55.6865 79.4275 55.1551C84.2849 54.6857 89.16 54.2162 94.0351 54.7742C94.8813 54.8508 95.6875 55.1696 96.3575 55.6927C97.0274 56.2157 97.5328 56.9208 97.8131 57.7237C98.636 59.7342 98.0697 60.5579 95.9463 60.9388C93.115 61.4525 90.6376 63.0733 87.7444 63.5162C80.9494 64.5525 74.4197 66.935 67.5539 67.6081C62.5461 68.1041 57.4586 67.2716 55.1671 61.2753C54.9276 60.6319 54.4978 60.0769 53.935 59.6844C53.3722 59.2919 52.7032 59.0807 52.0173 59.0788C48.1184 58.7068 44.2107 58.3938 40.2941 58.1399C39.7667 58.086 39.2358 58.201 38.7778 58.4684C38.3199 58.7358 37.9586 59.1418 37.7459 59.6279C37.2416 60.6819 36.6488 61.7979 35.2597 61.355C33.6937 60.859 31.9949 60.4251 31.464 58.4411C31.0216 56.8291 31.1721 55.1462 30.3404 53.552C28.5089 50.0091 25.0317 48.5034 22.1031 46.3689C20.0239 44.8543 18.1394 42.826 15.2727 42.6312C16.4936 39.0776 18.3261 35.7653 20.6875 32.8441C25.9961 26.4493 32.0568 20.9225 39.4358 16.9811C40.1562 16.6523 40.9056 16.3914 41.6743 16.2017Z" fill="url(#paint0_radial_451:1682)" fill-opacity="0.2" />
            <path d="M42.4263 125.773C42.4928 125.558 42.6043 125.359 42.7533 125.191C42.9023 125.023 43.0854 124.888 43.2904 124.796C43.4954 124.703 43.7177 124.656 43.9425 124.656C44.1673 124.657 44.3893 124.705 44.594 124.798C46.7263 125.542 48.6816 124.683 50.7078 124.409C51.9818 124.232 52.3004 123.877 51.7872 122.566C50.4423 119.13 50.9024 118.607 54.6185 118.439C57.8479 118.288 60.9976 119.041 64.2094 118.97C65.5631 118.97 66.324 118.652 65.2888 117.155C64.2536 115.658 65.0765 114.737 66.5363 114.329C68.6067 113.762 70.7213 113.328 72.8094 112.824C73.5968 112.638 74.5258 112.478 74.4197 111.398C74.3135 110.317 73.3403 110.512 72.7121 110.361C69.3057 109.617 66.0586 110.786 62.7584 111.362C58.1222 112.168 53.7071 113.922 48.9382 114.276C45.0718 114.56 41.8601 113.151 38.9492 110.99C37.8078 110.158 38.3121 108.82 38.6129 107.633C39.6658 103.577 39.6216 103.683 35.5693 102.319C31.9449 100.993 28.5684 99.0681 25.5802 96.624C23.5806 95.1094 23.2268 92.7092 23.3506 90.2912C23.3855 89.8419 23.5494 89.4122 23.8225 89.054C24.0956 88.6957 24.4664 88.4241 24.8901 88.2718C28.4292 86.8989 32.0833 85.7918 35.7374 87.7581C39.1904 89.6365 42.86 91.0851 46.6644 92.0715C49.823 92.8775 52.4331 94.8703 55.2113 96.4291C60.0475 99.1484 65.6592 100.153 71.1372 99.2811C75.8884 98.67 80.6485 98.1651 85.3732 97.3592C87.9838 96.8027 90.4158 95.6067 92.4513 93.8783C96.7336 90.61 102.529 92.3549 105.449 96.1723C105.995 96.9285 106.315 97.8248 106.372 98.7565C106.428 99.6882 106.218 100.617 105.767 101.433C104.609 104.282 102.56 106.678 99.9277 108.262C97.36 109.612 95.2368 111.676 93.8139 114.205C92.3621 116.635 90.1375 118.506 87.4966 119.52C85.2316 120.52 83.6921 121.867 83.9575 124.834C84.1433 127.163 83.0727 129.324 81.604 131.211C72.8571 133.733 63.5488 133.517 54.9281 130.591C50.6547 129.245 46.1512 128.501 42.4263 125.773Z" fill="#D33A0A" />
            <path d="M129.461 94.764C126.126 95.1715 122.764 95.5877 119.455 94.764C116.933 94.1529 116.234 92.8598 116.8 90.3355C117.086 89.375 117.095 88.353 116.826 87.3876C116.557 86.4222 116.02 85.5527 115.279 84.8795C113.828 83.3844 112.524 81.7531 111.386 80.0081C109.43 77.2093 107.997 76.5893 104.679 77.6699C99.2819 79.4413 94.0617 81.6821 88.4699 82.869C85.1141 83.5874 81.7154 84.0873 78.295 84.3658C77.5702 84.4359 76.8413 84.2805 76.208 83.9207C75.5746 83.5608 75.0676 83.0142 74.756 82.3553C74.1278 80.9382 74.9063 79.6982 75.8884 78.6707C80.8609 73.2679 87.0897 70.0085 93.982 67.7322C100.06 65.7217 106.369 65.7483 112.642 64.8891C114.735 64.7072 116.711 63.8457 118.269 62.4357C119.879 60.8768 120.039 58.946 118.446 57.3606C116.853 55.7752 117.004 54.4732 118.181 52.9321C120.101 50.4344 120.224 47.5735 119.711 44.6684C119.37 42.8692 119.73 41.0075 120.718 39.4658C121.705 37.924 123.244 36.8192 125.02 36.3782C127.674 38.7873 128.506 42.2239 129.948 45.2973C133.576 53.0472 134.956 61.364 135.009 69.7782C135.181 78.431 133.279 86.9991 129.461 94.764Z" fill="#D33A0A" />
            <path d="M8.78732 57.0505C13.919 57.6705 15.3346 59.628 14.3171 64.6676C13.919 66.625 13.5651 68.5913 13.1935 70.5576C13.0519 71.3193 13.0696 72.1873 13.9013 72.3733C14.8745 72.6036 14.848 71.5673 15.1223 70.9384C17.7235 64.889 19.2011 64.0299 24.5717 66.5099C28.2081 68.1839 32.1188 68.485 35.9498 69.2379C40.4799 70.1236 44.7356 72.1519 49.4603 72.3644C51.2298 72.453 51.8403 74.685 51.0706 77.1384C49.7788 81.2835 47.1776 82.6564 42.9838 81.3544C38.6634 80.1394 34.4637 78.5295 30.4377 76.545C27.9161 75.2164 25.191 75.2873 22.4747 75.3581C22.1537 75.3522 21.8367 75.431 21.5556 75.5865C21.2745 75.7419 21.0392 75.9686 20.8733 76.2438C19.3692 78.5112 17.3342 80.5749 16.4494 83.0549C15.2019 86.4029 12.9104 87.2975 9.84905 87.4835C7.69414 83.2806 6.74186 78.5632 7.09742 73.8524C7.33631 68.2459 7.07086 62.5419 8.78732 57.0505Z" fill="#D33A0A" />
            <path d="M121.304 31.4359C119.127 33.2073 116.499 33.1099 114.022 32.7822C111.513 32.5019 109.093 31.6874 106.925 30.3935C104.756 29.0996 102.889 27.3561 101.449 25.2803C98.8392 21.578 94.672 20.6569 90.7436 19.4257C87.3386 18.2823 83.7991 17.5885 80.2148 17.362C75.4016 17.1406 73.2251 12.3843 73.0393 8.33666C75.6936 7.45095 78.2595 8.58465 80.8253 8.93008C91.8745 10.2751 102.381 14.4853 111.306 21.144C115.251 23.9202 118.642 27.4109 121.304 31.4359Z" fill="#D33A0A" />
            <path d="M42.4263 125.773C38.0733 124.364 34.4634 121.698 30.9243 118.926C20.6612 111.029 13.2523 99.9961 9.82248 87.5011C12.8749 87.2886 15.1311 86.394 16.4229 83.0726C17.3076 80.5926 19.378 78.5289 20.8467 76.2615C21.0127 75.9863 21.248 75.7596 21.5291 75.6041C21.8101 75.4487 22.1271 75.3699 22.4482 75.3758C25.1821 75.3049 27.9072 75.2341 30.4111 76.5626C34.4371 78.5472 38.6368 80.1571 42.9572 81.372C47.151 82.674 49.7522 81.3012 51.044 77.1561C51.8138 74.7027 51.2121 72.4707 49.4337 72.3821C44.709 72.1695 40.4533 70.1501 35.9233 69.2555C32.0922 68.5027 28.1815 68.2016 24.5451 66.5276C19.1745 64.0564 17.6969 64.9156 15.0957 70.9561C14.8214 71.585 14.848 72.6212 13.8747 72.391C13.043 72.205 12.99 71.3369 13.1669 70.5752C13.5385 68.609 13.8924 66.6427 14.2906 64.6853C15.3081 59.6456 13.8924 57.6882 8.76074 57.0682C9.9021 53.9239 10.9727 50.7442 12.2114 47.6354C12.9369 45.8197 13.5562 43.88 15.2019 42.5957C18.0685 42.7551 19.9531 44.8189 22.0323 46.3334C24.9609 48.468 28.4381 50.0003 30.2696 53.5165C31.1012 55.1108 30.9508 56.7936 31.3932 58.4056C31.9241 60.3896 33.6229 60.8236 35.1889 61.3196C36.578 61.7625 37.1708 60.6465 37.6751 59.5925C37.8878 59.1063 38.2491 58.7003 38.707 58.4329C39.165 58.1655 39.6958 58.0505 40.2232 58.1045C44.1339 58.3525 48.0417 58.6654 51.9465 59.0433C52.6324 59.0452 53.3014 59.2565 53.8642 59.649C54.427 60.0414 54.8569 60.5965 55.0963 61.2399C57.3878 67.2361 62.4753 68.0687 67.4831 67.5727C74.3489 66.8996 80.8785 64.517 87.6736 63.4807C90.5756 63.0379 93.0442 61.417 95.8754 60.9033C97.9989 60.5225 98.5297 59.6988 97.7423 57.6882C97.462 56.8853 96.9566 56.1802 96.2867 55.6572C95.6167 55.1342 94.8105 54.8153 93.9643 54.7388C89.0715 54.1808 84.2319 54.6502 79.3568 55.1196C74.2251 55.6156 70.4559 55.3322 68.359 48.5654C68.166 47.9878 67.859 47.4549 67.4562 46.9985C67.0535 46.542 66.5631 46.1712 66.0144 45.9083C65.1296 45.43 64.1298 45.1111 63.5193 44.1368C64.7467 43.4183 66.1391 43.03 67.5608 43.0098C68.9826 42.9897 70.3854 43.3383 71.6327 44.0217C72.6223 44.5432 73.6987 44.8794 74.809 45.0137C80.4362 45.74 86.0368 46.6434 91.6197 47.3254C93.6724 47.5734 95.672 49.026 97.7158 48.1491C100.582 46.9091 103.431 45.6603 106.387 44.6063C107.095 44.3984 107.72 43.9741 108.175 43.3929C108.63 42.8116 108.893 42.1025 108.926 41.3646C108.926 39.7703 107.156 39.6906 106.033 39.2832C99.3172 36.9715 93.3273 33.1275 87.0542 29.9301C84.8158 28.7964 82.8427 27.6804 80.3565 27.6538C79.4098 27.6538 78.4012 27.459 77.8261 28.5395C77.5787 29.0497 77.4969 29.6246 77.5921 30.1836C77.6873 30.7426 77.9548 31.2579 78.357 31.6572C79.1444 32.6581 80.1796 33.4729 81.0113 34.4561C81.7191 35.2886 82.7808 36.3249 81.843 37.4055C81.0644 38.3532 79.8965 37.6003 78.9586 37.1841C75.2602 35.5455 72.1459 32.9769 68.8987 30.6387C65.6516 28.3004 62.8115 28.5838 60.3076 31.7015C58.538 33.8627 56.2465 34.2612 53.7868 33.8184C51.3271 33.3755 50.3627 31.0815 49.301 29.1241C48.894 28.3713 49.2125 27.707 50.1858 27.5387C51.2567 27.2029 52.3726 27.0327 53.4948 27.0338C55.1317 27.2198 56.6712 26.6264 58.2372 26.3695C58.6068 26.3574 58.9611 26.2189 59.2412 25.9772C59.5213 25.7355 59.7102 25.4051 59.7767 25.041C59.8563 24.2616 59.1751 24.0047 58.6619 23.6239C56.9276 22.3018 54.9053 21.4095 52.7605 21.0199C48.664 20.3644 45.8946 16.7065 41.7185 16.3788C41.6743 16.3788 41.6477 16.2371 41.6123 16.1662C43.8862 13.8988 46.921 13.1814 49.8142 12.1274C57.2132 9.34435 65.0865 8.04428 72.9864 8.3011C73.1722 12.3488 75.3487 17.105 80.1619 17.3265C83.7462 17.553 87.2857 18.2467 90.6907 19.3902C94.6191 20.6213 98.7863 21.5424 101.396 25.2447C102.836 27.3206 104.703 29.064 106.872 30.358C109.04 31.6519 111.46 32.4663 113.969 32.7467C116.446 33.0744 119.074 33.1807 121.251 31.4004C122.708 32.8707 123.959 34.5335 124.967 36.3426C123.191 36.7836 121.652 37.8885 120.664 39.4302C119.677 40.972 119.317 42.8336 119.658 44.6329C120.171 47.538 120.047 50.3988 118.127 52.8965C116.951 54.4288 116.853 55.8016 118.393 57.3251C119.932 58.8485 119.826 60.8679 118.216 62.4002C116.658 63.8102 114.682 64.6717 112.589 64.8536C106.395 65.7393 100.007 65.6861 93.9289 67.6967C87.0366 69.973 80.8077 73.2324 75.8353 78.6352C74.8532 79.698 74.0658 80.9026 74.7028 82.3197C75.0144 82.9787 75.5215 83.5253 76.1549 83.8851C76.7882 84.2449 77.5171 84.4004 78.2419 84.3303C81.6623 84.0518 85.061 83.5518 88.4168 82.8334C94.0086 81.6466 99.2287 79.3792 104.626 77.6343C107.944 76.5538 109.377 77.1738 111.332 79.9726C112.471 81.7175 113.775 83.3488 115.225 84.844C115.967 85.5172 116.504 86.3867 116.773 87.3521C117.042 88.3175 117.033 89.3395 116.747 90.3C116.19 92.8508 116.889 94.1439 119.402 94.7285C122.711 95.5345 126.073 95.1182 129.408 94.7285C123.958 107.128 115.128 116.428 103.608 123.284C96.8693 127.444 89.3343 130.144 81.489 131.211C82.9135 129.324 84.0283 127.163 83.8425 124.834C83.6125 121.902 85.152 120.556 87.3816 119.519C90.0225 118.506 92.2471 116.635 93.6989 114.205C95.1218 111.676 97.245 109.612 99.8127 108.262C102.445 106.678 104.494 104.282 105.652 101.433C106.104 100.617 106.313 99.6881 106.257 98.7564C106.2 97.8248 105.88 96.9284 105.334 96.1722C102.414 92.3548 96.6186 90.61 92.3363 93.8782C90.3008 95.6066 87.8688 96.8026 85.2582 97.3591C80.5335 98.1651 75.7734 98.6699 71.0222 99.281C65.5442 100.153 59.9325 99.1483 55.0963 96.4291C52.3181 94.8702 49.708 92.8862 46.5494 92.0714C42.745 91.085 39.0754 89.6365 35.6224 87.758C31.9683 85.7917 28.3142 86.8723 24.7751 88.2717C24.3514 88.424 23.9807 88.6956 23.7076 89.0539C23.4344 89.4122 23.2705 89.8418 23.2356 90.2911C23.1118 92.7091 23.4657 95.1094 25.4652 96.6239C28.4534 99.0681 31.83 100.993 35.4543 102.319C39.5066 103.648 39.5508 103.541 38.498 107.633C38.1971 108.82 37.6928 110.158 38.8342 110.99C41.7805 113.151 44.9568 114.533 48.8232 114.276C53.5922 113.922 58.0072 112.168 62.6434 111.362C65.9436 110.786 69.1907 109.591 72.5971 110.361C73.2253 110.503 74.2162 110.45 74.3047 111.398C74.3932 112.345 73.4818 112.638 72.6944 112.824C70.6063 113.328 68.4917 113.762 66.4213 114.329C64.9615 114.737 64.0944 115.605 65.1738 117.155C66.2533 118.705 65.4481 118.926 64.0944 118.97C60.8827 119.041 57.7329 118.288 54.5035 118.439C50.8228 118.607 50.3273 119.13 51.6722 122.566C52.1854 123.877 51.8668 124.231 50.5928 124.409C48.5666 124.683 46.6113 125.542 44.479 124.798C44.2806 124.724 44.0693 124.691 43.8576 124.7C43.646 124.709 43.4384 124.76 43.247 124.851C43.0556 124.942 42.8844 125.07 42.7434 125.229C42.6025 125.387 42.4946 125.572 42.4263 125.773Z" fill="#B33209" />
            <g filter="url(#filter0_df_451:1682)">
                <path d="M106.979 44.314C106.979 47.249 104.603 49.6283 101.671 49.6283C98.7388 49.6283 96.3621 47.249 96.3621 44.314C96.3621 41.379 98.7388 38.9998 101.671 38.9998C104.603 38.9998 106.979 41.379 106.979 44.314Z" fill="#FEBBBB" fill-opacity="0.9" shape-rendering="crispEdges" />
            </g>
            <g filter="url(#filter1_df_451:1682)">
                <path d="M122.905 67.7853C122.905 87.1072 106.862 102.771 87.0718 102.771C67.2816 102.771 51.2385 87.1072 51.2385 67.7853C51.2385 48.4633 67.2816 32.7998 87.0718 32.7998C106.862 32.7998 122.905 48.4633 122.905 67.7853Z" fill="#D33A0A" fill-opacity="0.3" shape-rendering="crispEdges" />
            </g>
        </g>
        <circle cx="70.5" cy="70.5" r="70.5" fill="#121212" fill-opacity="0.45" />
        <defs>
            <filter id="filter0_df_451:1682" x="86.3621" y="28.9998" width="34.6172" height="34.6284" filterUnits="userSpaceOnUse" color-interpolation-filters="sRGB">
                <feFlood flood-opacity="0" result="BackgroundImageFix" />
                <feColorMatrix in="SourceAlpha" type="matrix" values="0 0 0 0 0 0 0 0 0 0 0 0 0 0 0 0 0 0 127 0" result="hardAlpha" />
                <feOffset dx="4" dy="4" />
                <feGaussianBlur stdDeviation="5" />
                <feComposite in2="hardAlpha" operator="out" />
                <feColorMatrix type="matrix" values="0 0 0 0 1 0 0 0 0 0.875 0 0 0 0 0.875 0 0 0 0.25 0" />
                <feBlend mode="normal" in2="BackgroundImageFix" result="effect1_dropShadow_451:1682" />
                <feBlend mode="normal" in="SourceGraphic" in2="effect1_dropShadow_451:1682" result="shape" />
                <feGaussianBlur stdDeviation="5" result="effect2_foregroundBlur_451:1682" />
            </filter>
            <filter id="filter1_df_451:1682" x="41.2385" y="22.7998" width="95.6665" height="93.9709" filterUnits="userSpaceOnUse" color-interpolation-filters="sRGB">
                <feFlood flood-opacity="0" result="BackgroundImageFix" />
                <feColorMatrix in="SourceAlpha" type="matrix" values="0 0 0 0 0 0 0 0 0 0 0 0 0 0 0 0 0 0 127 0" result="hardAlpha" />
                <feOffset dx="4" dy="4" />
                <feGaussianBlur stdDeviation="5" />
                <feComposite in2="hardAlpha" operator="out" />
                <feColorMatrix type="matrix" values="0 0 0 0 0.966667 0 0 0 0 0.675861 0 0 0 0 0.584028 0 0 0 0.1 0" />
                <feBlend mode="normal" in2="BackgroundImageFix" result="effect1_dropShadow_451:1682" />
                <feBlend mode="normal" in="SourceGraphic" in2="effect1_dropShadow_451:1682" result="shape" />
                <feGaussianBlur stdDeviation="5" result="effect2_foregroundBlur_451:1682" />
            </filter>
            <radialGradient id="paint0_radial_451:1682" cx="0" cy="0" r="1" gradientUnits="userSpaceOnUse" gradientTransform="translate(95.9197 33.6855) rotate(133.982) scale(72.6234 132.231)">
                <stop stop-color="#FF8A65" />
                <stop offset="1" stop-color="#D33A0A" />
            </radialGradient>
            <clipPath id="clip0_451:1682">
                <rect width="128" height="125" fill="white" transform="translate(7 8)" />
            </clipPath>
        </defs>
    </svg>
