<svg width="582" height="371" viewBox="0 0 582 371" fill="none" xmlns="http://www.w3.org/2000/svg">
<g id="spacejam-neptune" clip-path="url(#clip0_451_1604)">
<g id="Vector">
<path d="M137.391 192.915C138.485 153.151 150.803 117.496 177.54 87.7566C204.277 58.0175 238.202 40.3533 278.737 37.7572C323.973 34.7107 362.906 49.0283 395.19 81.0835C395.847 81.7324 397.147 81.7863 398.204 82.1292C401.496 90.501 407.697 96.5847 413.995 102.615C418.491 112.119 425.138 120.511 428.142 130.721C380.522 153.159 332.751 175.211 284.138 195.542C246.727 211.186 210.778 230.285 174.034 247.511C166.608 250.981 159.55 256.254 150.567 255.235C145.691 243.61 142.136 231.475 139.968 219.057C139.107 210.249 140.213 201.338 137.391 192.915Z" fill="#2C46A3"/>
<path d="M137.391 192.915C138.485 153.151 150.803 117.496 177.54 87.7566C204.277 58.0175 238.202 40.3533 278.737 37.7572C323.973 34.7107 362.906 49.0283 395.19 81.0835C395.847 81.7324 397.147 81.7863 398.204 82.1292C401.496 90.501 407.697 96.5847 413.995 102.615C418.491 112.119 425.138 120.511 428.142 130.721C380.522 153.159 332.751 175.211 284.138 195.542C246.727 211.186 210.778 230.285 174.034 247.511C166.608 250.981 159.55 256.254 150.567 255.235C145.691 243.61 142.136 231.475 139.968 219.057C139.107 210.249 140.213 201.338 137.391 192.915Z" fill="url(#paint0_radial_451_1604)" fill-opacity="0.8"/>
</g>
<path id="Vector_2" d="M137.391 192.915C140.208 201.399 139.107 210.249 139.917 218.928C118.806 229.221 98.3941 240.892 78.8146 253.864C70.2901 259.317 61.8374 264.776 53.4567 270.242C49.0594 273.205 45.6503 277.282 47.7612 282.876C49.8722 288.471 54.9489 286.252 59.3056 285.833C68.4914 285.06 77.5844 283.427 86.4649 280.955C107.519 274.85 127.236 265.269 147.736 257.716C148.393 257.491 148.989 257.116 149.476 256.62C149.963 256.124 150.327 255.521 150.539 254.859C159.521 255.878 166.457 250.594 174.005 247.136C210.75 229.91 246.699 210.81 284.11 195.166C332.72 174.867 380.491 152.815 428.114 130.346C448.804 121.349 469.576 112.484 490.16 103.292C501.793 98.4434 512.751 92.1113 522.76 84.4531C524.87 82.7462 527.386 80.6715 526.675 77.5011C525.963 74.3307 522.323 74.3787 519.7 74.1757C514.991 73.5829 510.228 73.5436 505.509 74.0587C479.64 78.486 454.42 86.1079 430.429 96.7492C425.103 98.9769 420.123 102.54 413.953 102.394C407.655 96.3633 401.454 90.2798 398.162 81.908C399.117 79.9116 401.17 79.5355 402.965 78.919C436.892 67.158 470.204 53.2295 506.185 48.7357C525.827 46.2633 545.664 43.3424 565.15 49.5865C581.552 54.8718 584.838 66.4432 574.614 80.3817C561.426 98.281 543.025 109.47 524.198 120.218C499.269 134.198 473.619 146.853 447.355 158.13C444.121 159.55 440.379 160.397 438.277 163.751C434.987 162.308 432.216 164.111 429.467 165.326C404.598 176.217 379.671 187.073 354.882 198.127C302.26 221.6 249.68 245.18 197.143 268.867C187.138 273.38 176.125 276.312 167.821 284.053C162.488 283.919 158.458 287.287 153.956 289.34C120.108 304.743 85.0354 316.122 47.8959 320.015C37.3348 321.557 26.5638 320.755 16.3476 317.666C8.02315 314.841 4.45546 307.812 3.37002 300.476C1.27568 286.339 4.31713 273.5 15.9913 263.512C35.6156 246.964 58.5835 235.778 79.7813 221.794C98.018 210 118.943 203.945 137.391 192.915Z" fill="#E8CBFF"/>
<path id="Vector_3" d="M167.841 284.179C176.128 276.281 187.13 273.473 197.163 268.993C249.666 245.22 302.246 221.64 354.902 198.253C379.691 187.199 404.618 176.344 429.486 165.452C432.236 164.237 435.007 162.434 438.297 163.877C444.715 203.379 437.855 240.547 416.542 274.281C389.72 316.813 350.791 341.798 300.706 345.903C246.793 350.412 202.963 329.35 169.227 287.099C168.664 286.177 168.199 285.198 167.841 284.179Z" fill="#2C46A3"/>
</g>
<defs>
<radialGradient id="paint0_radial_451_1604" cx="0" cy="0" r="1" gradientUnits="userSpaceOnUse" gradientTransform="translate(336.3 122.214) rotate(112.55) scale(56.768 70.1748)">
<stop stop-color="#587DFF"/>
<stop offset="1" stop-color="#2C46A3"/>
</radialGradient>
<clipPath id="clip0_451_1604">
<rect width="555.452" height="322.798" fill="white" transform="translate(28.6953) rotate(5.10003)"/>
</clipPath>
</defs>
</svg>
