<svg width="74" height="74" viewBox="0 0 74 74" fill="none" xmlns="http://www.w3.org/2000/svg">
<g id="testimonials-mercury-select">
<g id="Ellipse 72" filter="url(#filter0_d_451_1430)">
<circle cx="37" cy="37" r="22" fill="#FF8E70" fill-opacity="0.6" shape-rendering="crispEdges"/>
</g>
<g id="Mercury" clip-path="url(#clip0_451_1430)">
<path id="Vector" d="M18.3712 47.8841C17.4255 46.8176 17.0104 45.4774 16.5069 44.1823C16.245 43.4898 15.9014 42.7972 15.9456 42.0319C16.677 41.9626 17.2281 41.7895 16.9152 40.813C16.8853 40.5024 16.9481 40.1898 17.0955 39.9161C17.8772 38.0353 17.9868 35.9352 17.405 33.9807C17.0887 32.9142 16.7247 31.8476 15.7041 31.2104C16.16 28.2878 17.405 25.6941 19.0652 23.322C22.4092 18.5259 26.9167 15.4336 32.6285 14.3947C39.0683 13.2277 44.9433 14.6891 50.1414 18.7856C51.5396 19.884 52.7968 21.1567 53.8835 22.574C54.0331 22.7714 54.2237 22.9411 54.176 23.232C54.0706 25.1677 53.067 26.6013 51.7947 27.9588C50.5224 29.3162 50.3081 30.9819 50.8524 32.6995C51.2572 33.9738 51.4919 35.3139 52.1281 36.5086C52.2137 36.6921 52.2617 36.8914 52.2693 37.0944C52.2769 37.2974 52.2439 37.4998 52.1723 37.6895C52.0532 38.1292 51.9852 38.6348 52.4139 38.9984C53.0602 39.5421 53.7372 40.1065 54.6013 40.1031C55.3157 40.1031 55.6456 40.4736 55.962 40.9965C56.4383 41.7583 56.8499 42.6033 57.8603 42.7868C55.1626 51.5894 49.4474 56.9673 40.5107 58.6883C37.1088 59.3428 33.7681 58.9307 30.4853 57.8953C30.2029 57.8053 29.8661 57.8018 29.679 57.4971C29.847 57.0277 29.989 56.549 30.1043 56.0634C30.5159 53.9026 30.1893 52.1366 28.3557 50.9488C27.0324 50.09 25.7499 49.1654 24.4571 48.2581C22.4977 46.8765 20.4906 46.4159 18.3712 47.8841ZM34.1355 32.6995C34.2274 31.2243 33.564 30.2235 32.5604 29.4651C31.7239 28.8759 31.0992 28.0248 30.7813 27.0411C30.6371 26.5924 30.4418 26.1624 30.1995 25.7599C29.4375 24.4717 28.3727 23.8726 27.2433 24.1427C25.5117 24.5513 24.151 25.4725 23.3413 27.1554C22.8583 28.1666 22.7868 29.2539 22.5657 30.3205C21.7152 34.4413 24.9947 38.3751 28.0768 39.5144C29.8321 40.1654 30.8459 39.6702 31.4786 37.9076C31.6887 37.319 32.0009 36.7736 32.4006 36.2974C33.3089 35.217 34.3226 34.185 34.1355 32.6995ZM46.3823 50.5367C46.2803 48.1854 45.2699 47.1846 43.0178 47.4859C41.8714 47.6383 40.8304 48.1127 39.7316 48.4001C37.8572 48.8918 37.4251 49.3905 37.0679 51.354C36.9591 51.9461 37.0237 52.5521 36.84 53.1166C36.5645 53.9684 36.8944 54.5225 37.6088 54.8999C38.3412 55.286 39.1746 55.4266 39.9902 55.3016C41.3509 55.1146 42.5654 54.4532 43.8785 54.1242C45.7087 53.6706 46.3313 52.2855 46.3755 50.5367H46.3823ZM44.1099 28.8141C44.7025 28.847 45.2837 28.639 45.7257 28.2358C47.1579 27.0619 47.2192 25.3616 47.243 23.7133C47.2287 23.394 47.1191 23.0868 46.9289 22.8325C46.7386 22.5782 46.4768 22.389 46.1782 22.2901C45.3992 22.0027 44.6167 21.7222 43.8411 21.4313C43.5383 21.317 43.222 21.2374 42.9838 21.5109C42.2864 22.3143 41.6979 23.1454 41.8884 24.347C42.0789 25.5486 42.545 26.7503 42.8614 27.9553C42.9166 28.2355 43.0776 28.4824 43.3098 28.643C43.542 28.8036 43.8268 28.8651 44.103 28.8141H44.1099ZM43.6064 39.7672C43.9028 39.8016 44.2016 39.7265 44.4482 39.5555C44.6948 39.3845 44.873 39.1291 44.9501 38.8357C45.1474 38.2816 45.4978 37.6929 44.8413 37.1423C44.1847 36.5917 43.3444 36.4775 42.528 36.3736C42.2796 36.3424 42.1504 36.5225 42.0415 36.7199C41.5244 37.7206 42.6334 39.7395 43.5996 39.7672H43.6064ZM33.9552 43.4517C33.9728 43.3665 33.9729 43.2786 33.9555 43.1934C33.938 43.1082 33.9035 43.0276 33.8539 42.9567C33.8044 42.8858 33.741 42.8261 33.6677 42.7813C33.5943 42.7366 33.5127 42.7078 33.4279 42.6968C32.9891 42.6621 32.8326 43.0431 32.8428 43.4655C32.853 43.888 33.0265 44.2308 33.4517 44.2585C33.877 44.2862 33.9348 43.8949 33.9484 43.4517H33.9552ZM31.7304 19.4713C31.7304 19.0592 31.7304 18.6229 31.1521 18.6194C31.075 18.6091 30.9967 18.6182 30.9238 18.6458C30.851 18.6734 30.7859 18.7187 30.7343 18.7778C30.6826 18.8368 30.6459 18.9079 30.6274 18.9847C30.6089 19.0615 30.6092 19.1418 30.6282 19.2185C30.686 19.6167 30.8119 20.0357 31.2881 20.0981C31.7644 20.1604 31.7134 19.7933 31.7236 19.4713H31.7304Z" fill="#FF6737"/>
<path id="Vector_2" d="M57.8737 42.7835C56.8532 42.5999 56.4518 41.7446 55.9755 40.9931C55.6353 40.4703 55.3189 40.0963 54.6147 40.0997C53.7507 40.0997 53.0737 39.5387 52.4273 38.9951C51.9987 38.6315 52.0667 38.1259 52.1858 37.6861C52.2574 37.4965 52.2904 37.2941 52.2828 37.0911C52.2752 36.8881 52.2271 36.6888 52.1416 36.5053C51.5054 35.3071 51.2707 33.967 50.8659 32.6961C50.3216 30.9647 50.5631 29.2886 51.8082 27.9554C53.0533 26.6222 54.0772 25.1644 54.1895 23.2286C54.693 23.2286 54.9311 23.5749 55.1624 23.987C57.3949 27.8344 58.7104 32.161 59.0032 36.6195C59.129 38.3856 58.3976 40.0097 58.1629 41.7169C58.0983 42.0701 58.1561 42.4822 57.8737 42.7835Z" fill="#C84921"/>
<path id="Vector_3" d="M18.3711 47.8843C20.4905 46.416 22.4976 46.8766 24.4537 48.2548C25.7464 49.1621 27.0289 50.0867 28.3522 50.9454C30.1858 52.1332 30.5124 53.8993 30.1008 56.0601C29.9855 56.5457 29.8436 57.0243 29.6756 57.4937C28.4441 57.5595 27.4133 56.9431 26.4234 56.3614C23.4535 54.6126 21.0926 52.1678 19.0379 49.3975C18.6644 48.9773 18.431 48.4476 18.3711 47.8843Z" fill="#C84921"/>
<path id="Vector_4" d="M15.7147 31.2209C16.7352 31.865 17.0754 32.9315 17.4156 33.9912C17.9973 35.9456 17.8878 38.0458 17.106 39.9265C16.9587 40.2002 16.8958 40.5128 16.9257 40.8234C17.2387 41.7999 16.6876 41.9731 15.9562 42.0423C15.3898 41.3318 15.0768 40.4468 15.0683 39.5318C14.94 36.9074 15.0676 34.2766 15.4493 31.678C15.4595 31.5014 15.6194 31.3559 15.7147 31.2209Z" fill="#C84921"/>
<path id="Vector_5" d="M34.1356 32.6996C34.3227 34.1852 33.3089 35.2171 32.4142 36.2872C32.0146 36.7633 31.7024 37.3087 31.4923 37.8974C30.846 39.66 29.8322 40.1552 28.0904 39.5042C25.0083 38.3649 21.7289 34.4311 22.5794 30.3102C22.8005 29.2437 22.8719 28.1563 23.355 27.1452C24.1647 25.4622 25.5254 24.5411 27.257 24.1325C28.3864 23.8624 29.4512 24.4788 30.2132 25.7496C30.4555 26.1522 30.6507 26.5822 30.7949 27.0309C31.1128 28.0146 31.7376 28.8657 32.5741 29.4549C33.5641 30.2237 34.2274 31.221 34.1356 32.6996Z" fill="#C84921"/>
<path id="Vector_6" d="M46.3755 50.5366C46.3313 52.2854 45.6951 53.6705 43.8853 54.1241C42.5722 54.4531 41.3543 55.1145 39.997 55.3015C39.1814 55.4265 38.348 55.2859 37.6157 54.8998C36.9013 54.5224 36.5713 53.9683 36.8468 53.1164C37.0305 52.552 36.9659 51.946 37.0748 51.3538C37.4149 49.3904 37.864 48.8917 39.7384 48.4C40.8372 48.1126 41.8782 47.6382 43.0247 47.4858C45.2631 47.1845 46.2735 48.1888 46.3755 50.5366Z" fill="#C84921"/>
<path id="Vector_7" d="M44.1067 28.8143C43.8289 28.8682 43.5415 28.8083 43.3069 28.6474C43.0724 28.4865 42.9099 28.2378 42.8548 27.9555C42.5384 26.7504 42.0825 25.5904 41.8818 24.3472C41.6811 23.104 42.2799 22.3145 42.9772 21.5111C43.2154 21.2375 43.5318 21.3172 43.8345 21.4315C44.6102 21.7223 45.3926 22.0028 46.1716 22.2902C46.4702 22.3892 46.732 22.5784 46.9223 22.8327C47.1125 23.0869 47.2221 23.3942 47.2364 23.7135C47.2126 25.3618 47.1514 27.0621 45.7192 28.236C45.2782 28.6387 44.6982 28.8467 44.1067 28.8143Z" fill="#C84921"/>
<path id="Vector_8" d="M43.5999 39.7673C42.6338 39.7396 41.5248 37.7207 42.0351 36.7303C42.1439 36.5226 42.2732 36.3425 42.5215 36.3841C43.338 36.4879 44.1476 36.5745 44.8348 37.1528C45.522 37.7311 45.141 38.2921 44.9437 38.8461C44.8645 39.1376 44.6855 39.3907 44.4391 39.5596C44.1927 39.7285 43.895 39.8022 43.5999 39.7673Z" fill="#D33A0A"/>
<path id="Vector_9" d="M33.9483 43.4518C33.9483 43.895 33.9041 44.2898 33.4449 44.2586C32.9856 44.2275 32.8461 43.8777 32.8359 43.4656C32.8257 43.0535 32.9822 42.6622 33.421 42.6969C33.5058 42.7079 33.5875 42.7367 33.6608 42.7814C33.7341 42.8262 33.7975 42.8859 33.8471 42.9568C33.8966 43.0277 33.9312 43.1083 33.9486 43.1935C33.966 43.2787 33.9659 43.3666 33.9483 43.4518Z" fill="#D33A0A"/>
<path id="Vector_10" d="M31.7236 19.4713C31.7236 19.783 31.7236 20.1639 31.2813 20.0981C30.8391 20.0323 30.6792 19.6167 30.6214 19.2185C30.6024 19.1418 30.6021 19.0615 30.6206 18.9847C30.6391 18.9079 30.6758 18.8368 30.7275 18.7778C30.7791 18.7187 30.8442 18.6734 30.917 18.6458C30.9899 18.6182 31.0682 18.6091 31.1452 18.6194C31.71 18.6229 31.7134 19.0592 31.7236 19.4713Z" fill="#D33A0A"/>
<g id="Large" filter="url(#filter1_df_451_1430)">
<path d="M48.6787 32.3532C48.6787 37.3257 44.6425 41.3567 39.6637 41.3567C34.6848 41.3567 30.6487 37.3257 30.6487 32.3532C30.6487 27.3807 34.6848 23.3497 39.6637 23.3497C44.6425 23.3497 48.6787 27.3807 48.6787 32.3532Z" fill="#FFCFCF" fill-opacity="0.4" shape-rendering="crispEdges"/>
</g>
<g id="Center" filter="url(#filter2_df_451_1430)">
<path d="M47.3179 30.9681C47.3179 32.1156 46.404 33.0458 45.2767 33.0458C44.1494 33.0458 43.2356 32.1156 43.2356 30.9681C43.2356 29.8206 44.1494 28.8904 45.2767 28.8904C46.404 28.8904 47.3179 29.8206 47.3179 30.9681Z" fill="#FFD8D8" fill-opacity="0.9" shape-rendering="crispEdges"/>
</g>
</g>
</g>
<defs>
<filter id="filter0_d_451_1430" x="0" y="0" width="74" height="74" filterUnits="userSpaceOnUse" color-interpolation-filters="sRGB">
<feFlood flood-opacity="0" result="BackgroundImageFix"/>
<feColorMatrix in="SourceAlpha" type="matrix" values="0 0 0 0 0 0 0 0 0 0 0 0 0 0 0 0 0 0 127 0" result="hardAlpha"/>
<feOffset/>
<feGaussianBlur stdDeviation="7.5"/>
<feComposite in2="hardAlpha" operator="out"/>
<feColorMatrix type="matrix" values="0 0 0 0 1 0 0 0 0 0.556863 0 0 0 0 0.439216 0 0 0 1 0"/>
<feBlend mode="normal" in2="BackgroundImageFix" result="effect1_dropShadow_451_1430"/>
<feBlend mode="normal" in="SourceGraphic" in2="effect1_dropShadow_451_1430" result="shape"/>
</filter>
<filter id="filter1_df_451_1430" x="20.6487" y="13.3497" width="42.03" height="42.0069" filterUnits="userSpaceOnUse" color-interpolation-filters="sRGB">
<feFlood flood-opacity="0" result="BackgroundImageFix"/>
<feColorMatrix in="SourceAlpha" type="matrix" values="0 0 0 0 0 0 0 0 0 0 0 0 0 0 0 0 0 0 127 0" result="hardAlpha"/>
<feOffset dx="4" dy="4"/>
<feGaussianBlur stdDeviation="5"/>
<feComposite in2="hardAlpha" operator="out"/>
<feColorMatrix type="matrix" values="0 0 0 0 1 0 0 0 0 0.875 0 0 0 0 0.875 0 0 0 0.25 0"/>
<feBlend mode="normal" in2="BackgroundImageFix" result="effect1_dropShadow_451_1430"/>
<feBlend mode="normal" in="SourceGraphic" in2="effect1_dropShadow_451_1430" result="shape"/>
<feGaussianBlur stdDeviation="5" result="effect2_foregroundBlur_451_1430"/>
</filter>
<filter id="filter2_df_451_1430" x="33.2356" y="18.8904" width="28.0823" height="28.1554" filterUnits="userSpaceOnUse" color-interpolation-filters="sRGB">
<feFlood flood-opacity="0" result="BackgroundImageFix"/>
<feColorMatrix in="SourceAlpha" type="matrix" values="0 0 0 0 0 0 0 0 0 0 0 0 0 0 0 0 0 0 127 0" result="hardAlpha"/>
<feOffset dx="4" dy="4"/>
<feGaussianBlur stdDeviation="5"/>
<feComposite in2="hardAlpha" operator="out"/>
<feColorMatrix type="matrix" values="0 0 0 0 1 0 0 0 0 0.875 0 0 0 0 0.875 0 0 0 0.25 0"/>
<feBlend mode="normal" in2="BackgroundImageFix" result="effect1_dropShadow_451_1430"/>
<feBlend mode="normal" in="SourceGraphic" in2="effect1_dropShadow_451_1430" result="shape"/>
<feGaussianBlur stdDeviation="5" result="effect2_foregroundBlur_451_1430"/>
</filter>
<clipPath id="clip0_451_1430">
<rect width="44" height="45" fill="white" transform="translate(15 14)"/>
</clipPath>
</defs>
</svg>
