<svg width="52" height="52" viewBox="0 0 52 52" fill="none" xmlns="http://www.w3.org/2000/svg">
<g id="testimonials-mars-dim">
<g id="Mars" clip-path="url(#clip0_451_1508)">
<g id="Vector">
<path d="M14.7322 6.95273C14.7322 6.97824 14.7549 7.02606 14.7712 7.02925C16.3046 7.14723 17.3215 8.4641 18.8256 8.70005C19.6132 8.84031 20.3558 9.16155 20.9926 9.63749C21.181 9.77459 21.4312 9.86706 21.4019 10.1477C21.3775 10.2787 21.3081 10.3977 21.2053 10.4847C21.1024 10.5717 20.9723 10.6216 20.8366 10.6259C20.2616 10.7184 19.6963 10.9448 19.0953 10.8651C18.6832 10.8647 18.2735 10.9259 17.8802 11.0468C17.5326 11.1074 17.4157 11.3466 17.5554 11.6176C17.9452 12.3222 18.2798 13.1417 19.2025 13.3075C20.1251 13.4733 20.9601 13.3234 21.5968 12.5454C22.5162 11.4231 23.5461 11.3115 24.7514 12.1628C25.9567 13.0142 27.0775 13.9452 28.4485 14.5191C28.7929 14.669 29.2217 14.94 29.5076 14.5989C29.8325 14.2099 29.4621 13.8368 29.2022 13.5371C28.8968 13.1832 28.5167 12.8994 28.2276 12.5295C28.0799 12.3857 27.9817 12.2002 27.9468 11.999C27.9118 11.7977 27.9418 11.5908 28.0327 11.4071C28.2438 11.0054 28.6142 11.0723 28.9618 11.0883C29.8747 11.0883 30.5862 11.4996 31.4211 11.9077C33.7245 13.0588 35.9239 14.4426 38.3897 15.2748C38.8186 15.4215 39.4489 15.4502 39.4521 16.0241C39.44 16.2898 39.3437 16.5451 39.1765 16.7543C39.0093 16.9636 38.7797 17.1163 38.5197 17.1912C37.4346 17.5642 36.3885 18.0138 35.3359 18.4666C34.5854 18.7854 33.8512 18.2593 33.0975 18.17C31.0313 17.9245 28.9748 17.5993 26.9248 17.3378C26.5172 17.2895 26.1219 17.1685 25.7585 16.9807C25.3005 16.7347 24.7854 16.6092 24.2634 16.6164C23.7413 16.6237 23.2301 16.7635 22.7794 17.0222C23.0036 17.3825 23.3772 17.4973 23.6956 17.6599C23.8971 17.7545 24.0771 17.888 24.225 18.0523C24.3729 18.2167 24.4856 18.4085 24.5565 18.6164C25.3264 21.0525 26.7104 21.1673 28.5947 20.976C30.3783 20.807 32.1683 20.638 33.9584 20.8389C34.2691 20.8664 34.5652 20.9812 34.8112 21.1695C35.0572 21.3578 35.2427 21.6116 35.3456 21.9006C35.6478 22.6244 35.4399 22.921 34.6602 23.0581C33.6206 23.243 32.7109 23.8265 31.6485 23.986C29.1535 24.359 26.7559 25.2167 24.2348 25.4591C22.396 25.6376 20.528 25.3379 19.6866 23.1793C19.5986 22.9476 19.4408 22.7478 19.2342 22.6065C19.0275 22.4652 18.7819 22.3892 18.53 22.3885C17.0984 22.2546 15.6635 22.1419 14.2254 22.0505C14.0317 22.0311 13.8368 22.0725 13.6686 22.1687C13.5005 22.265 13.3678 22.4112 13.2897 22.5862C13.1045 22.9656 12.8869 23.3674 12.3768 23.2079C11.8018 23.0294 11.178 22.8732 10.9831 22.1589C10.8207 21.5786 10.8759 20.9728 10.5705 20.3988C9.89801 19.1234 8.62124 18.5814 7.5459 17.8129C6.78243 17.2677 6.09044 16.5375 5.03784 16.4674C5.48613 15.1881 6.15902 13.9956 7.02609 12.944C8.97535 10.6419 11.2008 8.65222 13.9102 7.23332C14.1748 7.11498 14.4499 7.02104 14.7322 6.95273Z" fill="#D33A0A"/>
<path d="M14.7322 6.95273C14.7322 6.97824 14.7549 7.02606 14.7712 7.02925C16.3046 7.14723 17.3215 8.4641 18.8256 8.70005C19.6132 8.84031 20.3558 9.16155 20.9926 9.63749C21.181 9.77459 21.4312 9.86706 21.4019 10.1477C21.3775 10.2787 21.3081 10.3977 21.2053 10.4847C21.1024 10.5717 20.9723 10.6216 20.8366 10.6259C20.2616 10.7184 19.6963 10.9448 19.0953 10.8651C18.6832 10.8647 18.2735 10.9259 17.8802 11.0468C17.5326 11.1074 17.4157 11.3466 17.5554 11.6176C17.9452 12.3222 18.2798 13.1417 19.2025 13.3075C20.1251 13.4733 20.9601 13.3234 21.5968 12.5454C22.5162 11.4231 23.5461 11.3115 24.7514 12.1628C25.9567 13.0142 27.0775 13.9452 28.4485 14.5191C28.7929 14.669 29.2217 14.94 29.5076 14.5989C29.8325 14.2099 29.4621 13.8368 29.2022 13.5371C28.8968 13.1832 28.5167 12.8994 28.2276 12.5295C28.0799 12.3857 27.9817 12.2002 27.9468 11.999C27.9118 11.7977 27.9418 11.5908 28.0327 11.4071C28.2438 11.0054 28.6142 11.0723 28.9618 11.0883C29.8747 11.0883 30.5862 11.4996 31.4211 11.9077C33.7245 13.0588 35.9239 14.4426 38.3897 15.2748C38.8186 15.4215 39.4489 15.4502 39.4521 16.0241C39.44 16.2898 39.3437 16.5451 39.1765 16.7543C39.0093 16.9636 38.7797 17.1163 38.5197 17.1912C37.4346 17.5642 36.3885 18.0138 35.3359 18.4666C34.5854 18.7854 33.8512 18.2593 33.0975 18.17C31.0313 17.9245 28.9748 17.5993 26.9248 17.3378C26.5172 17.2895 26.1219 17.1685 25.7585 16.9807C25.3005 16.7347 24.7854 16.6092 24.2634 16.6164C23.7413 16.6237 23.2301 16.7635 22.7794 17.0222C23.0036 17.3825 23.3772 17.4973 23.6956 17.6599C23.8971 17.7545 24.0771 17.888 24.225 18.0523C24.3729 18.2167 24.4856 18.4085 24.5565 18.6164C25.3264 21.0525 26.7104 21.1673 28.5947 20.976C30.3783 20.807 32.1683 20.638 33.9584 20.8389C34.2691 20.8664 34.5652 20.9812 34.8112 21.1695C35.0572 21.3578 35.2427 21.6116 35.3456 21.9006C35.6478 22.6244 35.4399 22.921 34.6602 23.0581C33.6206 23.243 32.7109 23.8265 31.6485 23.986C29.1535 24.359 26.7559 25.2167 24.2348 25.4591C22.396 25.6376 20.528 25.3379 19.6866 23.1793C19.5986 22.9476 19.4408 22.7478 19.2342 22.6065C19.0275 22.4652 18.7819 22.3892 18.53 22.3885C17.0984 22.2546 15.6635 22.1419 14.2254 22.0505C14.0317 22.0311 13.8368 22.0725 13.6686 22.1687C13.5005 22.265 13.3678 22.4112 13.2897 22.5862C13.1045 22.9656 12.8869 23.3674 12.3768 23.2079C11.8018 23.0294 11.178 22.8732 10.9831 22.1589C10.8207 21.5786 10.8759 20.9728 10.5705 20.3988C9.89801 19.1234 8.62124 18.5814 7.5459 17.8129C6.78243 17.2677 6.09044 16.5375 5.03784 16.4674C5.48613 15.1881 6.15902 13.9956 7.02609 12.944C8.97535 10.6419 11.2008 8.65222 13.9102 7.23332C14.1748 7.11498 14.4499 7.02104 14.7322 6.95273Z" fill="url(#paint0_radial_451_1508)" fill-opacity="0.2"/>
</g>
<path id="Vector_2" d="M15.008 46.3983C15.0325 46.3209 15.0734 46.2495 15.1281 46.1889C15.1828 46.1282 15.25 46.0797 15.3253 46.0465C15.4006 46.0133 15.4822 45.9963 15.5648 45.9964C15.6473 45.9966 15.7288 46.014 15.804 46.0475C16.5869 46.3154 17.3049 46.0061 18.0489 45.9072C18.5167 45.8434 18.6337 45.7159 18.4452 45.244C17.9514 44.0068 18.1204 43.8187 19.4848 43.7581C20.6706 43.7039 21.8272 43.975 23.0065 43.9495C23.5036 43.9495 23.783 43.8347 23.4029 43.2958C23.0228 42.7569 23.3249 42.4253 23.8609 42.2787C24.6211 42.0746 25.3976 41.9184 26.1643 41.7366C26.4535 41.6696 26.7946 41.6122 26.7556 41.2232C26.7166 40.8342 26.3593 40.9044 26.1286 40.8502C24.8778 40.5823 23.6855 41.0032 22.4737 41.2105C20.7714 41.5007 19.1502 42.132 17.3991 42.2595C15.9794 42.3616 14.8001 41.8546 13.7313 41.0766C13.3122 40.7768 13.4974 40.2954 13.6078 39.8681C13.9944 38.4078 13.9782 38.446 12.4902 37.955C11.1594 37.4777 9.91959 36.7846 8.82237 35.9047C8.08815 35.3595 7.9582 34.4954 8.00369 33.6249C8.0165 33.4632 8.07667 33.3085 8.17696 33.1795C8.27725 33.0506 8.41338 32.9528 8.56897 32.8979C9.86848 32.4037 11.2102 32.0051 12.552 32.713C13.8199 33.3893 15.1673 33.9107 16.5642 34.2658C17.724 34.556 18.6824 35.2734 19.7025 35.8346C21.4783 36.8135 23.5389 37.1753 25.5503 36.8613C27.2949 36.6413 29.0427 36.4596 30.7776 36.1694C31.7362 35.9691 32.6292 35.5385 33.3766 34.9163C34.949 33.7397 37.077 34.3679 38.149 35.7421C38.3497 36.0144 38.4673 36.337 38.488 36.6724C38.5087 37.0078 38.4317 37.3421 38.266 37.6361C37.8408 38.6615 37.0885 39.5241 36.1218 40.0945C35.179 40.5804 34.3994 41.3233 33.8769 42.234C33.3438 43.1087 32.527 43.7824 31.5573 44.1471C30.7256 44.5075 30.1603 44.9921 30.2578 46.0603C30.326 46.8989 29.9329 47.6769 29.3936 48.356C26.1818 49.264 22.7639 49.1861 19.5986 48.1328C18.0294 47.6482 16.3758 47.3803 15.008 46.3983Z" fill="#D33A0A"/>
<path id="Vector_3" d="M46.9663 35.235C45.7416 35.3817 44.507 35.5315 43.292 35.235C42.3661 35.015 42.1094 34.5495 42.3173 33.6407C42.4224 33.2949 42.4257 32.927 42.3268 32.5795C42.228 32.232 42.031 31.9189 41.7586 31.6766C41.2259 31.1383 40.7472 30.5511 40.3291 29.9229C39.6111 28.9153 39.0848 28.6921 37.8665 29.0811C35.8848 29.7188 33.968 30.5255 31.9148 30.9528C30.6826 31.2114 29.4346 31.3914 28.1787 31.4917C27.9125 31.5169 27.6449 31.4609 27.4124 31.3314C27.1798 31.2019 26.9936 31.0051 26.8792 30.7679C26.6485 30.2577 26.9344 29.8113 27.295 29.4414C29.1208 27.4964 31.408 26.323 33.9388 25.5036C36.1707 24.7798 38.4871 24.7893 40.7904 24.48C41.5589 24.4146 42.2844 24.1044 42.8567 23.5968C43.4479 23.0356 43.5064 22.3405 42.9216 21.7698C42.3369 21.199 42.3921 20.7303 42.8242 20.1755C43.5291 19.2763 43.5746 18.2464 43.3862 17.2006C43.261 16.5529 43.3932 15.8827 43.7557 15.3276C44.1182 14.7726 44.6835 14.3749 45.3355 14.2161C46.3101 15.0834 46.6155 16.3205 47.145 17.427C48.477 20.2169 48.9838 23.211 49.0033 26.2401C49.0667 29.3551 48.3682 32.4396 46.9663 35.235Z" fill="#D33A0A"/>
<path id="Vector_4" d="M2.6565 21.6582C4.54079 21.8814 5.0606 22.5861 4.68699 24.4004C4.54079 25.1051 4.41084 25.8129 4.2744 26.5208C4.22242 26.795 4.22891 27.1075 4.53429 27.1744C4.89166 27.2573 4.88191 26.8843 4.98263 26.6579C5.93777 24.4801 6.48032 24.1708 8.45232 25.0636C9.78757 25.6662 11.2235 25.7747 12.6302 26.0457C14.2936 26.3645 15.8563 27.0947 17.5911 27.1712C18.2409 27.2031 18.465 28.0066 18.1824 28.8899C17.7081 30.3821 16.7529 30.8763 15.213 30.4076C13.6266 29.9702 12.0845 29.3907 10.6063 28.6762C9.68035 28.198 8.67973 28.2235 7.68236 28.249C7.56446 28.2469 7.44808 28.2752 7.34487 28.3312C7.24166 28.3871 7.15526 28.4687 7.09433 28.5678C6.54204 29.3841 5.79482 30.127 5.46994 31.0198C5.01186 32.2251 4.17044 32.5471 3.04636 32.6141C2.2551 31.1011 1.90544 29.4028 2.036 27.7069C2.12371 25.6886 2.02624 23.6351 2.6565 21.6582Z" fill="#D33A0A"/>
<path id="Vector_5" d="M43.9711 12.4369C43.1719 13.0746 42.207 13.0395 41.2973 12.9215C40.3761 12.8206 39.4875 12.5274 38.6912 12.0616C37.895 11.5958 37.2095 10.9681 36.6808 10.2208C35.7224 8.88801 34.1923 8.5564 32.7498 8.11319C31.4996 7.70156 30.1999 7.4518 28.8838 7.37026C27.1164 7.29055 26.3172 5.5783 26.249 4.12113C27.2237 3.80227 28.1658 4.21041 29.1079 4.33476C33.1651 4.81898 37.023 6.33465 40.3 8.73177C41.7485 9.7312 42.9936 10.9879 43.9711 12.4369Z" fill="#D33A0A"/>
<path id="Vector_6" d="M15.0081 46.3981C13.4097 45.8911 12.0842 44.9313 10.7847 43.9333C7.01618 41.0905 4.29572 37.1185 3.03634 32.6204C4.15717 32.5438 4.9856 32.2218 5.45992 31.0261C5.7848 30.1333 6.54501 29.3904 7.08431 28.5741C7.14524 28.475 7.23164 28.3934 7.33485 28.3374C7.43806 28.2815 7.55444 28.2531 7.67234 28.2552C8.67621 28.2297 9.67683 28.2042 10.5962 28.6825C12.0745 29.3969 13.6166 29.9765 15.203 30.4139C16.7429 30.8826 17.6981 30.3884 18.1724 28.8961C18.455 28.0129 18.2341 27.2094 17.5811 27.1775C15.8463 27.101 14.2836 26.374 12.6202 26.0519C11.2135 25.7809 9.77755 25.6725 8.4423 25.0699C6.4703 24.1803 5.92775 24.4896 4.97261 26.6642C4.8719 26.8905 4.88164 27.2636 4.52427 27.1807C4.21889 27.1137 4.1994 26.8013 4.26438 26.527C4.40083 25.8192 4.53077 25.1113 4.67697 24.4067C5.05058 22.5924 4.53077 21.8877 2.64648 21.6645C3.06558 20.5326 3.45869 19.3879 3.91351 18.2687C4.17991 17.615 4.40732 16.9168 5.01159 16.4544C6.06419 16.5118 6.75618 17.2547 7.51964 17.8C8.59499 18.5684 9.87176 19.12 10.5443 20.3859C10.8496 20.9598 10.7944 21.5657 10.9569 22.146C11.1518 22.8602 11.7755 23.0165 12.3506 23.195C12.8606 23.3544 13.0783 22.9527 13.2635 22.5732C13.3416 22.3982 13.4742 22.2521 13.6424 22.1558C13.8105 22.0595 14.0055 22.0181 14.1991 22.0376C15.6351 22.1268 17.07 22.2395 18.5037 22.3755C18.7556 22.3762 19.0013 22.4523 19.2079 22.5936C19.4146 22.7349 19.5724 22.9347 19.6603 23.1663C20.5018 25.325 22.3698 25.6247 24.2086 25.4461C26.7296 25.2038 29.1272 24.3461 31.6223 23.973C32.6879 23.8136 33.5943 23.2301 34.6339 23.0451C35.4136 22.908 35.6085 22.6115 35.3194 21.8877C35.2165 21.5987 35.0309 21.3448 34.7849 21.1565C34.5389 20.9682 34.2429 20.8535 33.9322 20.8259C32.1356 20.625 30.3585 20.794 28.5685 20.963C26.6842 21.1416 25.3002 21.0395 24.5302 18.6035C24.4594 18.3956 24.3466 18.2037 24.1987 18.0394C24.0508 17.8751 23.8708 17.7416 23.6693 17.6469C23.3444 17.4747 22.9773 17.36 22.7531 17.0092C23.2038 16.7505 23.7151 16.6108 24.2371 16.6035C24.7592 16.5962 25.2743 16.7217 25.7323 16.9678C26.0956 17.1555 26.4909 17.2765 26.8986 17.3249C28.9648 17.5863 31.0213 17.9116 33.0713 18.1571C33.825 18.2464 34.5592 18.7693 35.3097 18.4536C36.3623 18.0072 37.4084 17.5577 38.4935 17.1782C38.7534 17.1034 38.9831 16.9506 39.1502 16.7414C39.3174 16.5321 39.4138 16.2768 39.4259 16.0112C39.4259 15.4373 38.7761 15.4086 38.3635 15.2619C35.8977 14.4297 33.6983 13.0459 31.3949 11.8948C30.5729 11.4867 29.8485 11.0849 28.9356 11.0753C28.5879 11.0753 28.2176 11.0052 28.0064 11.3942C27.9156 11.5779 27.8856 11.7848 27.9205 11.986C27.9555 12.1873 28.0537 12.3728 28.2013 12.5166C28.4905 12.8769 28.8706 13.1702 29.176 13.5241C29.4359 13.8239 29.8257 14.1969 29.4814 14.5859C29.1955 14.9271 28.7666 14.6561 28.4223 14.5062C27.0643 13.9163 25.9207 12.9916 24.7284 12.1499C23.5361 11.3081 22.4932 11.4101 21.5738 12.5325C20.9241 13.3105 20.0827 13.454 19.1795 13.2946C18.2763 13.1351 17.9222 12.3093 17.5324 11.6046C17.3829 11.3336 17.4999 11.0945 17.8572 11.0339C18.2505 10.913 18.6602 10.8517 19.0723 10.8521C19.6733 10.9191 20.2386 10.7055 20.8136 10.613C20.9493 10.6086 21.0794 10.5588 21.1823 10.4718C21.2851 10.3847 21.3545 10.2658 21.3789 10.1347C21.4082 9.85411 21.158 9.76165 20.9696 9.62454C20.3328 9.1486 19.5902 8.82737 18.8026 8.6871C17.2985 8.45115 16.2816 7.13428 14.7482 7.01631C14.7319 7.01631 14.7222 6.96529 14.7092 6.93978C15.5441 6.12351 16.6585 5.86524 17.7208 5.4858C20.4376 4.48391 23.3286 4.01589 26.2293 4.10835C26.2976 5.56551 27.0968 7.27777 28.8641 7.35748C30.1802 7.43902 31.4799 7.68878 32.7301 8.10041C34.1726 8.54362 35.7028 8.87523 36.6611 10.208C37.1898 10.9554 37.8753 11.583 38.6716 12.0488C39.4678 12.5146 40.3564 12.8078 41.2777 12.9087C42.1873 13.0267 43.1522 13.065 43.9514 12.4241C44.4866 12.9534 44.9457 13.552 45.3159 14.2033C44.6639 14.3621 44.0986 14.7598 43.7361 15.3148C43.3736 15.8699 43.2414 16.5401 43.3666 17.1878C43.555 18.2336 43.5095 19.2635 42.8046 20.1627C42.3725 20.7143 42.3368 21.2085 42.902 21.757C43.4673 22.3054 43.4283 23.0324 42.8371 23.584C42.2648 24.0916 41.5393 24.4018 40.7709 24.4672C38.4967 24.7861 36.1511 24.767 33.9192 25.4908C31.3884 26.3102 29.1012 27.4836 27.2754 29.4286C26.9148 29.8112 26.6257 30.2449 26.8596 30.7551C26.974 30.9923 27.1602 31.1891 27.3928 31.3186C27.6253 31.4481 27.8929 31.5041 28.1591 31.4789C29.415 31.3786 30.663 31.1986 31.8952 30.94C33.9484 30.5127 35.8652 29.6965 37.847 29.0683C39.0652 28.6793 39.5915 28.9025 40.3095 29.9101C40.7276 30.5383 41.2063 31.1255 41.739 31.6638C42.0114 31.9061 42.2084 32.2192 42.3072 32.5667C42.4061 32.9142 42.4028 33.2822 42.2978 33.6279C42.0931 34.5462 42.3497 35.0118 43.2724 35.2222C44.4874 35.5124 45.722 35.3625 46.9468 35.2222C44.9455 39.6862 41.7032 43.0342 37.4733 45.5021C34.9989 46.9997 32.2321 47.9719 29.3514 48.3559C29.8745 47.6767 30.2838 46.8987 30.2156 46.0601C30.1311 45.0047 30.6964 44.52 31.5151 44.147C32.4848 43.7822 33.3016 43.1085 33.8347 42.2338C34.3572 41.3232 35.1368 40.5802 36.0796 40.0943C37.0463 39.5239 37.7986 38.6613 38.2238 37.6359C38.3895 37.3419 38.4665 37.0077 38.4458 36.6723C38.4251 36.3369 38.3075 36.0142 38.1069 35.7419C37.0348 34.3677 34.9068 33.7395 33.3344 34.9161C32.587 35.5383 31.694 35.9689 30.7354 36.1692C29.0005 36.4594 27.2527 36.6411 25.5081 36.8611C23.4967 37.1751 21.4361 36.8133 19.6603 35.8344C18.6402 35.2732 17.6818 34.559 16.522 34.2657C15.1251 33.9106 13.7777 33.3891 12.5098 32.7128C11.168 32.005 9.82628 32.394 8.52677 32.8978C8.37118 32.9526 8.23506 33.0504 8.13477 33.1793C8.03448 33.3083 7.9743 33.463 7.96148 33.6248C7.916 34.4952 8.04595 35.3593 8.78017 35.9046C9.87739 36.7845 11.1172 37.4775 12.448 37.9548C13.936 38.4331 13.9522 38.3948 13.5656 39.8679C13.4552 40.2952 13.27 40.7767 13.6891 41.0764C14.7709 41.8544 15.9372 42.3518 17.3569 42.2593C19.108 42.1318 20.7292 41.5005 22.4315 41.2103C23.6433 41.0031 24.8356 40.5726 26.0864 40.85C26.3171 40.901 26.6809 40.8819 26.7134 41.2231C26.7459 41.5642 26.4113 41.6695 26.1221 41.7364C25.3554 41.9182 24.5789 42.0744 23.8187 42.2785C23.2827 42.4251 22.9643 42.7376 23.3607 43.2956C23.757 43.8536 23.4614 43.9333 22.9643 43.9493C21.785 43.9748 20.6284 43.7038 19.4426 43.758C18.0912 43.8185 17.9092 44.0067 18.403 45.2438C18.5915 45.7157 18.4745 45.8433 18.0067 45.907C17.2627 46.0059 16.5447 46.3152 15.7618 46.0473C15.6889 46.0207 15.6113 46.0086 15.5336 46.0119C15.4559 46.0151 15.3797 46.0337 15.3094 46.0664C15.2391 46.0991 15.1763 46.1453 15.1245 46.2023C15.0727 46.2592 15.0331 46.3258 15.0081 46.3981Z" fill="#B33209"/>
<g id="Center" filter="url(#filter0_df_451_1508)">
<path d="M38.711 17.073C38.711 18.1296 37.8383 18.9862 36.7618 18.9862C35.6852 18.9862 34.8125 18.1296 34.8125 17.073C34.8125 16.0164 35.6852 15.1599 36.7618 15.1599C37.8383 15.1599 38.711 16.0164 38.711 17.073Z" fill="#FEBBBB" fill-opacity="0.9" shape-rendering="crispEdges"/>
</g>
<g id="Large" filter="url(#filter1_df_451_1508)">
<path d="M44.559 25.5227C44.559 32.4786 38.6681 38.1175 31.4014 38.1175C24.1347 38.1175 18.2439 32.4786 18.2439 25.5227C18.2439 18.5668 24.1347 12.9279 31.4014 12.9279C38.6681 12.9279 44.559 18.5668 44.559 25.5227Z" fill="#D33A0A" fill-opacity="0.3" shape-rendering="crispEdges"/>
</g>
</g>
<circle id="Ellipse 71" cx="26" cy="26" r="26" fill="#121212" fill-opacity="0.6"/>
</g>
<defs>
<filter id="filter0_df_451_1508" x="24.8125" y="5.15991" width="27.8984" height="27.8263" filterUnits="userSpaceOnUse" color-interpolation-filters="sRGB">
<feFlood flood-opacity="0" result="BackgroundImageFix"/>
<feColorMatrix in="SourceAlpha" type="matrix" values="0 0 0 0 0 0 0 0 0 0 0 0 0 0 0 0 0 0 127 0" result="hardAlpha"/>
<feOffset dx="4" dy="4"/>
<feGaussianBlur stdDeviation="5"/>
<feComposite in2="hardAlpha" operator="out"/>
<feColorMatrix type="matrix" values="0 0 0 0 1 0 0 0 0 0.875 0 0 0 0 0.875 0 0 0 0.25 0"/>
<feBlend mode="normal" in2="BackgroundImageFix" result="effect1_dropShadow_451_1508"/>
<feBlend mode="normal" in="SourceGraphic" in2="effect1_dropShadow_451_1508" result="shape"/>
<feGaussianBlur stdDeviation="5" result="effect2_foregroundBlur_451_1508"/>
</filter>
<filter id="filter1_df_451_1508" x="8.2439" y="2.92795" width="50.3149" height="49.1895" filterUnits="userSpaceOnUse" color-interpolation-filters="sRGB">
<feFlood flood-opacity="0" result="BackgroundImageFix"/>
<feColorMatrix in="SourceAlpha" type="matrix" values="0 0 0 0 0 0 0 0 0 0 0 0 0 0 0 0 0 0 127 0" result="hardAlpha"/>
<feOffset dx="4" dy="4"/>
<feGaussianBlur stdDeviation="5"/>
<feComposite in2="hardAlpha" operator="out"/>
<feColorMatrix type="matrix" values="0 0 0 0 0.966667 0 0 0 0 0.675861 0 0 0 0 0.584028 0 0 0 0.1 0"/>
<feBlend mode="normal" in2="BackgroundImageFix" result="effect1_dropShadow_451_1508"/>
<feBlend mode="normal" in="SourceGraphic" in2="effect1_dropShadow_451_1508" result="shape"/>
<feGaussianBlur stdDeviation="5" result="effect2_foregroundBlur_451_1508"/>
</filter>
<radialGradient id="paint0_radial_451_1508" cx="0" cy="0" r="1" gradientUnits="userSpaceOnUse" gradientTransform="translate(34.6504 13.2469) rotate(134.548) scale(26.3974 48.0883)">
<stop stop-color="#FF8A65"/>
<stop offset="1" stop-color="#D33A0A"/>
</radialGradient>
<clipPath id="clip0_451_1508">
<rect width="47" height="45" fill="white" transform="translate(2 4)"/>
</clipPath>
</defs>
</svg>
