<svg width="74" height="74" viewBox="0 0 74 74" fill="none" xmlns="http://www.w3.org/2000/svg">
<g id="testimonials-neptune-select">
<g id="Ellipse 72" filter="url(#filter0_d_451_1554)">
<circle cx="37" cy="37" r="22" fill="#A0B2EF" fill-opacity="0.5" shape-rendering="crispEdges"/>
</g>
<g id="Neptune" clip-path="url(#clip0_451_1554)">
<g id="Vector">
<path d="M31.128 59.1754C27.0916 58.3028 23.4047 56.1945 20.5496 53.1263C16.06 48.4403 13.9319 42.7441 13.9879 36.1754C13.9879 35.6815 14.0781 35.1907 14.1248 34.6968C15.192 34.7802 16.2374 34.4049 17.3201 34.6166C19.4078 35.0208 21.2434 34.6166 22.5471 32.6922C22.7244 32.411 22.9618 32.1755 23.2412 32.0037C23.5206 31.8318 23.8345 31.7283 24.1587 31.7011C26.1235 31.4908 28.1038 31.4822 30.0702 31.6755C31.0794 31.8014 32.1021 31.7493 33.0944 31.5215C34.006 31.297 34.1553 30.7389 33.6731 29.8922C32.8921 28.5194 31.6694 28.0993 30.2506 28.0928C28.443 28.0928 26.6415 28.1345 24.8339 28.2244C21.9373 28.3623 19.022 28.3815 16.2156 27.3808C16.5341 26.3392 16.9772 25.3426 17.5348 24.414C18.1969 23.2592 19.0023 22.1982 19.9305 21.258C20.2634 21.4696 20.6367 21.4183 21.0008 21.4344C23.4213 21.5402 25.8357 21.7551 28.2376 22.0758C29.9645 22.3692 31.7241 22.3951 33.4584 22.1528C35.6253 21.7609 37.8338 21.6746 40.0232 21.8962C41.61 22.0822 43.2279 21.9604 44.8302 21.9828C45.2938 21.9828 45.6765 21.8738 45.8352 21.3734C45.9032 21.148 45.8997 20.9062 45.8253 20.683C45.7509 20.4598 45.6094 20.2668 45.4213 20.1322C44.3884 19.2052 43.2621 18.3617 41.8931 18.1629C39.2205 17.7748 36.5573 17.2391 33.8442 17.2006C31.8374 17.175 29.8306 17.2327 27.8238 17.1814C27.1611 17.1814 26.4113 17.284 25.8637 16.681C31.7223 13.3999 37.8049 13.1529 43.9093 15.6803C50.947 18.5862 55.3962 23.9842 57.3221 31.56C55.9521 31.7341 54.612 32.1021 53.3396 32.6537C51.8088 33.2952 50.2283 33.2952 48.6727 33.0643C46.0532 32.6463 43.3813 32.7311 40.7917 33.3144C40.0338 33.4457 39.3434 33.8435 38.8378 34.4402C38.4863 34.8861 38.4583 35.2709 39.0339 35.6526C40.7264 36.7688 42.6025 37.2114 44.5595 37.3236C47.5899 37.4936 50.5146 36.5186 53.5232 36.3614C55.0353 36.278 56.482 35.7456 57.9537 35.3992C58.3031 40.3381 57.1033 45.262 54.5312 49.4443C54.0635 50.2048 53.5191 50.9122 52.9071 51.5547C50.7852 51.3879 49.0585 52.1962 47.6708 53.8897C47.2632 53.0429 46.7063 52.9275 45.9223 53.3733C45.0635 53.8203 44.1209 54.0698 43.1594 54.1046C39.737 54.2938 36.3395 53.9891 32.9388 53.6844C31.4516 53.5529 29.9551 53.4599 28.4741 53.8287C28.2076 53.884 27.9659 54.0278 27.7861 54.2381C27.6063 54.4483 27.4983 54.7135 27.4785 54.993C27.4038 55.5415 27.7741 55.8782 28.2314 56.1348C29.2426 56.7025 30.3627 56.8501 31.4609 57.097C32.5592 57.344 33.6731 57.4178 34.5722 58.38C34.1455 58.5221 33.7086 58.6293 33.2655 58.7007C32.5499 58.9188 31.7378 58.5596 31.128 59.1754ZM38.1316 44.8385C38.3896 44.7142 38.6777 44.6718 38.9592 44.7166C39.6063 44.7551 40.2504 44.8224 40.8975 44.8481C43.3337 44.9507 45.7138 44.4183 48.1189 44.1553C48.5171 44.1136 48.8998 43.9501 48.9589 43.4401C49.0118 42.9846 48.7287 42.7601 48.3864 42.5709C47.1419 41.8845 45.7823 41.7883 44.4475 41.753C40.5802 41.644 36.7128 41.8139 32.8455 41.5638C30.092 41.3874 27.3105 41.413 24.6316 40.6689C22.3884 40.0274 20.6118 40.9897 18.8664 42.17C18.1975 42.619 18.213 43.3567 18.8664 43.7961C19.6035 44.336 20.4366 44.7207 21.3181 44.9283C22.9858 45.2715 24.6814 45.249 26.3615 45.3902C28.2439 45.5537 30.0298 45.9579 31.5698 47.1734C32.3321 47.7732 33.1255 48.3185 33.9126 48.8894C35.7794 50.2525 37.78 50.8395 40.0481 50.1723C41.2149 49.8516 41.4949 49.1652 40.8197 48.1196C40.5406 47.7184 40.2383 47.335 39.9143 46.9714C39.3325 46.2786 38.7414 45.573 38.1316 44.8385Z" fill="#4366E1"/>
<path d="M31.128 59.1754C27.0916 58.3028 23.4047 56.1945 20.5496 53.1263C16.06 48.4403 13.9319 42.7441 13.9879 36.1754C13.9879 35.6815 14.0781 35.1907 14.1248 34.6968C15.192 34.7802 16.2374 34.4049 17.3201 34.6166C19.4078 35.0208 21.2434 34.6166 22.5471 32.6922C22.7244 32.411 22.9618 32.1755 23.2412 32.0037C23.5206 31.8318 23.8345 31.7283 24.1587 31.7011C26.1235 31.4908 28.1038 31.4822 30.0702 31.6755C31.0794 31.8014 32.1021 31.7493 33.0944 31.5215C34.006 31.297 34.1553 30.7389 33.6731 29.8922C32.8921 28.5194 31.6694 28.0993 30.2506 28.0928C28.443 28.0928 26.6415 28.1345 24.8339 28.2244C21.9373 28.3623 19.022 28.3815 16.2156 27.3808C16.5341 26.3392 16.9772 25.3426 17.5348 24.414C18.1969 23.2592 19.0023 22.1982 19.9305 21.258C20.2634 21.4696 20.6367 21.4183 21.0008 21.4344C23.4213 21.5402 25.8357 21.7551 28.2376 22.0758C29.9645 22.3692 31.7241 22.3951 33.4584 22.1528C35.6253 21.7609 37.8338 21.6746 40.0232 21.8962C41.61 22.0822 43.2279 21.9604 44.8302 21.9828C45.2938 21.9828 45.6765 21.8738 45.8352 21.3734C45.9032 21.148 45.8997 20.9062 45.8253 20.683C45.7509 20.4598 45.6094 20.2668 45.4213 20.1322C44.3884 19.2052 43.2621 18.3617 41.8931 18.1629C39.2205 17.7748 36.5573 17.2391 33.8442 17.2006C31.8374 17.175 29.8306 17.2327 27.8238 17.1814C27.1611 17.1814 26.4113 17.284 25.8637 16.681C31.7223 13.3999 37.8049 13.1529 43.9093 15.6803C50.947 18.5862 55.3962 23.9842 57.3221 31.56C55.9521 31.7341 54.612 32.1021 53.3396 32.6537C51.8088 33.2952 50.2283 33.2952 48.6727 33.0643C46.0532 32.6463 43.3813 32.7311 40.7917 33.3144C40.0338 33.4457 39.3434 33.8435 38.8378 34.4402C38.4863 34.8861 38.4583 35.2709 39.0339 35.6526C40.7264 36.7688 42.6025 37.2114 44.5595 37.3236C47.5899 37.4936 50.5146 36.5186 53.5232 36.3614C55.0353 36.278 56.482 35.7456 57.9537 35.3992C58.3031 40.3381 57.1033 45.262 54.5312 49.4443C54.0635 50.2048 53.5191 50.9122 52.9071 51.5547C50.7852 51.3879 49.0585 52.1962 47.6708 53.8897C47.2632 53.0429 46.7063 52.9275 45.9223 53.3733C45.0635 53.8203 44.1209 54.0698 43.1594 54.1046C39.737 54.2938 36.3395 53.9891 32.9388 53.6844C31.4516 53.5529 29.9551 53.4599 28.4741 53.8287C28.2076 53.884 27.9659 54.0278 27.7861 54.2381C27.6063 54.4483 27.4983 54.7135 27.4785 54.993C27.4038 55.5415 27.7741 55.8782 28.2314 56.1348C29.2426 56.7025 30.3627 56.8501 31.4609 57.097C32.5592 57.344 33.6731 57.4178 34.5722 58.38C34.1455 58.5221 33.7086 58.6293 33.2655 58.7007C32.5499 58.9188 31.7378 58.5596 31.128 59.1754ZM38.1316 44.8385C38.3896 44.7142 38.6777 44.6718 38.9592 44.7166C39.6063 44.7551 40.2504 44.8224 40.8975 44.8481C43.3337 44.9507 45.7138 44.4183 48.1189 44.1553C48.5171 44.1136 48.8998 43.9501 48.9589 43.4401C49.0118 42.9846 48.7287 42.7601 48.3864 42.5709C47.1419 41.8845 45.7823 41.7883 44.4475 41.753C40.5802 41.644 36.7128 41.8139 32.8455 41.5638C30.092 41.3874 27.3105 41.413 24.6316 40.6689C22.3884 40.0274 20.6118 40.9897 18.8664 42.17C18.1975 42.619 18.213 43.3567 18.8664 43.7961C19.6035 44.336 20.4366 44.7207 21.3181 44.9283C22.9858 45.2715 24.6814 45.249 26.3615 45.3902C28.2439 45.5537 30.0298 45.9579 31.5698 47.1734C32.3321 47.7732 33.1255 48.3185 33.9126 48.8894C35.7794 50.2525 37.78 50.8395 40.0481 50.1723C41.2149 49.8516 41.4949 49.1652 40.8197 48.1196C40.5406 47.7184 40.2383 47.335 39.9143 46.9714C39.3325 46.2786 38.7414 45.573 38.1316 44.8385Z" fill="url(#paint0_radial_451_1554)" fill-opacity="0.9"/>
</g>
<path id="Vector_2" d="M31.1276 59.1761C31.7499 58.5602 32.5495 58.9194 33.2495 58.7174C33.6926 58.646 34.1295 58.5387 34.5563 58.3966C33.6602 57.4344 32.509 57.3831 31.445 57.1137C30.3809 56.8443 29.2266 56.7032 28.2154 56.1515C27.7581 55.8949 27.3878 55.5581 27.4625 55.0097C27.4823 54.7301 27.5904 54.465 27.7702 54.2547C27.9499 54.0445 28.1916 53.9007 28.4581 53.8454C29.9391 53.4766 31.4356 53.5696 32.9228 53.7011C36.3235 54.0058 39.7241 54.3105 43.1434 54.1212C44.1049 54.0865 45.0475 53.837 45.9063 53.39C46.6903 52.9602 47.2472 53.0692 47.6548 53.9063C49.0425 52.2064 50.7661 51.4046 52.8911 51.5714C52.8176 51.7585 52.7214 51.9352 52.6049 52.0974C49.867 55.0642 46.9174 57.6942 43.0501 59.0445C39.2357 60.3788 35.4088 60.1318 31.5383 59.3942C31.3921 59.3653 31.2116 59.3717 31.1276 59.1761Z" fill="#A0B2EF"/>
<path id="Vector_3" d="M25.8664 16.7006C26.4139 17.3036 27.1638 17.185 27.8265 17.201C29.8333 17.2523 31.84 17.201 33.8468 17.2202C36.5599 17.2523 39.2232 17.7879 41.8958 18.1824C43.2647 18.3813 44.3848 19.2248 45.424 20.1517C45.612 20.2864 45.7536 20.4793 45.828 20.7026C45.9024 20.9258 45.9058 21.1676 45.8378 21.393C45.6791 21.8933 45.2964 22.0088 44.8328 22.0024C43.2305 21.98 41.6126 22.1018 40.0259 21.9158C37.8364 21.6942 35.6279 21.7805 33.461 22.1724C31.7268 22.4148 29.9671 22.3888 28.2403 22.0954C25.8384 21.7458 23.424 21.5437 21.0034 21.4539C20.6394 21.4379 20.266 21.4892 19.9331 21.2775C20.3407 20.3153 21.1776 19.8086 21.9306 19.2216C23.1683 18.2641 24.4853 17.4205 25.8664 16.7006Z" fill="#A0B2EF"/>
<path id="Vector_4" d="M16.2182 27.3745C19.0184 28.3752 21.9399 28.356 24.8365 28.2181C26.6442 28.1283 28.4456 28.0802 30.2533 28.0866C31.6845 28.0866 32.9072 28.5132 33.6757 29.8859C34.158 30.7327 34.0086 31.2907 33.097 31.5152C32.1047 31.743 31.0821 31.7951 30.0729 31.6692C28.1064 31.4759 26.1262 31.4845 24.1614 31.6948C23.8371 31.7221 23.5232 31.8256 23.2439 31.9974C22.9645 32.1692 22.727 32.4047 22.5497 32.6859C21.2461 34.6103 19.4104 35.0177 17.3227 34.6103C16.24 34.3987 15.1946 34.7739 14.1274 34.6905C14.2114 32.0701 14.7684 29.5876 16.2182 27.3745Z" fill="#2C46A3"/>
<path id="Vector_5" d="M57.9507 35.4191C56.479 35.7623 55.0323 36.2947 53.5202 36.3813C50.5115 36.5417 47.5869 37.5168 44.5565 37.3436C42.5995 37.2313 40.7234 36.7887 39.0309 35.6725C38.4553 35.2908 38.4833 34.906 38.8348 34.4601C39.3404 33.8634 40.0308 33.4656 40.7887 33.3343C43.3783 32.7511 46.0502 32.6662 48.6696 33.0842C50.2253 33.3087 51.8058 33.3055 53.3366 32.6736C54.609 32.1221 55.9491 31.754 57.3191 31.5799C57.7855 32.8007 58.0006 34.1081 57.9507 35.4191Z" fill="#A0B2EF"/>
<path id="Vector_6" d="M38.1314 44.8388C38.7537 45.5733 39.3324 46.2789 39.9142 46.9877C40.2381 47.3513 40.5405 47.7348 40.8196 48.1359C41.4947 49.1815 41.2147 49.8551 40.048 50.1887C37.7798 50.8301 35.773 50.2528 33.9125 48.9057C33.1315 48.3348 32.332 47.7896 31.5697 47.1898C30.0296 45.9742 28.2437 45.5701 26.3614 45.4065C24.6813 45.2589 22.9856 45.2878 21.3179 44.9446C20.4364 44.7371 19.6033 44.3523 18.8662 43.8124C18.2129 43.373 18.1973 42.6353 18.8662 42.1863C20.6117 41.006 22.3882 40.0598 24.6315 40.6853C27.3103 41.4294 30.0918 41.4037 32.8453 41.5801C36.7127 41.8303 40.58 41.6603 44.4473 41.7693C45.7821 41.8046 47.1542 41.9008 48.3863 42.5872C48.7285 42.7765 49.0085 43.001 48.9587 43.4564C48.8996 43.9664 48.5169 44.13 48.1187 44.1717C45.7137 44.4347 43.3335 44.9671 40.8974 44.8645C40.2502 44.8388 39.6062 44.7714 38.959 44.7329C38.6791 44.6831 38.3911 44.72 38.1314 44.8388Z" fill="#2C46A3"/>
</g>
</g>
<defs>
<filter id="filter0_d_451_1554" x="0" y="0" width="74" height="74" filterUnits="userSpaceOnUse" color-interpolation-filters="sRGB">
<feFlood flood-opacity="0" result="BackgroundImageFix"/>
<feColorMatrix in="SourceAlpha" type="matrix" values="0 0 0 0 0 0 0 0 0 0 0 0 0 0 0 0 0 0 127 0" result="hardAlpha"/>
<feOffset/>
<feGaussianBlur stdDeviation="7.5"/>
<feComposite in2="hardAlpha" operator="out"/>
<feColorMatrix type="matrix" values="0 0 0 0 0.627451 0 0 0 0 0.698039 0 0 0 0 0.937255 0 0 0 1 0"/>
<feBlend mode="normal" in2="BackgroundImageFix" result="effect1_dropShadow_451_1554"/>
<feBlend mode="normal" in="SourceGraphic" in2="effect1_dropShadow_451_1554" result="shape"/>
</filter>
<radialGradient id="paint0_radial_451_1554" cx="0" cy="0" r="1" gradientUnits="userSpaceOnUse" gradientTransform="translate(46.5134 28.7536) rotate(111.963) scale(15.3897 15.1222)">
<stop stop-color="#A0B2EF"/>
<stop offset="1" stop-color="#4366E1"/>
</radialGradient>
<clipPath id="clip0_451_1554">
<rect width="44" height="46" fill="white" transform="translate(14 14)"/>
</clipPath>
</defs>
</svg>
