<svg width="52" height="52" viewBox="0 0 52 52" fill="none" xmlns="http://www.w3.org/2000/svg">
<g id="testimonials-venus-dim">
<g id="Venus" clip-path="url(#clip0_451_2086)">
<g id="Vector">
<path d="M3.12216 24.6009C2.83636 23.2242 3.34054 21.9301 3.58139 20.6137C4.05666 18.035 5.21915 15.7322 6.59038 13.5245C6.77335 13.1616 7.05745 12.8579 7.40926 12.6491C9.44843 12.8996 11.5358 12.8806 13.4722 13.7148C14.2852 14.0429 15.1686 14.164 16.0412 14.0669C17.573 13.9559 18.9796 13.385 20.3893 12.8521C22.1553 12.1859 24.0551 11.9392 25.9353 12.132C27.9006 12.3181 29.8659 12.4958 31.8312 12.6649C33.8222 12.833 35.6302 11.9005 37.5666 11.7133C39.381 11.5325 41.1504 11.0155 42.9873 10.9711C44.5544 12.5095 45.4022 14.4602 46.1729 16.4522C46.3527 16.9185 46.494 17.4038 46.645 17.8764C46.1633 17.962 45.7105 18.1524 45.2224 18.2443C43.2538 18.6186 41.2339 18.939 39.442 19.7891C37.0785 20.9056 34.625 21.8571 32.3225 23.0752C30.3669 24.1029 28.3148 24.2456 26.144 23.8396C23.0997 23.275 20.0425 23.0942 16.9757 23.8745C13.4278 24.8017 9.76467 25.2267 6.09583 25.1369C5.0785 25.1539 4.06784 24.9717 3.12216 24.6009Z" fill="#FFE799"/>
<path d="M3.12216 24.6009C2.83636 23.2242 3.34054 21.9301 3.58139 20.6137C4.05666 18.035 5.21915 15.7322 6.59038 13.5245C6.77335 13.1616 7.05745 12.8579 7.40926 12.6491C9.44843 12.8996 11.5358 12.8806 13.4722 13.7148C14.2852 14.0429 15.1686 14.164 16.0412 14.0669C17.573 13.9559 18.9796 13.385 20.3893 12.8521C22.1553 12.1859 24.0551 11.9392 25.9353 12.132C27.9006 12.3181 29.8659 12.4958 31.8312 12.6649C33.8222 12.833 35.6302 11.9005 37.5666 11.7133C39.381 11.5325 41.1504 11.0155 42.9873 10.9711C44.5544 12.5095 45.4022 14.4602 46.1729 16.4522C46.3527 16.9185 46.494 17.4038 46.645 17.8764C46.1633 17.962 45.7105 18.1524 45.2224 18.2443C43.2538 18.6186 41.2339 18.939 39.442 19.7891C37.0785 20.9056 34.625 21.8571 32.3225 23.0752C30.3669 24.1029 28.3148 24.2456 26.144 23.8396C23.0997 23.275 20.0425 23.0942 16.9757 23.8745C13.4278 24.8017 9.76467 25.2267 6.09583 25.1369C5.0785 25.1539 4.06784 24.9717 3.12216 24.6009Z" fill="url(#paint0_radial_451_2086)" fill-opacity="0.9"/>
</g>
<g id="Vector_2">
<path d="M3.12195 24.6009C4.06763 24.9717 5.07829 25.1539 6.09562 25.1369C9.76155 25.2238 13.4214 24.7966 16.9659 23.8681C20.0263 23.0879 23.0898 23.2687 26.1342 23.8333C28.305 24.2393 30.357 24.0965 32.3127 23.0688C34.6281 21.8508 37.0686 20.8992 39.4322 19.7827C41.2369 18.9326 43.2568 18.6123 45.2125 18.238C45.7006 18.146 46.1534 17.9557 46.6351 17.8701C47.4668 19.2625 47.6981 20.8326 47.849 22.3869C48.0868 24.3251 48.0348 26.2872 47.6948 28.2105C47.655 28.3467 47.6012 28.4784 47.5343 28.6038C47.2573 28.4796 46.9516 28.4315 46.6492 28.4644C46.3469 28.4973 46.0592 28.6102 45.8162 28.791C44.8175 29.4254 43.8895 30.2278 42.6306 30.3103C41.1149 30.4118 39.612 30.1993 38.1091 30.0661C35.4855 29.8282 32.971 29.8091 30.7841 31.6933C29.1785 33.0699 27.3191 33.8153 25.0616 33.2951C22.2686 32.6682 19.3545 32.8164 16.6415 33.7233C15.6391 34.0316 14.5857 34.1458 13.5394 34.0595C11.0025 33.8533 8.4495 33.5615 6.04103 32.6544C5.36344 32.3974 4.75651 32.3625 4.15279 32.7654C3.41419 31.2682 3.23435 29.641 3.08342 28.0234C2.95363 26.8853 2.96657 25.7358 3.12195 24.6009Z" fill="#FFB39B"/>
<path d="M3.12195 24.6009C4.06763 24.9717 5.07829 25.1539 6.09562 25.1369C9.76155 25.2238 13.4214 24.7966 16.9659 23.8681C20.0263 23.0879 23.0898 23.2687 26.1342 23.8333C28.305 24.2393 30.357 24.0965 32.3127 23.0688C34.6281 21.8508 37.0686 20.8992 39.4322 19.7827C41.2369 18.9326 43.2568 18.6123 45.2125 18.238C45.7006 18.146 46.1534 17.9557 46.6351 17.8701C47.4668 19.2625 47.6981 20.8326 47.849 22.3869C48.0868 24.3251 48.0348 26.2872 47.6948 28.2105C47.655 28.3467 47.6012 28.4784 47.5343 28.6038C47.2573 28.4796 46.9516 28.4315 46.6492 28.4644C46.3469 28.4973 46.0592 28.6102 45.8162 28.791C44.8175 29.4254 43.8895 30.2278 42.6306 30.3103C41.1149 30.4118 39.612 30.1993 38.1091 30.0661C35.4855 29.8282 32.971 29.8091 30.7841 31.6933C29.1785 33.0699 27.3191 33.8153 25.0616 33.2951C22.2686 32.6682 19.3545 32.8164 16.6415 33.7233C15.6391 34.0316 14.5857 34.1458 13.5394 34.0595C11.0025 33.8533 8.4495 33.5615 6.04103 32.6544C5.36344 32.3974 4.75651 32.3625 4.15279 32.7654C3.41419 31.2682 3.23435 29.641 3.08342 28.0234C2.95363 26.8853 2.96657 25.7358 3.12195 24.6009Z" fill="url(#paint1_radial_451_2086)" fill-opacity="0.8"/>
</g>
<path id="Vector_3" d="M4.16904 32.7684C4.77598 32.3656 5.3797 32.4005 6.05729 32.6574C8.46576 33.5646 11.0188 33.8564 13.5557 34.0626C14.602 34.1488 15.6553 34.0347 16.6578 33.7264C19.3708 32.8194 22.2849 32.6712 25.0778 33.2981C27.3257 33.8183 29.1979 33.0729 30.8004 31.6963C32.9873 29.8122 35.5017 29.8312 38.1254 30.0691C39.6283 30.2024 41.1311 30.4149 42.6469 30.3134C43.9089 30.2309 44.8338 29.4157 45.8325 28.794C46.0754 28.6132 46.3632 28.5004 46.6655 28.4675C46.9678 28.4345 47.2736 28.4827 47.5505 28.6069C47.2424 31.1898 46.3525 33.6718 44.9462 35.8706C42.6983 36.229 40.4343 36.1878 38.1864 36.4225C36.299 36.5952 34.4762 37.1896 32.8556 38.1607C31.5711 38.9346 30.2673 39.7118 28.7548 40.0321C24.776 40.8727 20.7779 40.5428 16.7734 40.3017C14.1466 40.1431 11.478 39.7911 8.95709 40.9615C6.83761 38.7327 5.22099 36.085 4.214 33.1935C4.18269 33.054 4.1676 32.9113 4.16904 32.7684Z" fill="#FFE799"/>
<path id="Vector_4" d="M42.987 10.9678C41.1501 11.0122 39.3807 11.5292 37.5663 11.71C35.6395 11.9035 33.8219 12.836 31.8309 12.6616C29.8399 12.4871 27.9003 12.3222 25.935 12.1319C24.055 11.9381 22.1552 12.1836 20.389 12.8487C18.9793 13.3816 17.5727 13.9526 16.0409 14.0636C15.1682 14.1607 14.2848 14.0396 13.4719 13.7115C11.5451 12.8773 9.44811 12.8963 7.40894 12.6457C10.7423 7.98299 15.2188 4.92527 20.8354 3.65333C29.1206 1.77238 36.2497 3.94197 42.2002 9.94641C42.5334 10.2274 42.8017 10.5757 42.987 10.9678Z" fill="#FFB39B"/>
<path id="Vector_5" d="M8.95044 40.9616C11.4713 39.7912 14.1399 40.1433 16.7668 40.3019C20.7712 40.5429 24.7693 40.8728 28.7481 40.0322C30.2606 39.7151 31.5709 38.9348 32.849 38.1608C34.4695 37.1897 36.2924 36.5954 38.1797 36.4226C40.4276 36.1911 42.7012 36.2291 44.9395 35.8707C43.8198 38.4872 41.9615 40.7302 39.5863 42.3319C39.4812 42.0281 39.2853 41.763 39.0244 41.5716C38.7635 41.3801 38.4499 41.2714 38.1251 41.2598C37.4041 41.152 36.669 41.1778 35.9575 41.3359C34.4578 41.707 33.2022 42.5634 31.9016 43.3152C30.601 44.0669 29.233 44.6918 27.6274 44.5173C25.251 44.2604 22.8618 44.3365 20.4758 44.3397C19.4567 44.3703 18.4621 44.6562 17.5856 45.1707C17.3427 45.2735 17.1431 45.4557 17.0202 45.6868C16.8974 45.9179 16.8589 46.1837 16.9113 46.4395C13.8316 45.2025 11.102 43.4928 8.95044 40.9616Z" fill="#FFB39B"/>
<path id="Vector_6" d="M16.9019 46.4328C16.8496 46.177 16.8881 45.9112 17.0109 45.6801C17.1337 45.449 17.3334 45.2668 17.5763 45.164C18.4528 44.6496 19.4473 44.3636 20.4665 44.333C22.8525 44.333 25.2417 44.2537 27.618 44.5106C29.2237 44.6851 30.5596 44.0824 31.8923 43.3085C33.225 42.5345 34.4613 41.7003 35.9482 41.3292C36.6597 41.1711 37.3947 41.1453 38.1158 41.2531C38.4406 41.2647 38.7541 41.3734 39.015 41.5649C39.2759 41.7563 39.4719 42.0214 39.5769 42.3252C39.0663 43.0928 38.3149 43.5939 37.5538 44.0697C33.0538 46.9139 27.7588 48.2806 22.4254 47.9744C20.7426 47.8951 19.1209 47.3654 17.5024 46.9118C17.3743 46.8771 17.2548 46.8167 17.1515 46.7343C17.0481 46.6519 16.9632 46.5492 16.9019 46.4328Z" fill="#FFE799"/>
</g>
<circle id="Ellipse 69" cx="26" cy="26" r="26" fill="#121212" fill-opacity="0.6"/>
</g>
<defs>
<radialGradient id="paint0_radial_451_2086" cx="0" cy="0" r="1" gradientUnits="userSpaceOnUse" gradientTransform="translate(37.5217 17.9081) rotate(98.5928) scale(10.7466 25.032)">
<stop stop-color="white"/>
<stop offset="1" stop-color="#FFE799" stop-opacity="0.3"/>
</radialGradient>
<radialGradient id="paint1_radial_451_2086" cx="0" cy="0" r="1" gradientUnits="userSpaceOnUse" gradientTransform="translate(38.806 21.3972) rotate(140.542) scale(4.9911 13.6482)">
<stop stop-color="white"/>
<stop offset="1" stop-color="#FFB8A2"/>
</radialGradient>
<clipPath id="clip0_451_2086">
<rect width="45" height="45" fill="white" transform="translate(3 3)"/>
</clipPath>
</defs>
</svg>
